NewsreaderText-BoldItalic.ufo
<glyph name="exclam" format="2">
  <advance width="545.512"/>
  <unicode hex="0021"/>
  <outline>
    <contour>
      <point x="687.112" y="1255.144" type="line" smooth="yes"/>
      <point x="710.72" y="1330.504"/>
      <point x="637.12" y="1364.016"/>
      <point x="549.664" y="1364.016" type="curve" smooth="yes"/>
      <point x="462.264" y="1364.016"/>
      <point x="383.888" y="1330.856"/>
      <point x="360.984" y="1256.2" type="curve" smooth="yes"/>
      <point x="341.848" y="1187.696" type="line" smooth="yes"/>
      <point x="312.568" y="1090.28"/>
      <point x="304.632" y="911.296"/>
      <point x="250.16" y="464.688" type="curve"/>
      <point x="314.936" y="464.688" type="line"/>
      <point x="533.784" y="911.296"/>
      <point x="634.472" y="1090.28"/>
      <point x="665.512" y="1187.696" type="curve" smooth="yes"/>
    </contour>
    <contour>
      <point x="208.99200000000002" y="305.0" type="curve" smooth="yes"/>
      <point x="103.368" y="305.0"/>
      <point x="22.04" y="223.50400000000002"/>
      <point x="22.04" y="116.456" type="curve" smooth="yes"/>
      <point x="22.04" y="39.072"/>
      <point x="72.168" y="-20.48"/>
      <point x="160.792" y="-20.48" type="curve" smooth="yes"/>
      <point x="266.416" y="-20.48"/>
      <point x="347.744" y="61.016"/>
      <point x="347.744" y="168.064" type="curve" smooth="yes"/>
      <point x="347.744" y="245.448"/>
      <point x="297.616" y="305.0"/>
    </contour>
  </outline>
</glyph>
<glyph name="quotesingle" format="2">
	<unicode hex="0027"/>
	<advance width="401.104"/>
	<outline>
		<contour>
			<point x="260.04" y="810.808" type="line"/>
			<point x="355.424" y="810.808" type="line"/>
			<point x="584.136" y="1285.52" type="line"/>
			<point x="601.08" y="1340" type="line"/>
			<point x="341.784" y="1340" type="line"/>
			<point x="324.84" y="1285.52" type="line"/>
		</contour>
	</outline>
</glyph>
<glyph name="parenleft" format="2">
	<unicode hex="0028"/>
	<advance width="557.104"/>
	<outline>
		<contour>
			<point x="800.176" y="1371.392" type="curve"/>
			<point x="749.328" y="1425.48" type="line"/>
			<point x="183.056" y="939.88"/>
			<point x="77.632" y="635.92"/>
			<point x="77.632" y="307.88" type="curve" smooth="yes"/>
			<point x="77.632" y="115.296"/>
			<point x="137.256" y="-77.144"/>
			<point x="234.568" y="-275" type="curve"/>
			<point x="303.952" y="-249.576" type="line"/>
			<point x="264.656" y="-102.208"/>
			<point x="248.656" y="23.736"/>
			<point x="248.656" y="140.68" type="curve" smooth="yes"/>
			<point x="248.656" y="526.024"/>
			<point x="350.584" y="911.368"/>
		</contour>
	</outline>
</glyph>
<glyph name="asterisk" format="2">
	<unicode hex="002A"/>
	<advance width="847.464"/>
	<outline>
		<contour>
			<point x="762.536" y="719.592" type="line"/>
			<point x="692.128" y="963.168" type="line"/>
			<point x="942.056" y="1012.464" type="line"/>
			<point x="935.464" y="1085.016" type="line"/>
			<point x="681.832" y="1092.368" type="line"/>
			<point x="714.888" y="1345.296" type="line"/>
			<point x="644.984" y="1361.536" type="line"/>
			<point x="557.928" y="1123.256" type="line"/>
			<point x="327.704" y="1232.072" type="line"/>
			<point x="290.224" y="1170.464" type="line"/>
			<point x="489.504" y="1013.648" type="line"/>
			<point x="314.336" y="829.128" type="line"/>
			<point x="361.352" y="774.112" type="line"/>
			<point x="572.872" y="914.336" type="line"/>
			<point x="695.28" y="690.76" type="line"/>
		</contour>
	</outline>
</glyph>
<glyph name="plus" format="2">
  <advance width="1000.0"/>
  <unicode hex="002B"/>
  <outline>
    <contour>
      <point x="320.488" y="59.56" type="line"/>
      <point x="451.256" y="59.56" type="line"/>
      <point x="680.92" y="812.44" type="line"/>
      <point x="550.152" y="812.44" type="line"/>
    </contour>
    <contour>
      <point x="143.096" y="497.44" type="line"/>
      <point x="105.432" y="374.56" type="line"/>
      <point x="858.312" y="374.56" type="line"/>
      <point x="895.976" y="497.44" type="line"/>
    </contour>
  </outline>
</glyph>
<glyph name="comma" format="2">
	<unicode hex="002C"/>
	<advance width="486.88"/>
	<outline>
		<contour>
			<point x="-138.592" y="-305.48" type="curve"/>
			<point x="-95.04" y="-369.792" type="line"/>
			<point x="260.872" y="-128.584"/>
			<point x="332.744" y="10.712"/>
			<point x="332.744" y="153.6" type="curve" smooth="yes"/>
			<point x="332.744" y="249.688"/>
			<point x="277.968" y="304.648"/>
			<point x="189.104" y="304.648" type="curve" smooth="yes"/>
			<point x="91.552" y="304.648"/>
			<point x="9.744" y="229.616"/>
			<point x="9.744" y="137.472" type="curve" smooth="yes"/>
			<point x="9.744" y="91.456"/>
			<point x="102.576" y="61.384"/>
			<point x="102.576" y="-21.928" type="curve" smooth="yes"/>
			<point x="102.576" y="-89.28"/>
			<point x="49.872" y="-175.984"/>
		</contour>
	</outline>
</glyph>
<glyph name="hyphen" format="2">
  <advance width="679.96"/>
  <unicode hex="002D"/>
  <outline>
    <contour>
      <point x="137.872" y="528.456" type="line"/>
      <point x="85.968" y="357.152" type="line"/>
      <point x="547.736" y="357.152" type="line"/>
      <point x="599.64" y="528.456" type="line"/>
    </contour>
  </outline>
</glyph>
<glyph name="period" format="2">
  <advance width="476"/>
  <unicode hex="002E"/>
  <outline>
    <contour>
      <point x="193.288" y="305.0" type="curve" smooth="yes"/>
      <point x="87.664" y="305.0"/>
      <point x="6.336" y="223.50400000000002"/>
      <point x="6.336" y="116.456" type="curve" smooth="yes"/>
      <point x="6.336" y="39.072"/>
      <point x="56.464" y="-20.48"/>
      <point x="145.088" y="-20.48" type="curve" smooth="yes"/>
      <point x="250.712" y="-20.48"/>
      <point x="332.04" y="61.016"/>
      <point x="332.04" y="168.064" type="curve" smooth="yes"/>
      <point x="332.04" y="245.448"/>
      <point x="281.912" y="305.0"/>
    </contour>
  </outline>
</glyph>
<glyph name="slash" format="2">
	<unicode hex="002F"/>
	<advance width="800.112"/>
	<outline>
		<contour>
			<point x="-60.016" y="0" type="line"/>
			<point x="69.944" y="0" type="line"/>
			<point x="1005.184" y="1340" type="line"/>
			<point x="874.872" y="1340" type="line"/>
		</contour>
	</outline>
</glyph>
<glyph name="zero" format="2">
  <advance width="1229.6"/>
  <unicode hex="0030"/>
  <outline>
    <contour>
      <point x="374.032" y="301.328" type="curve" smooth="yes"/>
      <point x="374.032" y="619.944"/>
      <point x="603.136" y="1261.672"/>
      <point x="864.128" y="1261.672" type="curve" smooth="yes"/>
      <point x="956.36" y="1261.672"/>
      <point x="1000.328" y="1195.608"/>
      <point x="1000.328" y="1039.024" type="curve" smooth="yes"/>
      <point x="1000.328" y="720.408"/>
      <point x="771.224" y="78.68"/>
      <point x="510.23199999999997" y="78.68" type="curve" smooth="yes"/>
      <point x="418.0" y="78.68"/>
      <point x="374.032" y="144.744"/>
    </contour>
    <contour>
      <point x="866.888" y="1366.48" type="curve" smooth="yes"/>
      <point x="433.992" y="1366.128"/>
      <point x="124.0" y="860.256"/>
      <point x="124.0" y="423.408" type="curve" smooth="yes"/>
      <point x="124.0" y="133.296"/>
      <point x="267.424" y="-26.48"/>
      <point x="507.472" y="-26.48" type="curve" smooth="yes"/>
      <point x="940.368" y="-26.48"/>
      <point x="1250.36" y="480.096"/>
      <point x="1250.36" y="916.944" type="curve" smooth="yes"/>
      <point x="1250.36" y="1207.056"/>
      <point x="1106.936" y="1366.48"/>
    </contour>
  </outline>
</glyph>
<glyph name="one" format="2">
	<unicode hex="0031"/>
	<advance width="1229.6"/>
	<outline>
		<contour>
			<point x="454.448" y="99.48" type="line"/>
			<point x="159.096" y="41.24" type="line"/>
			<point x="145.504" y="1.296" type="line"/>
			<point x="971.528" y="1.296" type="line"/>
			<point x="986.768" y="41.24" type="line"/>
			<point x="738.064" y="97.128" type="line"/>
			<point x="1121.232" y="1347.04" type="line"/>
			<point x="979.592" y="1347.04" type="line"/>
			<point x="346.392" y="1061.488" type="line"/>
			<point x="370.704" y="996.568" type="line"/>
			<point x="839.096" y="1128.456" type="line"/>
			<point x="802.616" y="1236.04" type="line"/>
		</contour>
	</outline>
</glyph>
<glyph name="colon" format="2">
	<unicode hex="003A"/>
	<advance width="524.808"/>
	<outline>
		<contour>
			<point x="198.048" y="305" type="curve" smooth="yes"/>
			<point x="92.424" y="305"/>
			<point x="11.096" y="223.504"/>
			<point x="11.096" y="116.456" type="curve" smooth="yes"/>
			<point x="11.096" y="39.072"/>
			<point x="61.224" y="-20.48"/>
			<point x="149.848" y="-20.48" type="curve" smooth="yes"/>
			<point x="255.472" y="-20.48"/>
			<point x="336.8" y="61.016"/>
			<point x="336.8" y="168.064" type="curve" smooth="yes"/>
			<point x="336.8" y="245.448"/>
			<point x="286.672" y="305"/>
		</contour>
		<contour>
			<point x="374.552" y="884.384" type="curve" smooth="yes"/>
			<point x="268.928" y="884.384"/>
			<point x="187.6" y="802.888"/>
			<point x="187.6" y="695.84" type="curve" smooth="yes"/>
			<point x="187.6" y="618.456"/>
			<point x="237.728" y="558.904"/>
			<point x="326.352" y="558.904" type="curve" smooth="yes"/>
			<point x="431.976" y="558.904"/>
			<point x="513.304" y="640.4"/>
			<point x="513.304" y="747.448" type="curve" smooth="yes"/>
			<point x="513.304" y="824.832"/>
			<point x="463.176" y="884.384"/>
		</contour>
	</outline>
</glyph>
<glyph name="semicolon" format="2">
	<unicode hex="003B"/>
	<advance width="534.088"/>
	<outline>
		<contour>
			<point x="-133.016" y="-305.48" type="curve"/>
			<point x="-89.464" y="-369.792" type="line"/>
			<point x="266.448" y="-128.584"/>
			<point x="338.32" y="10.712"/>
			<point x="338.32" y="153.6" type="curve" smooth="yes"/>
			<point x="338.32" y="249.688"/>
			<point x="283.544" y="304.648"/>
			<point x="194.68" y="304.648" type="curve" smooth="yes"/>
			<point x="97.128" y="304.648"/>
			<point x="15.32" y="229.616"/>
			<point x="15.32" y="137.472" type="curve" smooth="yes"/>
			<point x="15.32" y="91.456"/>
			<point x="108.152" y="61.384"/>
			<point x="108.152" y="-21.928" type="curve" smooth="yes"/>
			<point x="108.152" y="-89.28"/>
			<point x="55.448" y="-175.984"/>
		</contour>
		<contour>
			<point x="376.72" y="884.384" type="curve" smooth="yes"/>
			<point x="271.096" y="884.384"/>
			<point x="189.768" y="802.888"/>
			<point x="189.768" y="695.84" type="curve" smooth="yes"/>
			<point x="189.768" y="618.456"/>
			<point x="239.896" y="558.904"/>
			<point x="328.52" y="558.904" type="curve" smooth="yes"/>
			<point x="434.144" y="558.904"/>
			<point x="515.472" y="640.4"/>
			<point x="515.472" y="747.448" type="curve" smooth="yes"/>
			<point x="515.472" y="824.832"/>
			<point x="465.344" y="884.384"/>
		</contour>
	</outline>
</glyph>
<glyph name="less" format="2">
  <advance width="1000.0"/>
  <unicode hex="003C"/>
  <guideline x="1084.352" y="896.536" angle="172.9284383282427" identifier="rrevOd4Prw"/>
  <outline>
    <contour>
      <point x="120.03999999999999" y="382.712" type="line"/>
      <point x="1037.448" y="743.936" type="line"/>
      <point x="1084.352" y="896.536" type="line"/>
      <point x="58.296" y="485.312" type="line"/>
      <point x="28.52" y="386.688" type="line"/>
      <point x="802.464" y="-24.536" type="line"/>
      <point x="840.776" y="100.4" type="line"/>
      <point x="144.184" y="461.624" type="line"/>
    </contour>
  </outline>
</glyph>
<glyph name="greater" format="2">
  <advance width="1000"/>
  <unicode hex="003E"/>
  <outline>
    <contour>
      <point x="881.368" y="489.64" type="line"/>
      <point x="-36.04" y="128.416" type="line"/>
      <point x="-82.944" y="-24.536" type="line"/>
      <point x="943.112" y="386.688" type="line"/>
      <point x="972.888" y="485.312" type="line"/>
      <point x="198.944" y="896.536" type="line"/>
      <point x="160.632" y="771.952" type="line"/>
      <point x="857.224" y="410.728" type="line"/>
    </contour>
  </outline>
</glyph>
<glyph name="question" format="2">
  <advance width="946"/>
  <unicode hex="003F"/>
  <outline>
    <contour>
      <point x="361.688" y="305.0" type="curve" smooth="yes"/>
      <point x="256.064" y="305.0"/>
      <point x="174.736" y="223.50400000000002"/>
      <point x="174.736" y="116.456" type="curve" smooth="yes"/>
      <point x="174.736" y="39.072"/>
      <point x="224.864" y="-20.48"/>
      <point x="313.488" y="-20.48" type="curve" smooth="yes"/>
      <point x="419.112" y="-20.48"/>
      <point x="500.44" y="61.016"/>
      <point x="500.44" y="168.064" type="curve" smooth="yes"/>
      <point x="500.44" y="245.448"/>
      <point x="450.312" y="305.0"/>
    </contour>
    <contour>
      <point x="551.624" y="1366.48" type="curve" smooth="yes"/>
      <point x="367.72" y="1366.48"/>
      <point x="298.336" y="1301.632"/>
      <point x="298.336" y="1224.728" type="curve" smooth="yes"/>
      <point x="298.336" y="1167.232"/>
      <point x="343.48" y="1125.624"/>
      <point x="396.904" y="1125.624" type="curve" smooth="yes"/>
      <point x="510.08" y="1125.624"/>
      <point x="558.112" y="1237.856"/>
      <point x="688.208" y="1237.856" type="curve" smooth="yes"/>
      <point x="785.304" y="1237.856"/>
      <point x="861.6" y="1157.664"/>
      <point x="861.6" y="1058.472" type="curve" smooth="yes"/>
      <point x="861.6" y="904.944"/>
      <point x="761.576" y="828.072"/>
      <point x="464.776" y="843.424" type="curve"/>
      <point x="397.20799999999997" y="464.688" type="line"/>
      <point x="449.872" y="464.688" type="line"/>
      <point x="598.936" y="773.992" type="line"/>
      <point x="464.76" y="616.928" type="line"/>
      <point x="857.128" y="592.208"/>
      <point x="993.44" y="728.136"/>
      <point x="993.44" y="970.688" type="curve" smooth="yes"/>
      <point x="993.44" y="1185.928"/>
      <point x="834.624" y="1366.48"/>
    </contour>
  </outline>
</glyph>
<glyph name="at" format="2">
  <advance width="1790"/>
  <unicode hex="0040"/>
  <outline>
    <contour>
      <point x="1340.1680000000001" y="276.96" type="curve" smooth="yes"/>
      <point x="1294.464" y="276.96"/>
      <point x="1268.704" y="292.424"/>
      <point x="1268.704" y="346.056" type="curve" smooth="yes"/>
      <point x="1268.704" y="376.152"/>
      <point x="1276.872" y="418.824"/>
      <point x="1294.912" y="478.832" type="curve" smooth="yes"/>
      <point x="1441.504" y="987.984" type="line"/>
      <point x="1225.816" y="987.984" type="line"/>
      <point x="1161.288" y="896.376" type="line"/>
      <point x="1060.792" y="622.176" type="line" smooth="yes"/>
      <point x="1001.624" y="458.408"/>
      <point x="891.648" y="357.248"/>
      <point x="831.568" y="357.248" type="curve" smooth="yes"/>
      <point x="794.64" y="357.248"/>
      <point x="775.952" y="375.23199999999997"/>
      <point x="775.952" y="423.048" type="curve" smooth="yes"/>
      <point x="775.952" y="577.576"/>
      <point x="932.2" y="890.64"/>
      <point x="1072.416" y="890.64" type="curve" smooth="yes"/>
      <point x="1126.84" y="890.64"/>
      <point x="1144.768" y="859.048"/>
      <point x="1158.36" y="823.864" type="curve"/>
      <point x="1207.728" y="896.248" type="line"/>
      <point x="1149.232" y="973.296"/>
      <point x="1091.088" y="1003.944"/>
      <point x="1004.888" y="1003.944" type="curve" smooth="yes"/>
      <point x="725.68" y="1003.944"/>
      <point x="501.68" y="636.4"/>
      <point x="501.68" y="387.072" type="curve" smooth="yes"/>
      <point x="501.68" y="267.144"/>
      <point x="562.312" y="186.984"/>
      <point x="696.12" y="186.984" type="curve" smooth="yes"/>
      <point x="813.504" y="186.984"/>
      <point x="920.096" y="256.784"/>
      <point x="1101.504" y="568.2" type="curve"/>
      <point x="1076.448" y="568.2" type="line"/>
      <point x="1044.544" y="456.952" type="line" smooth="yes"/>
      <point x="1033.728" y="418.392"/>
      <point x="1027.616" y="384.296"/>
      <point x="1027.616" y="354.016" type="curve" smooth="yes"/>
      <point x="1027.616" y="249.536"/>
      <point x="1096.576" y="181.152"/>
      <point x="1264.368" y="181.152" type="curve" smooth="yes"/>
      <point x="1599.704" y="181.152"/>
      <point x="1822.424" y="462.432"/>
      <point x="1822.424" y="817.104" type="curve" smooth="yes"/>
      <point x="1822.424" y="1138.36"/>
      <point x="1584.52" y="1386.896"/>
      <point x="1140.392" y="1386.896" type="curve" smooth="yes"/>
      <point x="534.624" y="1386.896"/>
      <point x="95.03999999999999" y="928.728"/>
      <point x="95.03999999999999" y="381.352" type="curve" smooth="yes"/>
      <point x="95.03999999999999" y="-27.608"/>
      <point x="364.008" y="-262.48"/>
      <point x="822.424" y="-262.48" type="curve" smooth="yes"/>
      <point x="1089.52" y="-262.48"/>
      <point x="1306.144" y="-189.312"/>
      <point x="1498.976" y="-73.424" type="curve"/>
      <point x="1458.904" y="2.960000000000001" type="line"/>
      <point x="1255.944" y="-112.8"/>
      <point x="1057.72" y="-154.672"/>
      <point x="867.664" y="-154.672" type="curve" smooth="yes"/>
      <point x="468.056" y="-154.672"/>
      <point x="263.424" y="56.352"/>
      <point x="263.424" y="398.184" type="curve" smooth="yes"/>
      <point x="263.424" y="871.664"/>
      <point x="596.904" y="1293.456"/>
      <point x="1122.8" y="1293.456" type="curve" smooth="yes"/>
      <point x="1515.768" y="1293.456"/>
      <point x="1671.632" y="1064.432"/>
      <point x="1671.632" y="791.456" type="curve" smooth="yes"/>
      <point x="1671.632" y="490.392"/>
      <point x="1511.232" y="276.96"/>
    </contour>
  </outline>
</glyph>
<glyph name="A" format="2">
	<unicode hex="0041"/>
	<advance width="1432.824"/>
	<outline>
		<contour>
			<point x="337.192" y="446.032" type="line"/>
			<point x="982.04" y="446.032" type="line"/>
			<point x="1018.464" y="555.248" type="line"/>
			<point x="373.616" y="555.248" type="line"/>
		</contour>
		<contour>
			<point x="1218.6" y="101.848" type="line"/>
			<point x="1078.528" y="1347.04" type="line"/>
			<point x="892.264" y="1347.04" type="line"/>
			<point x="29.688" y="95.312" type="line"/>
			<point x="-127.832" y="41.888" type="line"/>
			<point x="-140.776" y="0" type="line"/>
			<point x="286.016" y="0" type="line"/>
			<point x="298.96" y="41.888" type="line"/>
			<point x="163.904" y="95.312" type="line"/>
			<point x="888.168" y="1167.136" type="line"/>
			<point x="827.112" y="1161.952" type="line"/>
			<point x="933.112" y="98.552" type="line"/>
			<point x="762.128" y="41.888" type="line"/>
			<point x="748.536" y="0" type="line"/>
			<point x="1332.544" y="0" type="line"/>
			<point x="1345.488" y="41.888" type="line"/>
		</contour>
	</outline>
	<anchor name="UCtop" x="960.88" y="1340"/>
	<anchor name="bottom" x="568.424" y="0"/>
	<anchor name="right" x="1163.208" y="0"/>
</glyph>
<glyph name="B" format="2">
	<unicode hex="0042"/>
	<advance width="1323.16"/>
	<outline>
		<contour>
			<point x="606.568" y="1226.08" type="line"/>
			<point x="873.976" y="1226.08" type="line" smooth="yes"/>
			<point x="1000.648" y="1226.08"/>
			<point x="1062.448" y="1164.376"/>
			<point x="1062.448" y="1061.984" type="curve" smooth="yes"/>
			<point x="1062.448" y="891.944"/>
			<point x="946.48" y="767.96"/>
			<point x="782.952" y="767.96" type="curve" smooth="yes"/>
			<point x="474.416" y="767.96" type="line"/>
			<point x="434.048" y="654.04" type="line"/>
			<point x="730.512" y="654.04" type="line" smooth="yes"/>
			<point x="882.24" y="654.04"/>
			<point x="944.928" y="577.336"/>
			<point x="944.928" y="465.056" type="curve" smooth="yes"/>
			<point x="944.928" y="248.128"/>
			<point x="799.536" y="113.92"/>
			<point x="589.224" y="113.92" type="curve" smooth="yes"/>
			<point x="274.36" y="113.92" type="line"/>
			<point x="251.84" y="0" type="line"/>
			<point x="643.72" y="0" type="line" smooth="yes"/>
			<point x="1045.104" y="0"/>
			<point x="1245.36" y="198.6"/>
			<point x="1245.36" y="457.648" type="curve" smooth="yes"/>
			<point x="1245.36" y="607.1812811679"/>
			<point x="1139.1531183073" y="715.5632314147"/>
			<point x="924.256" y="728.24" type="curve"/>
			<point x="928.48" y="713.24" type="line"/>
			<point x="1188.9661467013" y="735.281539066"/>
			<point x="1349.712" y="861.5495384615"/>
			<point x="1349.712" y="1068.688" type="curve" smooth="yes"/>
			<point x="1349.712" y="1221.648"/>
			<point x="1243.048" y="1340"/>
			<point x="979.776" y="1340" type="curve" smooth="yes"/>
			<point x="660.192" y="1340" type="line"/>
		</contour>
		<contour>
			<point x="459.008" y="1245.112" type="line"/>
			<point x="108.248" y="98.776" type="line"/>
			<point x="-46.088" y="42.24" type="line"/>
			<point x="-58.736" y="0" type="line"/>
			<point x="371.568" y="0" type="line"/>
			<point x="780.92" y="1340" type="line"/>
			<point x="348.672" y="1340" type="line"/>
			<point x="336.024" y="1297.76" type="line"/>
		</contour>
	</outline>
	<anchor name="UCtop" x="879.584" y="1340"/>
	<anchor name="bottom" x="561.688" y="0"/>
</glyph>
<glyph name="D" format="2">
	<unicode hex="0044"/>
	<advance width="1496.936"/>
	<outline>
		<contour>
			<point x="551.416" y="113.92" type="curve" smooth="yes"/>
			<point x="269.928" y="113.92" type="line"/>
			<point x="207.88" y="0" type="line"/>
			<point x="541.4" y="0" type="line" smooth="yes"/>
			<point x="1143.568" y="0"/>
			<point x="1509.208" y="373.72"/>
			<point x="1509.208" y="842.032" type="curve" smooth="yes"/>
			<point x="1509.208" y="1141.616"/>
			<point x="1330.168" y="1340"/>
			<point x="897.504" y="1340" type="curve" smooth="yes"/>
			<point x="617.88" y="1340" type="line"/>
			<point x="604.432" y="1226.08" type="line"/>
			<point x="813.752" y="1226.08" type="line" smooth="yes"/>
			<point x="1079.584" y="1226.08"/>
			<point x="1211.904" y="1097.6785974026"/>
			<point x="1211.904" y="869.36" type="curve" smooth="yes"/>
			<point x="1211.904" y="426.6171428571"/>
			<point x="948.824" y="113.92"/>
		</contour>
		<contour>
			<point x="459.36" y="1247.928" type="line"/>
			<point x="108.248" y="97.016" type="line"/>
			<point x="-44.68" y="41.888" type="line"/>
			<point x="-57.328" y="0" type="line"/>
			<point x="372.272" y="0" type="line"/>
			<point x="780.216" y="1340" type="line"/>
			<point x="347.264" y="1340" type="line"/>
			<point x="334.616" y="1298.112" type="line"/>
		</contour>
	</outline>
	<anchor name="UCtop" x="958.136" y="1340"/>
	<anchor name="bottom" x="656.896" y="0"/>
</glyph>
<glyph name="E" format="2">
  <advance width="1280.28"/>
  <unicode hex="0045"/>
  <anchor x="866.568" y="1340.0" name="UCtop"/>
  <anchor x="943.512" y="0.0" name="right"/>
  <anchor x="564.4" y="0.0" name="bottom"/>
  <outline>
    <contour>
      <point x="459.36" y="1247.928" type="line"/>
      <point x="108.24799999999999" y="97.016" type="line"/>
      <point x="-44.68" y="41.888" type="line"/>
      <point x="-57.328" y="0.0" type="line"/>
      <point x="372.272" y="0.0" type="line"/>
      <point x="780.216" y="1340.0" type="line"/>
      <point x="347.264" y="1340.0" type="line"/>
      <point x="334.616" y="1298.112" type="line"/>
    </contour>
    <contour>
      <point x="1192.896" y="1265.168" type="line"/>
      <point x="1274.464" y="942.744" type="line"/>
      <point x="1333.48" y="942.744" type="line"/>
      <point x="1396.0" y="1406.496" type="line"/>
      <point x="1367.392" y="1406.496" type="line"/>
      <point x="1225.008" y="1340.0" type="line"/>
      <point x="630.192" y="1340.0" type="line"/>
      <point x="592.768" y="1226.08" type="line"/>
      <point x="1235.84" y="1226.08" type="line"/>
    </contour>
    <contour>
      <point x="969.896" y="-73.256" type="line"/>
      <point x="1001.744" y="-73.256" type="line"/>
      <point x="1235.088" y="405.36" type="line"/>
      <point x="1187.776" y="430.896" type="line"/>
      <point x="833.456" y="77.072" type="line"/>
      <point x="931.248" y="113.92" type="line"/>
      <point x="258.264" y="113.92" type="line"/>
      <point x="220.192" y="0.0" type="line"/>
      <point x="867.416" y="0.0" type="line"/>
    </contour>
    <contour>
      <point x="916.336" y="441.0" type="line"/>
      <point x="996.336" y="703.0" type="line"/>
      <point x="1076.336" y="965.0" type="line"/>
      <point x="983.304" y="965.0" type="line"/>
      <point x="899.192" y="759.608" type="line"/>
      <point x="452.08" y="759.608" type="line"/>
      <point x="418.304" y="646.392" type="line"/>
      <point x="865.416" y="646.392" type="line"/>
      <point x="823.304" y="441.0" type="line"/>
    </contour>
  </outline>
</glyph>
<glyph name="F" format="2">
	<unicode hex="0046"/>
	<advance width="1176.744"/>
	<outline>
		<contour>
			<point x="1058.656" y="928.52" type="line"/>
			<point x="965.624" y="928.52" type="line"/>
			<point x="881.512" y="723.128" type="line"/>
			<point x="434.4" y="723.128" type="line"/>
			<point x="400.624" y="609.912" type="line"/>
			<point x="847.736" y="609.912" type="line"/>
			<point x="805.624" y="404.52" type="line"/>
			<point x="898.656" y="404.52" type="line"/>
			<point x="978.656" y="666.52" type="line"/>
		</contour>
		<contour>
			<point x="1312.072" y="942.744" type="line"/>
			<point x="1374.592" y="1406.496" type="line"/>
			<point x="1345.984" y="1406.496" type="line"/>
			<point x="1203.6" y="1340" type="line"/>
			<point x="617.232" y="1340" type="line"/>
			<point x="579.808" y="1226.08" type="line"/>
			<point x="1214.432" y="1226.08" type="line"/>
			<point x="1171.488" y="1265.168" type="line"/>
			<point x="1253.056" y="942.744" type="line"/>
		</contour>
		<contour>
			<point x="399.864" y="92.072" type="line"/>
			<point x="780.864" y="1340" type="line"/>
			<point x="347.264" y="1340" type="line"/>
			<point x="334.616" y="1298.112" type="line"/>
			<point x="459.36" y="1247.928" type="line"/>
			<point x="108.248" y="97.016" type="line"/>
			<point x="-44.68" y="41.888" type="line"/>
			<point x="-57.328" y="0" type="line"/>
			<point x="511.96" y="0" type="line"/>
			<point x="524.608" y="41.888" type="line"/>
		</contour>
	</outline>
	<anchor name="UCtop" x="847.976" y="1340"/>
	<anchor name="bottom" x="228.808" y="0"/>
</glyph>
<glyph name="H" format="2">
	<unicode hex="0048"/>
	<advance width="1589.296"/>
	<outline>
		<contour>
			<point x="400.936" y="627.336" type="line"/>
			<point x="1305.936" y="627.336" type="line"/>
			<point x="1340.064" y="741.256" type="line"/>
			<point x="435.064" y="741.256" type="line"/>
		</contour>
		<contour>
			<point x="459.36" y="1247.928" type="line"/>
			<point x="108.248" y="97.016" type="line"/>
			<point x="-44.68" y="41.888" type="line"/>
			<point x="-57.328" y="0" type="line"/>
			<point x="511.96" y="0" type="line"/>
			<point x="524.608" y="41.888" type="line"/>
			<point x="399.864" y="92.072" type="line"/>
			<point x="750.976" y="1242.984" type="line"/>
			<point x="903.904" y="1298.112" type="line"/>
			<point x="916.552" y="1340" type="line"/>
			<point x="347.264" y="1340" type="line"/>
			<point x="334.616" y="1298.112" type="line"/>
		</contour>
		<contour>
			<point x="1334.488" y="1247.928" type="line"/>
			<point x="983.376" y="97.016" type="line"/>
			<point x="830.448" y="41.888" type="line"/>
			<point x="817.8" y="0" type="line"/>
			<point x="1387.088" y="0" type="line"/>
			<point x="1399.736" y="41.888" type="line"/>
			<point x="1274.992" y="92.072" type="line"/>
			<point x="1626.104" y="1242.984" type="line"/>
			<point x="1779.032" y="1298.112" type="line"/>
			<point x="1791.68" y="1340" type="line"/>
			<point x="1222.392" y="1340" type="line"/>
			<point x="1209.744" y="1298.112" type="line"/>
		</contour>
	</outline>
	<anchor name="UCtop" x="1046.84" y="1340"/>
	<anchor name="bottom" x="661.832" y="0"/>
</glyph>
<glyph name="I" format="2">
	<unicode hex="0049"/>
	<advance width="714.168"/>
	<outline>
		<contour>
			<point x="459.36" y="1247.928" type="line"/>
			<point x="108.248" y="97.016" type="line"/>
			<point x="-44.68" y="41.888" type="line"/>
			<point x="-57.328" y="0" type="line"/>
			<point x="511.96" y="0" type="line"/>
			<point x="524.608" y="41.888" type="line"/>
			<point x="399.864" y="92.072" type="line"/>
			<point x="750.976" y="1242.984" type="line"/>
			<point x="903.904" y="1298.112" type="line"/>
			<point x="916.552" y="1340" type="line"/>
			<point x="347.264" y="1340" type="line"/>
			<point x="334.616" y="1298.112" type="line"/>
		</contour>
	</outline>
	<anchor name="UCtop" x="628.656" y="1340"/>
	<anchor name="right" x="344.336" y="0"/>
	<anchor name="bottom" x="226.4" y="0"/>
</glyph>
<glyph name="J" format="2">
  <advance width="881.4639999999999"/>
  <unicode hex="004A"/>
  <anchor x="822.08" y="1340.0" name="UCtop"/>
  <anchor x="313.968" y="0.0" name="bottom"/>
  <outline>
    <contour>
      <point x="705.936" y="446.656" type="curve" smooth="yes"/>
      <point x="949.384" y="1242.984" type="line"/>
      <point x="1102.312" y="1298.112" type="line"/>
      <point x="1114.96" y="1340.0" type="line"/>
      <point x="545.672" y="1340.0" type="line"/>
      <point x="533.024" y="1298.112" type="line"/>
      <point x="657.768" y="1247.928" type="line"/>
      <point x="355.936" y="259.856" type="line" smooth="yes"/>
      <point x="318.952" y="138.848"/>
      <point x="259.52" y="99.568"/>
      <point x="187.424" y="99.568" type="curve" smooth="yes"/>
      <point x="113.1828861925409" y="99.568"/>
      <point x="62.552" y="209.304"/>
      <point x="11.312000000000001" y="209.304" type="curve" smooth="yes"/>
      <point x="-51.224000000000004" y="209.304"/>
      <point x="-94.184" y="163.528"/>
      <point x="-94.184" y="100.848" type="curve" smooth="yes"/>
      <point x="-94.184" y="24.592"/>
      <point x="-29.48" y="-25.832"/>
      <point x="90.44" y="-25.832" type="curve" smooth="yes"/>
      <point x="372.336" y="-25.832"/>
      <point x="621.048" y="168.64"/>
    </contour>
  </outline>
</glyph>
<glyph name="K" format="2">
	<unicode hex="004B"/>
	<advance width="1465.344"/>
	<outline>
		<contour>
			<point x="1271.872" y="91.312" type="line"/>
			<point x="907.12" y="821.096" type="line"/>
			<point x="841.552" y="712.288" type="line"/>
			<point x="1506.176" y="1249.52" type="line"/>
			<point x="1664.232" y="1298.112" type="line"/>
			<point x="1677.176" y="1340" type="line"/>
			<point x="1246.848" y="1340" type="line"/>
			<point x="1233.904" y="1298.112" type="line"/>
			<point x="1365.016" y="1251.28" type="line"/>
			<point x="740.584" y="750.96" type="line"/>
			<point x="499.56" y="750.96" type="line"/>
			<point x="462.488" y="639.04" type="line"/>
			<point x="674.816" y="639.04" type="line"/>
			<point x="937.168" y="88.48" type="line"/>
			<point x="798.24" y="41.888" type="line"/>
			<point x="785.296" y="0" type="line"/>
			<point x="1373.136" y="0" type="line"/>
			<point x="1386.08" y="41.888" type="line"/>
		</contour>
		<contour>
			<point x="459.36" y="1247.928" type="line"/>
			<point x="108.248" y="97.016" type="line"/>
			<point x="-44.68" y="41.888" type="line"/>
			<point x="-57.328" y="0" type="line"/>
			<point x="511.96" y="0" type="line"/>
			<point x="524.608" y="41.888" type="line"/>
			<point x="399.864" y="92.072" type="line"/>
			<point x="750.976" y="1242.984" type="line"/>
			<point x="903.904" y="1298.112" type="line"/>
			<point x="916.552" y="1340" type="line"/>
			<point x="347.264" y="1340" type="line"/>
			<point x="334.616" y="1298.112" type="line"/>
		</contour>
	</outline>
	<anchor name="UCtop" x="1005.336" y="1340"/>
	<anchor name="bottom" x="684.784" y="0"/>
</glyph>
<glyph name="L" format="2">
  <advance width="1204"/>
  <unicode hex="004C"/>
  <anchor x="624.376" y="1340.0" name="UCtop"/>
  <anchor x="980.656" y="1340.0" name="right"/>
  <anchor x="517.904" y="0.0" name="bottom"/>
  <anchor x="1045.16" y="702.0" name="mid"/>
  <outline>
    <contour>
      <point x="750.328" y="1239.744" type="line"/>
      <point x="904.552" y="1296.816" type="line"/>
      <point x="918.496" y="1340.0" type="line"/>
      <point x="349.20799999999997" y="1340.0" type="line"/>
      <point x="335.912" y="1296.816" type="line"/>
      <point x="457.416" y="1240.8" type="line"/>
      <point x="109.544" y="100.256" type="line"/>
      <point x="-44.68" y="43.184" type="line"/>
      <point x="-57.976" y="0.0" type="line"/>
      <point x="372.92" y="0.0" type="line"/>
    </contour>
    <contour>
      <point x="774.656" y="77.072" type="line"/>
      <point x="872.448" y="113.92" type="line"/>
      <point x="234.664" y="113.92" type="line"/>
      <point x="196.592" y="0.0" type="line"/>
      <point x="808.616" y="0.0" type="line"/>
      <point x="907.856" y="-80.384" type="line"/>
      <point x="939.704" y="-80.384" type="line"/>
      <point x="1182.768" y="424.8" type="line"/>
      <point x="1135.456" y="450.336" type="line"/>
    </contour>
  </outline>
</glyph>
<glyph name="N" format="2">
  <advance width="1453"/>
  <unicode hex="004E"/>
  <anchor x="999.664" y="1340.0" name="UCtop"/>
  <anchor x="651.928" y="0.0" name="bottom"/>
  <outline>
    <contour>
      <point x="1149.896" y="246.792" type="line"/>
      <point x="751.608" y="1340.0" type="line"/>
      <point x="330.912" y="1340.0" type="line"/>
      <point x="319.912" y="1302.648" type="line"/>
      <point x="457.176" y="1221.208" type="line"/>
      <point x="112.952" y="94.424" type="line"/>
      <point x="-39.976" y="41.888" type="line"/>
      <point x="-52.624" y="0.0" type="line"/>
      <point x="339.56" y="0.0" type="line"/>
      <point x="352.20799999999997" y="41.888" type="line"/>
      <point x="219.04" y="93.368" type="line"/>
      <point x="565.744" y="1226.832" type="line"/>
      <point x="514.488" y="1211.248" type="line"/>
      <point x="945.56" y="-7.039999999999999" type="line"/>
      <point x="1125.232" y="-7.039999999999999" type="line"/>
      <point x="1508.4" y="1245.576" type="line"/>
      <point x="1661.328" y="1298.112" type="line"/>
      <point x="1673.976" y="1340.0" type="line"/>
      <point x="1281.792" y="1340.0" type="line"/>
      <point x="1269.144" y="1298.112" type="line"/>
      <point x="1402.312" y="1246.632" type="line"/>
      <point x="1071.832" y="165.6" type="line"/>
    </contour>
  </outline>
</glyph>
<glyph name="P" format="2">
	<unicode hex="0050"/>
	<advance width="1249.032"/>
	<outline>
		<contour>
			<point x="754.416" y="674.352" type="curve" smooth="yes"/>
			<point x="389.264" y="674.352" type="line"/>
			<point x="356.416" y="560.432" type="line"/>
			<point x="758.704" y="560.432" type="line" smooth="yes"/>
			<point x="1172.84" y="560.432"/>
			<point x="1377.936" y="762.04"/>
			<point x="1377.936" y="1029.504" type="curve" smooth="yes"/>
			<point x="1377.936" y="1200.336"/>
			<point x="1260.232" y="1340"/>
			<point x="930" y="1340" type="curve" smooth="yes"/>
			<point x="596.192" y="1340" type="line"/>
			<point x="554.192" y="1226.08" type="line"/>
			<point x="857.176" y="1226.08" type="line" smooth="yes"/>
			<point x="1021.48" y="1226.08"/>
			<point x="1089.928" y="1152.208"/>
			<point x="1089.928" y="1028.832" type="curve" smooth="yes"/>
			<point x="1089.928" y="818.44"/>
			<point x="976.696" y="674.352"/>
		</contour>
		<contour>
			<point x="399.864" y="92.072" type="line"/>
			<point x="780.864" y="1340" type="line"/>
			<point x="347.264" y="1340" type="line"/>
			<point x="334.616" y="1298.112" type="line"/>
			<point x="459.36" y="1247.928" type="line"/>
			<point x="108.248" y="97.016" type="line"/>
			<point x="-44.68" y="41.888" type="line"/>
			<point x="-57.328" y="0" type="line"/>
			<point x="511.96" y="0" type="line"/>
			<point x="524.608" y="41.888" type="line"/>
		</contour>
	</outline>
	<anchor name="UCtop" x="890.88" y="1340"/>
	<anchor name="bottom" x="223.176" y="0"/>
</glyph>
<glyph name="Q" format="2">
	<unicode hex="0051"/>
	<advance width="1504.512"/>
	<outline>
		<contour>
			<point x="646.136" y="-213.36" type="line" smooth="yes"/>
			<point x="794.32" y="-346.856"/>
			<point x="878.832" y="-397.536"/>
			<point x="1081.888" y="-397.536" type="curve" smooth="yes"/>
			<point x="1207.696" y="-397.536"/>
			<point x="1287.432" y="-380.944"/>
			<point x="1374.432" y="-355.832" type="curve"/>
			<point x="1395.448" y="-287.488" type="line"/>
			<point x="1243.248" y="-300.656"/>
			<point x="1182.336" y="-267.792"/>
			<point x="1006.704" y="-157.936" type="curve" smooth="yes"/>
			<point x="644.872" y="66.976" type="line"/>
			<point x="694.872" y="0.48" type="line"/>
			<point x="1155.128" y="-40.448"/>
			<point x="1515.192" y="390.024"/>
			<point x="1515.192" y="835.496" type="curve" smooth="yes"/>
			<point x="1515.192" y="1168.072"/>
			<point x="1311.192" y="1366.48"/>
			<point x="959.976" y="1366.48" type="curve" smooth="yes"/>
			<point x="495.704" y="1366.48"/>
			<point x="136.08" y="965.112"/>
			<point x="136.08" y="504.504" type="curve" smooth="yes"/>
			<point x="136.08" y="321.24"/>
			<point x="197.304" y="186.72"/>
			<point x="305.696" y="89.664" type="curve" smooth="yes"/>
		</contour>
		<contour>
			<point x="431.568" y="441.864" type="curve" smooth="yes"/>
			<point x="431.568" y="849.1638368356"/>
			<point x="659.432" y="1247.136"/>
			<point x="957.568" y="1247.136" type="curve" smooth="yes"/>
			<point x="1120.456" y="1247.136"/>
			<point x="1219.704" y="1135.0610169492"/>
			<point x="1219.704" y="898.136" type="curve" smooth="yes"/>
			<point x="1219.704" y="490.8361631644"/>
			<point x="991.84" y="92.864"/>
			<point x="693.704" y="92.864" type="curve" smooth="yes"/>
			<point x="530.816" y="92.864"/>
			<point x="431.568" y="204.9389830508"/>
		</contour>
	</outline>
	<anchor name="UCtop" x="1011.896" y="1340"/>
	<anchor name="bottom" x="507.416" y="-143.488"/>
</glyph>
<glyph name="R" format="2">
  <advance width="1350"/>
  <unicode hex="0052"/>
  <anchor x="877.816" y="1340.0" name="UCtop"/>
  <anchor x="662.896" y="0.0" name="bottom"/>
  <outline>
    <contour>
      <point x="771.184" y="729.776" type="curve" smooth="yes"/>
      <point x="347.52" y="729.776" type="line"/>
      <point x="364.288" y="615.856" type="line"/>
      <point x="685.528" y="615.856" type="line" smooth="yes"/>
      <point x="770.472" y="615.856"/>
      <point x="800.104" y="594.504"/>
      <point x="824.752" y="460.528" type="curve" smooth="yes"/>
      <point x="877.368" y="186.976" type="line" smooth="yes"/>
      <point x="909.776" y="13.424"/>
      <point x="952.384" y="-25.96"/>
      <point x="1270.192" y="0.0" type="curve"/>
      <point x="1287.784" y="74.032" type="line"/>
      <point x="1221.688" y="73.032"/>
      <point x="1189.336" y="77.664"/>
      <point x="1159.984" y="217.088" type="curve" smooth="yes"/>
      <point x="1112.592" y="438.024" type="line" smooth="yes"/>
      <point x="1082.184" y="581.616"/>
      <point x="1037.816" y="662.408"/>
      <point x="883.248" y="674.24" type="curve"/>
      <point x="883.248" y="669.888" type="line"/>
      <point x="1201.408" y="678.168"/>
      <point x="1366.24" y="839.392"/>
      <point x="1366.24" y="1057.28" type="curve" smooth="yes"/>
      <point x="1366.24" y="1225.264"/>
      <point x="1248.408" y="1340.0"/>
      <point x="947.024" y="1340.0" type="curve" smooth="yes"/>
      <point x="596.192" y="1340.0" type="line"/>
      <point x="505.872" y="1226.08" type="line"/>
      <point x="856.552" y="1226.08" type="line" smooth="yes"/>
      <point x="1014.712" y="1226.08"/>
      <point x="1077.752" y="1166.504"/>
      <point x="1077.752" y="1058.352" type="curve" smooth="yes"/>
      <point x="1077.752" y="878.384"/>
      <point x="966.744" y="729.776"/>
    </contour>
    <contour>
      <point x="399.86400000000003" y="92.072" type="line"/>
      <point x="780.864" y="1340.0" type="line"/>
      <point x="347.264" y="1340.0" type="line"/>
      <point x="334.616" y="1298.112" type="line"/>
      <point x="459.36" y="1247.928" type="line"/>
      <point x="108.24799999999999" y="97.016" type="line"/>
      <point x="-44.68" y="41.888" type="line"/>
      <point x="-57.328" y="0.0" type="line"/>
      <point x="511.96000000000004" y="0.0" type="line"/>
      <point x="524.608" y="41.888" type="line"/>
    </contour>
  </outline>
</glyph>
<glyph name="S" format="2">
	<unicode hex="0053"/>
	<advance width="1114.632"/>
	<outline>
		<contour>
			<point x="1033.504" y="1149.064" type="curve"/>
			<point x="950.936" y="1280.776" type="line"/>
			<point x="1060.648" y="928.224" type="line"/>
			<point x="1118.848" y="928.224" type="line"/>
			<point x="1176.336" y="1410.96" type="line"/>
			<point x="1141.192" y="1410.96" type="line"/>
			<point x="1005.912" y="1323.424" type="line"/>
			<point x="1050.656" y="1322.72" type="line"/>
			<point x="966.56" y="1353.24"/>
			<point x="885.544" y="1366.48"/>
			<point x="794.192" y="1366.48" type="curve" smooth="yes"/>
			<point x="473.848" y="1366.48"/>
			<point x="261.024" y="1194.76"/>
			<point x="261.024" y="932.048" type="curve" smooth="yes"/>
			<point x="261.024" y="780.176"/>
			<point x="332.6" y="677.776"/>
			<point x="509.384" y="594.816" type="curve" smooth="yes"/>
			<point x="685.52" y="512.856"/>
			<point x="778.264" y="456.952"/>
			<point x="778.264" y="323.952" type="curve" smooth="yes"/>
			<point x="778.264" y="179.184"/>
			<point x="655.928" y="89.16"/>
			<point x="423.832" y="89.16" type="curve" smooth="yes"/>
			<point x="335.208" y="89.16"/>
			<point x="256.4" y="108.12"/>
			<point x="167.48" y="147.024" type="curve"/>
			<point x="301.552" y="44.28" type="line"/>
			<point x="131.648" y="420.344" type="line"/>
			<point x="77.04" y="420.344" type="line"/>
			<point x="73.192" y="41.76" type="line"/>
			<point x="172.656" y="-2.408"/>
			<point x="282.816" y="-26.48"/>
			<point x="413.52" y="-26.48" type="curve" smooth="yes"/>
			<point x="785.136" y="-26.48"/>
			<point x="1031.256" y="153.24"/>
			<point x="1031.256" y="446.192" type="curve" smooth="yes"/>
			<point x="1031.256" y="616.92"/>
			<point x="952.768" y="721.36"/>
			<point x="765.8" y="811.096" type="curve" smooth="yes"/>
			<point x="578.48" y="901.184"/>
			<point x="506.48" y="947.48"/>
			<point x="506.48" y="1051.272" type="curve" smooth="yes"/>
			<point x="506.48" y="1181.928"/>
			<point x="595.28" y="1258.376"/>
			<point x="760.376" y="1258.376" type="curve" smooth="yes"/>
			<point x="872.6" y="1258.376"/>
			<point x="961.408" y="1221.6"/>
		</contour>
	</outline>
	<anchor name="UCtop" x="749.384" y="1340"/>
	<anchor name="bottom" x="489.824" y="0"/>
</glyph>
<glyph name="V" format="2">
	<unicode hex="0056"/>
	<advance width="1379.144"/>
	<outline>
		<contour>
			<point x="359.576" y="1238.152" type="line"/>
			<point x="471.504" y="-7.04" type="line"/>
			<point x="657.768" y="-7.04" type="line"/>
			<point x="1493.512" y="1244.688" type="line"/>
			<point x="1651.032" y="1298.112" type="line"/>
			<point x="1663.976" y="1340" type="line"/>
			<point x="1237.184" y="1340" type="line"/>
			<point x="1224.24" y="1298.112" type="line"/>
			<point x="1359.296" y="1244.688" type="line"/>
			<point x="661.864" y="172.864" type="line"/>
			<point x="726.808" y="178.048" type="line"/>
			<point x="648.952" y="1241.448" type="line"/>
			<point x="819.936" y="1298.112" type="line"/>
			<point x="833.528" y="1340" type="line"/>
			<point x="245.632" y="1340" type="line"/>
			<point x="232.688" y="1298.112" type="line"/>
		</contour>
	</outline>
	<anchor name="UCtop" x="987.464" y="1340"/>
	<anchor name="bottom" x="595.504" y="0"/>
</glyph>
<glyph name="W" format="2">
	<unicode hex="0057"/>
	<advance width="1958.368"/>
	<outline>
		<contour>
			<point x="1937.04" y="1243.632" type="line"/>
			<point x="1408.4" y="236.128" type="line"/>
			<point x="1472.944" y="250.448" type="line"/>
			<point x="1445.08" y="1347.04" type="line"/>
			<point x="1255.52" y="1347.04" type="line"/>
			<point x="564.576" y="263.232" type="line"/>
			<point x="611.04" y="261.936" type="line"/>
			<point x="654.232" y="1240.392" type="line"/>
			<point x="824.864" y="1298.464" type="line"/>
			<point x="838.456" y="1340" type="line"/>
			<point x="252.448" y="1340" type="line"/>
			<point x="239.504" y="1298.464" type="line"/>
			<point x="366.392" y="1237.096" type="line"/>
			<point x="320.272" y="-7.04" type="line"/>
			<point x="506.184" y="-7.04" type="line"/>
			<point x="1211.6" y="1077.024" type="line"/>
			<point x="1152.856" y="1071.168" type="line"/>
			<point x="1194.272" y="-7.04" type="line"/>
			<point x="1380.184" y="-7.04" type="line"/>
			<point x="2069.848" y="1243.632" type="line"/>
			<point x="2223.848" y="1298.464" type="line"/>
			<point x="2236.792" y="1340" type="line"/>
			<point x="1811.408" y="1340" type="line"/>
			<point x="1798.464" y="1298.464" type="line"/>
		</contour>
	</outline>
	<anchor name="UCtop" x="1307.192" y="1340"/>
	<anchor name="bottom" x="904.672" y="0"/>
</glyph>
<glyph name="Y" format="2">
	<unicode hex="0059"/>
	<advance width="1372.272"/>
	<outline>
		<contour>
			<point x="1337.888" y="1247.152" type="line"/>
			<point x="816.92" y="638.312" type="line"/>
			<point x="867.456" y="638.256" type="line"/>
			<point x="658.936" y="1242.152" type="line"/>
			<point x="824.992" y="1298.112" type="line"/>
			<point x="838.936" y="1340" type="line"/>
			<point x="251.04" y="1340" type="line"/>
			<point x="237.744" y="1298.112" type="line"/>
			<point x="366.744" y="1238.856" type="line"/>
			<point x="608.224" y="590.072" type="line"/>
			<point x="457.576" y="97.016" type="line"/>
			<point x="304.648" y="41.888" type="line"/>
			<point x="292" y="0" type="line"/>
			<point x="861.288" y="0" type="line"/>
			<point x="873.936" y="41.888" type="line"/>
			<point x="749.192" y="92.072" type="line"/>
			<point x="902.192" y="593.184" type="line"/>
			<point x="1465.864" y="1246.096" type="line"/>
			<point x="1620.568" y="1298.112" type="line"/>
			<point x="1633.864" y="1340" type="line"/>
			<point x="1212.96" y="1340" type="line"/>
			<point x="1199.664" y="1298.112" type="line"/>
		</contour>
	</outline>
	<anchor name="UCtop" x="939.192" y="1340"/>
	<anchor name="bottom" x="585.376" y="0"/>
</glyph>
<glyph name="Z" format="2">
  <advance width="1260"/>
  <unicode hex="005A"/>
  <anchor x="891.44" y="1340.0" name="UCtop"/>
  <anchor x="544.28" y="0.0" name="bottom"/>
  <outline>
    <contour>
      <point x="1427.08" y="1340.0" type="line"/>
      <point x="574.2" y="1340.0" type="line"/>
      <point x="450.576" y="1408.72" type="line"/>
      <point x="420.856" y="1408.72" type="line"/>
      <point x="209.544" y="953.32" type="line"/>
      <point x="254.56" y="925.896" type="line"/>
      <point x="557.352" y="1226.08" type="line"/>
      <point x="1206.8" y="1226.08" type="line"/>
      <point x="1055.704" y="1271.0" type="line"/>
      <point x="-10.28" y="48.512" type="line"/>
      <point x="-24.704" y="0.0" type="line"/>
      <point x="869.84" y="0.0" type="line"/>
      <point x="983.984" y="-63.903999999999996" type="line"/>
      <point x="1011.296" y="-63.903999999999996" type="line"/>
      <point x="1205.496" y="381.936" type="line"/>
      <point x="1159.368" y="395.76800000000003" type="line"/>
      <point x="889.448" y="113.92" type="line"/>
      <point x="215.848" y="113.92" type="line"/>
      <point x="341.024" y="69.0" type="line"/>
      <point x="1412.008" y="1291.488" type="line"/>
    </contour>
  </outline>
</glyph>
<glyph name="bracketleft" format="2">
  <advance width="597.152"/>
  <unicode hex="005B"/>
  <outline>
    <contour>
      <point x="-40.736000000000004" y="-252.816" type="line"/>
      <point x="357.56" y="-252.816" type="line"/>
      <point x="384.392" y="-163.376" type="line"/>
      <point x="169.88" y="-163.376" type="line"/>
      <point x="620.272" y="1309.56" type="line"/>
      <point x="834.784" y="1309.56" type="line"/>
      <point x="862.616" y="1399.0" type="line"/>
      <point x="463.968" y="1399.0" type="line"/>
    </contour>
  </outline>
</glyph>
<glyph name="backslash" format="2">
	<unicode hex="005C"/>
	<advance width="743.48"/>
	<outline>
		<contour>
			<point x="565.312" y="0" type="line"/>
			<point x="433.776" y="1340" type="line"/>
			<point x="323.928" y="1340" type="line"/>
			<point x="455.168" y="0" type="line"/>
		</contour>
	</outline>
</glyph>
<glyph name="bracketright" format="2">
	<unicode hex="005D"/>
	<advance width="598.208"/>
	<outline>
		<contour>
			<point x="725.296" y="1399.352" type="line"/>
			<point x="327" y="1399.352" type="line"/>
			<point x="299.52" y="1309.912" type="line"/>
			<point x="514.68" y="1309.912" type="line"/>
			<point x="64.288" y="-163.024" type="line"/>
			<point x="-150.872" y="-163.024" type="line"/>
			<point x="-178.056" y="-252.464" type="line"/>
			<point x="220.592" y="-252.464" type="line"/>
		</contour>
	</outline>
</glyph>
<glyph name="asciicircum" format="2">
  <advance width="1000"/>
  <unicode hex="005E"/>
  <outline>
    <contour>
      <point x="728.488" y="1246.0" type="line"/>
      <point x="815.688" y="592.0" type="line"/>
      <point x="937.216" y="592.0" type="line"/>
      <point x="834.016" y="1340.0" type="line"/>
      <point x="724.096" y="1340.0" type="line"/>
      <point x="166.89600000000002" y="592.0" type="line"/>
      <point x="309.608" y="592.0" type="line"/>
      <point x="794.808" y="1246.0" type="line"/>
    </contour>
  </outline>
</glyph>
<glyph name="a" format="2">
  <advance width="1084.352"/>
  <unicode hex="0061"/>
  <guideline x="742.96" y="620.736" angle="178.75179023222532" identifier="aqAELEUetM"/>
  <anchor x="681.96" y="864.96" name="top"/>
  <anchor x="863.88" y="0.0" name="right"/>
  <anchor x="405.112" y="0.0" name="bottom"/>
  <outline>
    <contour>
      <point x="545.672" y="76.104" type="line" smooth="yes"/>
      <point x="521.656" y="4.056"/>
      <point x="559.376" y="-26.48"/>
      <point x="660.44" y="-26.48" type="curve" smooth="yes"/>
      <point x="787.024" y="-26.48"/>
      <point x="921.0160000000001" y="60.92"/>
      <point x="1065.664" y="255.264" type="curve"/>
      <point x="1026.0" y="292.448" type="line"/>
      <point x="925.04" y="188.768"/>
      <point x="837.0" y="144.008"/>
      <point x="754.8" y="143.344" type="curve"/>
      <point x="793.832" y="71.648" type="line"/>
      <point x="1050.016" y="864.96" type="line"/>
      <point x="874.96" y="864.96" type="line"/>
      <point x="766.272" y="793.032" type="line"/>
      <point x="634.368" y="457.84" type="line" smooth="yes"/>
      <point x="562.72" y="274.128"/>
      <point x="420.168" y="155.488"/>
      <point x="343.18399999999997" y="155.488" type="curve" smooth="yes"/>
      <point x="301.96000000000004" y="155.488"/>
      <point x="283.456" y="172.768"/>
      <point x="283.456" y="221.048" type="curve" smooth="yes"/>
      <point x="283.456" y="383.104"/>
      <point x="467.15999999999997" y="766.152"/>
      <point x="644.304" y="766.152" type="curve" smooth="yes"/>
      <point x="707.784" y="766.152"/>
      <point x="743.488" y="731.264"/>
      <point x="756.432" y="692.136" type="curve"/>
      <point x="808.096" y="762.336" type="line"/>
      <point x="747.952" y="850.032"/>
      <point x="679.624" y="882.864"/>
      <point x="586.424" y="882.864" type="curve" smooth="yes"/>
      <point x="279.704" y="882.864"/>
      <point x="9.096" y="463.4"/>
      <point x="9.096" y="181.944" type="curve" smooth="yes"/>
      <point x="9.096" y="42.888"/>
      <point x="93.648" y="-25.424"/>
      <point x="213.664" y="-25.424" type="curve" smooth="yes"/>
      <point x="343.88" y="-25.424"/>
      <point x="464.656" y="49.263999999999996"/>
      <point x="678.912" y="398.752" type="curve"/>
      <point x="652.264" y="398.752" type="line"/>
    </contour>
  </outline>
</glyph>
<glyph name="b" format="2">
  <advance width="1011"/>
  <unicode hex="0062"/>
  <anchor x="821.512" y="1340.648" name="UCtop"/>
  <anchor x="345.192" y="0.0" name="bottom"/>
  <outline>
    <contour>
      <point x="314.776" y="314.408" type="curve" smooth="yes"/>
      <point x="328.128" y="358.224" type="line" smooth="yes"/>
      <point x="381.776" y="535.504"/>
      <point x="523.024" y="697.64"/>
      <point x="621.344" y="697.64" type="curve" smooth="yes"/>
      <point x="674.256" y="697.64"/>
      <point x="700.536" y="664.248"/>
      <point x="700.536" y="590.744" type="curve" smooth="yes"/>
      <point x="700.536" y="344.856"/>
      <point x="520.992" y="62.848"/>
      <point x="383.76" y="62.848" type="curve" smooth="yes"/>
      <point x="323.832" y="62.848"/>
      <point x="289.776" y="98.312"/>
      <point x="289.776" y="174.832" type="curve" smooth="yes"/>
      <point x="289.776" y="211.24"/>
      <point x="297.776" y="258.0"/>
    </contour>
    <contour>
      <point x="337.824" y="1206.736" type="curve"/>
      <point x="93.224" y="396.192" type="line" smooth="yes"/>
      <point x="78.576" y="348.896"/>
      <point x="72.224" y="303.952"/>
      <point x="72.224" y="262.656" type="curve" smooth="yes"/>
      <point x="72.224" y="88.904"/>
      <point x="192.92000000000002" y="-26.48"/>
      <point x="376.744" y="-26.48" type="curve" smooth="yes"/>
      <point x="712.856" y="-26.48"/>
      <point x="987.9680000000001" y="314.944"/>
      <point x="987.9680000000001" y="651.648" type="curve" smooth="yes"/>
      <point x="987.9680000000001" y="793.608"/>
      <point x="906.824" y="891.44"/>
      <point x="771.4" y="891.44" type="curve" smooth="yes"/>
      <point x="650.384" y="891.44"/>
      <point x="507.368" y="796.624"/>
      <point x="357.88800000000003" y="544.944" type="curve"/>
      <point x="377.904" y="536.16" type="line"/>
      <point x="668.232" y="1425.48" type="line"/>
      <point x="634.864" y="1425.48" type="line"/>
      <point x="224.00799999999998" y="1359.28" type="line"/>
      <point x="210.528" y="1313.544" type="line"/>
      <point x="266.584" y="1278.936"/>
      <point x="301.76800000000003" y="1249.16"/>
    </contour>
  </outline>
</glyph>
<glyph name="c" format="2">
  <advance width="816"/>
  <unicode hex="0063"/>
  <anchor x="535.648" y="864.96" name="top"/>
  <anchor x="609.088" y="0.0" name="right"/>
  <anchor x="376.632" y="0.0" name="bottom"/>
  <outline>
    <contour>
      <point x="529.928" y="792.704" type="curve" smooth="yes"/>
      <point x="569.6320000000001" y="792.704"/>
      <point x="604.928" y="763.0"/>
      <point x="641.056" y="707.672" type="curve" smooth="yes"/>
      <point x="677.184" y="652.344"/>
      <point x="694.704" y="630.36"/>
      <point x="711.4639999999999" y="630.712" type="curve" smooth="yes"/>
      <point x="787.624" y="631.064"/>
      <point x="838.472" y="670.32"/>
      <point x="838.472" y="738.52" type="curve" smooth="yes"/>
      <point x="838.472" y="822.664"/>
      <point x="767.512" y="891.44"/>
      <point x="601.208" y="891.44" type="curve" smooth="yes"/>
      <point x="311.4" y="891.44"/>
      <point x="45.336" y="639.248"/>
      <point x="45.336" y="288.6" type="curve" smooth="yes"/>
      <point x="45.336" y="89.272"/>
      <point x="151.312" y="-26.48"/>
      <point x="348.504" y="-26.48" type="curve" smooth="yes"/>
      <point x="523.976" y="-26.48"/>
      <point x="640.304" y="51.888"/>
      <point x="751.136" y="323.304" type="curve"/>
      <point x="689.36" y="323.304" type="line"/>
      <point x="613.712" y="192.728"/>
      <point x="542.896" y="151.32"/>
      <point x="457.00800000000004" y="151.32" type="curve" smooth="yes"/>
      <point x="359.048" y="151.32"/>
      <point x="316.048" y="202.32"/>
      <point x="316.048" y="335.784" type="curve" smooth="yes"/>
      <point x="316.048" y="572.912"/>
      <point x="417.272" y="792.704"/>
    </contour>
  </outline>
</glyph>
<glyph name="d" format="2">
  <advance width="1081"/>
  <unicode hex="0064"/>
  <anchor x="893.344" y="1385.76" name="UCtop"/>
  <anchor x="1228.096" y="1399.0" name="right"/>
  <anchor x="427.024" y="0.0" name="bottom"/>
  <anchor x="957.128" y="1075.888" name="center"/>
  <outline>
    <contour>
      <point x="753.176" y="695.656" type="curve"/>
      <point x="804.84" y="766.208" type="line"/>
      <point x="744.696" y="853.904"/>
      <point x="676.368" y="887.088"/>
      <point x="583.168" y="887.088" type="curve" smooth="yes"/>
      <point x="274.688" y="887.088"/>
      <point x="11.392" y="465.512"/>
      <point x="11.392" y="183.0" type="curve" smooth="yes"/>
      <point x="11.392" y="43.24"/>
      <point x="95.944" y="-25.424"/>
      <point x="215.96" y="-25.424" type="curve" smooth="yes"/>
      <point x="346.88" y="-25.424"/>
      <point x="460.696" y="48.56"/>
      <point x="675.656" y="398.752" type="curve"/>
      <point x="649.008" y="398.752" type="line"/>
      <point x="541.768" y="76.104" type="line" smooth="yes"/>
      <point x="517.752" y="4.056"/>
      <point x="555.472" y="-26.48"/>
      <point x="656.5360000000001" y="-26.48" type="curve" smooth="yes"/>
      <point x="783.12" y="-26.48"/>
      <point x="917.112" y="60.92"/>
      <point x="1061.76" y="255.264" type="curve"/>
      <point x="1022.096" y="292.448" type="line"/>
      <point x="921.136" y="188.768"/>
      <point x="833.096" y="144.008"/>
      <point x="750.896" y="143.344" type="curve"/>
      <point x="789.928" y="71.648" type="line"/>
      <point x="1225.0720000000001" y="1425.48" type="line"/>
      <point x="1191.704" y="1425.48" type="line"/>
      <point x="782.088" y="1359.632" type="line"/>
      <point x="768.256" y="1313.896" type="line"/>
      <point x="814.888" y="1285.12"/>
      <point x="856.848" y="1246.92"/>
      <point x="890.256" y="1195.424" type="curve"/>
      <point x="675.824" y="538.192" type="line" smooth="yes"/>
      <point x="592.384" y="284.832"/>
      <point x="425.632" y="155.488"/>
      <point x="345.48" y="155.488" type="curve" smooth="yes"/>
      <point x="304.256" y="155.488"/>
      <point x="285.752" y="173.472"/>
      <point x="285.752" y="222.10399999999998" type="curve" smooth="yes"/>
      <point x="285.752" y="384.864"/>
      <point x="461.79200000000003" y="770.024"/>
      <point x="641.048" y="770.024" type="curve" smooth="yes"/>
      <point x="704.528" y="770.024"/>
      <point x="740.232" y="734.784"/>
    </contour>
  </outline>
</glyph>
<glyph name="e" format="2">
	<unicode hex="0065"/>
	<advance width="858.64"/>
	<outline>
		<contour>
			<point x="557.912" y="798.52" type="curve" smooth="yes"/>
			<point x="602.064" y="798.52"/>
			<point x="624.696" y="769.592"/>
			<point x="624.696" y="719.776" type="curve" smooth="yes"/>
			<point x="624.696" y="618.76"/>
			<point x="562.248" y="557.088"/>
			<point x="254.208" y="455.072" type="curve"/>
			<point x="251.208" y="370.76" type="line"/>
			<point x="434.776" y="413.984"/>
			<point x="628.008" y="472.928"/>
			<point x="781.712" y="537.28" type="curve"/>
			<point x="822.008" y="579"/>
			<point x="849.008" y="642.648"/>
			<point x="849.008" y="705.48" type="curve" smooth="yes"/>
			<point x="849.008" y="808.736"/>
			<point x="777.696" y="891.44"/>
			<point x="595.576" y="891.44" type="curve" smooth="yes"/>
			<point x="311.4" y="891.44"/>
			<point x="45.336" y="639.248"/>
			<point x="45.336" y="288.6" type="curve" smooth="yes"/>
			<point x="45.336" y="91.032"/>
			<point x="160.48" y="-26.48"/>
			<point x="365.56" y="-26.48" type="curve" smooth="yes"/>
			<point x="550.848" y="-26.48"/>
			<point x="669.248" y="49.296"/>
			<point x="782.504" y="323.304" type="curve"/>
			<point x="720.024" y="323.304" type="line"/>
			<point x="643.192" y="190.968"/>
			<point x="570.896" y="151.32"/>
			<point x="469.88" y="151.32" type="curve" smooth="yes"/>
			<point x="376.696" y="151.32"/>
			<point x="316.048" y="202.32"/>
			<point x="316.048" y="335.784" type="curve" smooth="yes"/>
			<point x="316.048" y="552.464"/>
			<point x="423.472" y="798.52"/>
		</contour>
	</outline>
	<anchor name="top" x="546.096" y="864.96"/>
	<anchor name="right" x="646.664" y="0"/>
	<anchor name="bottom" x="360.912" y="0"/>
</glyph>
<glyph name="f" format="2">
  <advance width="697"/>
  <unicode hex="0066"/>
  <anchor x="851.096" y="1340.0" name="UCtop"/>
  <anchor x="18.52" y="-503.52" name="bottom"/>
  <outline>
    <contour>
      <point x="94.03999999999999" y="766.168" type="line"/>
      <point x="802.7280000000001" y="766.168" type="line"/>
      <point x="821.9680000000001" y="864.96" type="line"/>
      <point x="112.28" y="864.96" type="line"/>
    </contour>
    <contour>
      <point x="455.544" y="289.552" type="curve" smooth="yes"/>
      <point x="625.9680000000001" y="1053.936" type="line" smooth="yes"/>
      <point x="669.616" y="1249.256"/>
      <point x="728.808" y="1311.784"/>
      <point x="833.688" y="1311.784" type="curve" smooth="yes"/>
      <point x="888.6320000000001" y="1311.784"/>
      <point x="937.592" y="1282.416"/>
      <point x="980.552" y="1232.864" type="curve" smooth="yes"/>
      <point x="1023.512" y="1183.312"/>
      <point x="1051.752" y="1145.68"/>
      <point x="1075.088" y="1145.68" type="curve" smooth="yes"/>
      <point x="1135.328" y="1145.68"/>
      <point x="1192.008" y="1194.696"/>
      <point x="1192.008" y="1264.968" type="curve" smooth="yes"/>
      <point x="1192.008" y="1353.576"/>
      <point x="1114.008" y="1425.48"/>
      <point x="944.6800000000001" y="1425.48" type="curve" smooth="yes"/>
      <point x="653.112" y="1425.48"/>
      <point x="387.168" y="1218.336"/>
      <point x="303.024" y="811.648" type="curve" smooth="yes"/>
      <point x="107.328" y="-133.584" type="line" smooth="yes"/>
      <point x="60.32" y="-365.552"/>
      <point x="3.2960000000000003" y="-420.8"/>
      <point x="-79.544" y="-420.8" type="curve" smooth="yes"/>
      <point x="-114.84" y="-420.8"/>
      <point x="-149.192" y="-402.56"/>
      <point x="-191.8" y="-345.528" type="curve" smooth="yes"/>
      <point x="-234.408" y="-288.496"/>
      <point x="-258.704" y="-264.44"/>
      <point x="-282.76" y="-264.44" type="curve" smooth="yes"/>
      <point x="-337.48" y="-264.44"/>
      <point x="-383.144" y="-311.032"/>
      <point x="-383.144" y="-376.712" type="curve" smooth="yes"/>
      <point x="-383.144" y="-464.8"/>
      <point x="-314.776" y="-530.0"/>
      <point x="-167.024" y="-530.0" type="curve" smooth="yes"/>
      <point x="93.024" y="-530.0"/>
      <point x="314.848" y="-333.448"/>
    </contour>
  </outline>
</glyph>
<glyph name="g" format="2">
  <advance width="926.488"/>
  <unicode hex="0067"/>
  <anchor x="542.576" y="864.96" name="top"/>
  <anchor x="265.408" y="-510.56" name="bottom"/>
  <outline>
    <contour>
      <point x="952.136" y="716.576" type="curve" smooth="yes"/>
      <point x="1021.112" y="716.576"/>
      <point x="1072.536" y="777.256"/>
      <point x="1072.536" y="848.624" type="curve" smooth="yes"/>
      <point x="1072.536" y="883.864"/>
      <point x="1049.352" y="900.512"/>
      <point x="1015.352" y="900.512" type="curve" smooth="yes"/>
      <point x="932.704" y="900.512"/>
      <point x="848.576" y="850.552"/>
      <point x="634.016" y="878.144" type="curve"/>
      <point x="638.224" y="822.072" type="line"/>
      <point x="854.64" y="865.488"/>
      <point x="857.216" y="716.576"/>
    </contour>
    <contour>
      <point x="392.20799999999997" y="315.608" type="curve"/>
      <point x="353.296" y="315.608"/>
      <point x="331.608" y="344.888"/>
      <point x="331.608" y="418.448" type="curve" smooth="yes"/>
      <point x="331.608" y="580.424"/>
      <point x="422.152" y="818.424"/>
      <point x="530.376" y="818.424" type="curve"/>
      <point x="569.288" y="818.424"/>
      <point x="590.976" y="789.144"/>
      <point x="590.976" y="715.5840000000001" type="curve" smooth="yes"/>
      <point x="590.976" y="553.608"/>
      <point x="500.432" y="315.608"/>
    </contour>
    <contour>
      <point x="537.192" y="891.44" type="curve"/>
      <point x="288.72" y="891.44"/>
      <point x="97.464" y="723.232"/>
      <point x="97.464" y="501.456" type="curve" smooth="yes"/>
      <point x="97.464" y="346.904"/>
      <point x="196.552" y="242.592"/>
      <point x="385.392" y="242.592" type="curve"/>
      <point x="633.864" y="242.592"/>
      <point x="825.12" y="410.8"/>
      <point x="825.12" y="632.576" type="curve" smooth="yes"/>
      <point x="825.12" y="787.128"/>
      <point x="726.032" y="891.44"/>
    </contour>
    <contour>
      <point x="261.176" y="-530.0" type="curve" smooth="yes"/>
      <point x="592.0936102820197" y="-530.0"/>
      <point x="784.424" y="-393.12672823373526"/>
      <point x="784.424" y="-202.56799999999998" type="curve" smooth="yes"/>
      <point x="784.424" y="-85.45599999999999"/>
      <point x="705.056" y="8.448000000000008"/>
      <point x="442.376" y="71.36" type="curve" smooth="yes"/>
      <point x="245.736" y="117.28800000000001"/>
      <point x="210.552" y="146.16"/>
      <point x="210.552" y="183.032" type="curve" smooth="yes"/>
      <point x="210.552" y="223.12208167721082"/>
      <point x="249.368" y="262.144"/>
      <point x="336.608" y="266.72" type="curve"/>
      <point x="303.624" y="290.96" type="line"/>
      <point x="114.47200000000001" y="272.104"/>
      <point x="10.664000000000001" y="183.424"/>
      <point x="10.664000000000001" y="61.896" type="curve" smooth="yes"/>
      <point x="10.664000000000001" y="-31.264000000000003"/>
      <point x="66.288" y="-106.152"/>
      <point x="262.664" y="-151.336" type="curve" smooth="yes"/>
      <point x="492.864" y="-205.856"/>
      <point x="561.984" y="-242.136"/>
      <point x="561.984" y="-308.72" type="curve" smooth="yes"/>
      <point x="561.984" y="-386.296"/>
      <point x="479.576" y="-448.20799999999997"/>
      <point x="313.368" y="-448.20799999999997" type="curve" smooth="yes"/>
      <point x="119.056" y="-448.20799999999997"/>
      <point x="31.424" y="-376.20799999999997"/>
      <point x="31.424" y="-293.96" type="curve" smooth="yes"/>
      <point x="31.424" y="-184.904"/>
      <point x="147.816" y="-117.976"/>
      <point x="353.592" y="-107.088" type="curve"/>
      <point x="358.776" y="-92.80799999999999" type="line"/>
      <point x="261.464" y="-92.80799999999999" type="line"/>
      <point x="-66.184" y="-127.048"/>
      <point x="-156.544" y="-218.304"/>
      <point x="-156.544" y="-323.272" type="curve" smooth="yes"/>
      <point x="-156.544" y="-445.408"/>
      <point x="-27.168000000000006" y="-530.0"/>
    </contour>
  </outline>
</glyph>
<glyph name="i" format="2">
	<unicode hex="0069"/>
	<advance width="633.496"/>
	<outline>
		<contour>
			<point x="63.704" y="85.544" type="line" smooth="yes"/>
			<point x="35.152" y="9.368"/>
			<point x="70.168" y="-26.48"/>
			<point x="179.16" y="-26.48" type="curve" smooth="yes"/>
			<point x="313.52" y="-26.48"/>
			<point x="451.16" y="50.088"/>
			<point x="601.88" y="237.768" type="curve"/>
			<point x="563.512" y="276.896" type="line"/>
			<point x="460.608" y="179.696"/>
			<point x="378.048" y="135.344"/>
			<point x="280.648" y="140.104" type="curve"/>
			<point x="328.752" y="72.296" type="line"/>
			<point x="582.92" y="779.416" type="line" smooth="yes"/>
			<point x="610.472" y="854.888"/>
			<point x="575.048" y="891.44"/>
			<point x="474.152" y="891.44" type="curve" smooth="yes"/>
			<point x="337.792" y="891.44"/>
			<point x="194.376" y="815.872"/>
			<point x="51.192" y="606.912" type="curve"/>
			<point x="91.56" y="570.784" type="line"/>
			<point x="190.352" y="677.928"/>
			<point x="272.8" y="726.096"/>
			<point x="371.496" y="723.448" type="curve"/>
			<point x="317.872" y="772.664" type="line"/>
		</contour>
		<contour>
			<point x="421.68" y="1262.416" type="curve" smooth="yes"/>
			<point x="421.68" y="1169.904"/>
			<point x="489.064" y="1103.408"/>
			<point x="579.096" y="1103.408" type="curve" smooth="yes"/>
			<point x="669.776" y="1103.408"/>
			<point x="737.16" y="1169.904"/>
			<point x="737.16" y="1262.416" type="curve" smooth="yes"/>
			<point x="737.16" y="1356.224"/>
			<point x="669.776" y="1421.424"/>
			<point x="579.096" y="1421.424" type="curve" smooth="yes"/>
			<point x="489.064" y="1421.424"/>
			<point x="421.68" y="1356.224"/>
		</contour>
	</outline>
	<anchor name="top" x="593.656" y="1360.768"/>
	<anchor name="bottom" x="204.632" y="0"/>
	<anchor name="right" x="391.296" y="0"/>
</glyph>
<glyph name="j" format="2">
	<unicode hex="006A"/>
	<advance width="589.864"/>
	<outline>
		<contour>
			<point x="407.512" y="1262.416" type="curve" smooth="yes"/>
			<point x="407.512" y="1169.904"/>
			<point x="474.896" y="1103.408"/>
			<point x="564.928" y="1103.408" type="curve" smooth="yes"/>
			<point x="655.608" y="1103.408"/>
			<point x="722.992" y="1169.904"/>
			<point x="722.992" y="1262.416" type="curve" smooth="yes"/>
			<point x="722.992" y="1356.224"/>
			<point x="655.608" y="1421.424"/>
			<point x="564.928" y="1421.424" type="curve" smooth="yes"/>
			<point x="474.896" y="1421.424"/>
			<point x="407.512" y="1356.224"/>
		</contour>
		<contour>
			<point x="345.304" y="24.072" type="curve" smooth="yes"/>
			<point x="568.752" y="779.416" type="line" smooth="yes"/>
			<point x="591.712" y="857.184"/>
			<point x="560.88" y="891.44"/>
			<point x="459.984" y="891.44" type="curve" smooth="yes"/>
			<point x="319.048" y="891.44"/>
			<point x="174.928" y="808.48"/>
			<point x="37.024" y="606.912" type="curve"/>
			<point x="77.392" y="570.784" type="line"/>
			<point x="176.184" y="677.928"/>
			<point x="258.632" y="726.096"/>
			<point x="357.328" y="723.448" type="curve"/>
			<point x="303.704" y="772.664" type="line"/>
			<point x="27.008" y="-134.184" type="line" smooth="yes"/>
			<point x="-39.016" y="-352.184"/>
			<point x="-100.8" y="-419.112"/>
			<point x="-180.896" y="-419.112" type="curve" smooth="yes"/>
			<point x="-210.36" y="-419.112"/>
			<point x="-243.008" y="-398.872"/>
			<point x="-278.544" y="-346.432" type="curve" smooth="yes"/>
			<point x="-314.08" y="-293.992"/>
			<point x="-331.32" y="-277.808"/>
			<point x="-346.56" y="-277.808" type="curve" smooth="yes"/>
			<point x="-412.536" y="-277.808"/>
			<point x="-454.424" y="-322.64"/>
			<point x="-454.424" y="-384.712" type="curve" smooth="yes"/>
			<point x="-454.424" y="-469.336"/>
			<point x="-392.224" y="-530"/>
			<point x="-253.384" y="-530" type="curve" smooth="yes"/>
			<point x="-10.84" y="-530"/>
			<point x="235.472" y="-346.96"/>
		</contour>
	</outline>
	<anchor name="top" x="569.488" y="1360.768"/>
	<anchor name="bottom" x="-20.952" y="-503.52"/>
</glyph>
<glyph name="k" format="2">
	<unicode hex="006B"/>
	<advance width="1073.664"/>
	<outline>
		<contour>
			<point x="687.696" y="1425.48" type="line"/>
			<point x="654.328" y="1425.48" type="line"/>
			<point x="249.248" y="1359.984" type="line"/>
			<point x="235.416" y="1314.248" type="line"/>
			<point x="291.12" y="1279.64"/>
			<point x="325.952" y="1249.864"/>
			<point x="361.304" y="1207.44" type="curve"/>
			<point x="-3.848" y="0" type="line"/>
			<point x="255.512" y="0" type="line"/>
		</contour>
		<contour>
			<point x="385.088" y="470.816" type="line"/>
			<point x="533.648" y="44.552"/>
			<point x="592.272" y="-26.48"/>
			<point x="673.92" y="-26.48" type="curve" smooth="yes"/>
			<point x="786.616" y="-26.48"/>
			<point x="901.552" y="59.792"/>
			<point x="1028.848" y="247.88" type="curve"/>
			<point x="988.424" y="282.712" type="line"/>
			<point x="904.464" y="184.048"/>
			<point x="852.032" y="150.32"/>
			<point x="815.216" y="150.32" type="curve" smooth="yes"/>
			<point x="771.16" y="150.32"/>
			<point x="732.792" y="196.336"/>
			<point x="576.976" y="617.52" type="curve"/>
			<point x="492.304" y="497.368" type="line"/>
			<point x="612.656" y="630.72"/>
			<point x="755.624" y="723.688"/>
			<point x="828.64" y="723.688" type="curve" smooth="yes"/>
			<point x="855.064" y="723.688"/>
			<point x="873.248" y="706.856"/>
			<point x="895.136" y="663.84" type="curve" smooth="yes"/>
			<point x="917.024" y="620.824"/>
			<point x="932.208" y="606.528"/>
			<point x="953.448" y="606.528" type="curve" smooth="yes"/>
			<point x="1037.944" y="606.528"/>
			<point x="1110.144" y="664.304"/>
			<point x="1110.144" y="757.632" type="curve" smooth="yes"/>
			<point x="1110.144" y="829.184"/>
			<point x="1058.48" y="891.44"/>
			<point x="969.856" y="891.44" type="curve" smooth="yes"/>
			<point x="844.728" y="891.44"/>
			<point x="721.584" y="826.68"/>
			<point x="404.344" y="508.2" type="curve"/>
		</contour>
	</outline>
	<anchor name="UCtop" x="806.568" y="1385.76"/>
	<anchor name="bottom" x="446.776" y="0"/>
</glyph>
<glyph name="l" format="2">
	<unicode hex="006C"/>
	<advance width="597.568"/>
	<outline>
		<contour>
			<point x="381.32" y="1210.976" type="curve"/>
			<point x="23.928" y="85.544" type="line" smooth="yes"/>
			<point x="-1.68" y="7.016"/>
			<point x="34.264" y="-26.48"/>
			<point x="139.384" y="-26.48" type="curve" smooth="yes"/>
			<point x="279.576" y="-26.48"/>
			<point x="428.88" y="43.608"/>
			<point x="581.544" y="237.768" type="curve"/>
			<point x="543.176" y="276.248" type="line"/>
			<point x="436.384" y="174.512"/>
			<point x="347.344" y="134.048"/>
			<point x="246.056" y="142.696" type="curve"/>
			<point x="287.216" y="75.816" type="line"/>
			<point x="717.432" y="1425.48" type="line"/>
			<point x="684.064" y="1425.48" type="line"/>
			<point x="272.504" y="1359.632" type="line"/>
			<point x="258.672" y="1313.896" type="line"/>
			<point x="313.08" y="1280.584"/>
			<point x="347.264" y="1252.104"/>
		</contour>
	</outline>
	<anchor name="UCtop" x="535.824" y="1385.76"/>
	<anchor name="bottom" x="147.28" y="0"/>
	<anchor name="right" x="720.104" y="1399"/>
	<anchor name="mid" x="683.208" y="546"/>
</glyph>
<glyph name="m" format="2">
  <advance width="1648"/>
  <unicode hex="006D"/>
  <anchor x="972.328" y="864.96" name="top"/>
  <anchor x="721.4" y="0.0" name="bottom"/>
  <outline>
    <contour>
      <point x="1341.432" y="72.296" type="line"/>
      <point x="1523.768" y="550.952" type="line" smooth="yes"/>
      <point x="1553.064" y="628.192"/>
      <point x="1566.416" y="692.32"/>
      <point x="1566.416" y="740.856" type="curve" smooth="yes"/>
      <point x="1566.416" y="830.296"/>
      <point x="1516.104" y="891.792"/>
      <point x="1386.128" y="891.792" type="curve" smooth="yes"/>
      <point x="1233.896" y="891.792"/>
      <point x="1089.568" y="784.112"/>
      <point x="925.368" y="406.104" type="curve"/>
      <point x="944.384" y="406.104" type="line"/>
      <point x="1007.336" y="629.416" type="line" smooth="yes"/>
      <point x="1022.264" y="679.2"/>
      <point x="1031.136" y="720.0"/>
      <point x="1031.136" y="753.632" type="curve" smooth="yes"/>
      <point x="1031.136" y="839.368"/>
      <point x="980.12" y="891.44"/>
      <point x="871.528" y="891.44" type="curve" smooth="yes"/>
      <point x="733.144" y="891.44"/>
      <point x="590.392" y="793.944"/>
      <point x="422.52" y="417.424" type="curve"/>
      <point x="430.168" y="399.28" type="line"/>
      <point x="566.144" y="870.144" type="line"/>
      <point x="502.28" y="884.088"/>
      <point x="460.096" y="890.44"/>
      <point x="395.528" y="890.44" type="curve" smooth="yes"/>
      <point x="245.704" y="890.44"/>
      <point x="122.744" y="813.832"/>
      <point x="35.912" y="560.064" type="curve"/>
      <point x="86.816" y="539.88" type="line"/>
      <point x="162.352" y="687.672"/>
      <point x="207.264" y="712.304"/>
      <point x="285.096" y="712.304" type="curve" smooth="yes"/>
      <point x="290.096" y="712.304"/>
      <point x="295.096" y="712.304"/>
      <point x="300.096" y="712.304" type="curve"/>
      <point x="84.464" y="0.0" type="line"/>
      <point x="344.528" y="0.0" type="line"/>
      <point x="406.456" y="201.89600000000002" type="line" smooth="yes"/>
      <point x="509.00800000000004" y="536.496"/>
      <point x="638.704" y="700.104"/>
      <point x="726.824" y="700.104" type="curve" smooth="yes"/>
      <point x="760.624" y="700.104"/>
      <point x="777.68" y="686.232"/>
      <point x="777.68" y="656.768" type="curve" smooth="yes"/>
      <point x="777.68" y="640.656"/>
      <point x="771.976" y="615.008"/>
      <point x="756.496" y="567.568" type="curve" smooth="yes"/>
      <point x="570.64" y="0.0" type="line"/>
      <point x="838.5360000000001" y="0.0" type="line"/>
      <point x="905.688" y="213.864" type="line"/>
      <point x="1018.832" y="562.272"/>
      <point x="1156.008" y="700.752"/>
      <point x="1237.424" y="700.752" type="curve" smooth="yes"/>
      <point x="1274.224" y="700.752"/>
      <point x="1288.04" y="681.048"/>
      <point x="1288.04" y="652.232" type="curve" smooth="yes"/>
      <point x="1288.04" y="631.232"/>
      <point x="1280.744" y="605.288"/>
      <point x="1261.968" y="556.552" type="curve" smooth="yes"/>
      <point x="1084.96" y="98.92" type="line" smooth="yes"/>
      <point x="1050.128" y="9.016"/>
      <point x="1081.92" y="-26.48"/>
      <point x="1195.488" y="-26.48" type="curve" smooth="yes"/>
      <point x="1331.792" y="-26.48"/>
      <point x="1469.488" y="53.032"/>
      <point x="1623.448" y="252.376" type="curve"/>
      <point x="1584.376" y="290.504" type="line"/>
      <point x="1480.048" y="190.232"/>
      <point x="1398.064" y="143.64"/>
      <point x="1307.792" y="142.344" type="curve"/>
    </contour>
  </outline>
</glyph>
<glyph name="n" format="2">
  <advance width="1174.0"/>
  <unicode hex="006E"/>
  <anchor x="704.448" y="864.96" name="top"/>
  <anchor x="522.4" y="0.0" name="bottom"/>
  <outline>
    <contour>
      <point x="86.816" y="539.88" type="line"/>
      <point x="162.352" y="687.672"/>
      <point x="207.264" y="712.304"/>
      <point x="285.096" y="712.304" type="curve" smooth="yes"/>
      <point x="290.096" y="712.304"/>
      <point x="295.096" y="712.304"/>
      <point x="300.096" y="712.304" type="curve"/>
      <point x="84.464" y="0.0" type="line"/>
      <point x="344.528" y="0.0" type="line"/>
      <point x="406.456" y="201.89600000000002" type="line"/>
      <point x="508.952" y="536.624"/>
      <point x="662.408" y="701.104"/>
      <point x="759.008" y="701.104" type="curve" smooth="yes"/>
      <point x="798.16" y="701.104"/>
      <point x="813.568" y="681.696"/>
      <point x="813.568" y="652.584" type="curve" smooth="yes"/>
      <point x="813.568" y="630.88"/>
      <point x="805.568" y="603.88"/>
      <point x="786.792" y="555.144" type="curve" smooth="yes"/>
      <point x="610.136" y="98.92" type="line" smooth="yes"/>
      <point x="575.304" y="9.016"/>
      <point x="607.096" y="-26.48"/>
      <point x="720.664" y="-26.48" type="curve" smooth="yes"/>
      <point x="856.9680000000001" y="-26.48"/>
      <point x="994.664" y="53.032"/>
      <point x="1148.624" y="252.376" type="curve"/>
      <point x="1109.552" y="290.504" type="line"/>
      <point x="1005.224" y="190.232"/>
      <point x="923.24" y="143.64"/>
      <point x="832.9680000000001" y="142.344" type="curve"/>
      <point x="866.608" y="72.296" type="line"/>
      <point x="1050.352" y="551.656" type="line" smooth="yes"/>
      <point x="1077.888" y="623.968"/>
      <point x="1091.24" y="686.336"/>
      <point x="1091.24" y="734.52" type="curve" smooth="yes"/>
      <point x="1091.24" y="826.072"/>
      <point x="1040.336" y="890.384"/>
      <point x="905.712" y="890.384" type="curve" smooth="yes"/>
      <point x="743.6" y="890.384"/>
      <point x="582.064" y="750.352"/>
      <point x="423.296" y="405.624" type="curve"/>
      <point x="430.592" y="389.424" type="line"/>
      <point x="569.384" y="870.144" type="line"/>
      <point x="504.224" y="884.088"/>
      <point x="461.392" y="890.44"/>
      <point x="395.528" y="890.44" type="curve" smooth="yes"/>
      <point x="245.704" y="890.44"/>
      <point x="122.744" y="813.832"/>
      <point x="35.912" y="560.064" type="curve"/>
    </contour>
  </outline>
</glyph>
<glyph name="o" format="2">
  <advance width="972.4159999999999"/>
  <unicode hex="006F"/>
  <anchor x="610.76" y="864.96" name="top"/>
  <anchor x="353.912" y="0.0" name="bottom"/>
  <anchor x="707.84" y="864.96" name="horn"/>
  <anchor x="462.27200000000005" y="0.0" name="right"/>
  <outline>
    <contour>
      <point x="585.32" y="891.44" type="curve" smooth="yes"/>
      <point x="289.272" y="891.44"/>
      <point x="49.688" y="632.896"/>
      <point x="49.688" y="310.88" type="curve" smooth="yes"/>
      <point x="49.688" y="105.792"/>
      <point x="167.48" y="-26.48"/>
      <point x="386.744" y="-26.48" type="curve" smooth="yes"/>
      <point x="682.792" y="-26.48"/>
      <point x="922.376" y="232.064"/>
      <point x="922.376" y="554.08" type="curve" smooth="yes"/>
      <point x="922.376" y="759.168"/>
      <point x="804.5840000000001" y="891.44"/>
    </contour>
    <contour>
      <point x="385.504" y="66.44" type="curve" smooth="yes"/>
      <point x="331.016" y="66.44"/>
      <point x="304.736" y="102.112"/>
      <point x="304.736" y="203.488" type="curve" smooth="yes"/>
      <point x="304.736" y="470.32"/>
      <point x="457.384" y="798.52"/>
      <point x="586.56" y="798.52" type="curve" smooth="yes"/>
      <point x="641.048" y="798.52"/>
      <point x="667.328" y="762.848"/>
      <point x="667.328" y="661.472" type="curve" smooth="yes"/>
      <point x="667.328" y="394.64"/>
      <point x="514.68" y="66.44"/>
    </contour>
  </outline>
</glyph>
<glyph name="p" format="2">
  <advance width="1114.576"/>
  <unicode hex="0070"/>
  <guideline x="126.368" y="-411.04" angle="168.5172166476857" identifier="sw4OuuivSm"/>
  <anchor x="682.832" y="864.96" name="top"/>
  <anchor x="80.12" y="-503.52" name="bottom"/>
  <outline>
    <contour>
      <point x="422.4" y="304.144" type="curve" smooth="yes"/>
      <point x="435.92" y="358.52" type="line" smooth="yes"/>
      <point x="475.088" y="516.08"/>
      <point x="606.648" y="697.344"/>
      <point x="702.896" y="697.344" type="curve" smooth="yes"/>
      <point x="766.64" y="697.344"/>
      <point x="788.624" y="653.88"/>
      <point x="788.624" y="570.728" type="curve" smooth="yes"/>
      <point x="788.624" y="320.52"/>
      <point x="621.728" y="64.44"/>
      <point x="501.536" y="64.44" type="curve" smooth="yes"/>
      <point x="434.808" y="64.44"/>
      <point x="403.104" y="106.888"/>
      <point x="403.104" y="179.776" type="curve" smooth="yes"/>
      <point x="403.104" y="208.792"/>
      <point x="408.344" y="248.272"/>
    </contour>
    <contour>
      <point x="252.168" y="83.368" type="line"/>
      <point x="293.52" y="8.943999999999999"/>
      <point x="398.76" y="-26.48"/>
      <point x="530.304" y="-26.48" type="curve" smooth="yes"/>
      <point x="853.296" y="-26.48"/>
      <point x="1080.8319999999999" y="306.224"/>
      <point x="1080.8319999999999" y="626.8" type="curve" smooth="yes"/>
      <point x="1080.8319999999999" y="783.736"/>
      <point x="985.544" y="891.44"/>
      <point x="845.488" y="891.44" type="curve" smooth="yes"/>
      <point x="701.552" y="891.44"/>
      <point x="570.552" y="774.184"/>
      <point x="438.18399999999997" y="500.896" type="curve"/>
      <point x="460.736" y="496.168" type="line"/>
      <point x="564.456" y="870.848" type="line"/>
      <point x="499.648" y="884.44"/>
      <point x="456.81600000000003" y="891.144"/>
      <point x="391.656" y="891.144" type="curve" smooth="yes"/>
      <point x="243.24" y="891.144"/>
      <point x="122.03999999999999" y="814.184"/>
      <point x="35.208" y="560.064" type="curve"/>
      <point x="86.112" y="539.88" type="line"/>
      <point x="161.296" y="687.672"/>
      <point x="206.208" y="712.304"/>
      <point x="284.392" y="712.304" type="curve" smooth="yes"/>
      <point x="288.336" y="712.304"/>
      <point x="292.28" y="712.304"/>
      <point x="296.224" y="712.304" type="curve"/>
      <point x="-31.256" y="-411.04" type="line"/>
      <point x="-163.408" y="-463.928" type="line"/>
      <point x="-176.76" y="-503.52" type="line"/>
      <point x="358.832" y="-503.52" type="line"/>
      <point x="372.832" y="-463.28" type="line"/>
      <point x="237.176" y="-411.688" type="line"/>
      <point x="379.36" y="83.368" type="line"/>
    </contour>
  </outline>
</glyph>
<glyph name="q" format="2">
	<unicode hex="0071"/>
	<advance width="1021.928"/>
	<outline>
		<contour>
			<point x="382.6" y="-411.336" type="line"/>
			<point x="216.464" y="-463.28" type="line"/>
			<point x="203.52" y="-503.52" type="line"/>
			<point x="739.52" y="-503.52" type="line"/>
			<point x="752.464" y="-463.928" type="line"/>
			<point x="651.032" y="-411.04" type="line"/>
			<point x="1040.296" y="864.96" type="line"/>
			<point x="822.648" y="864.96" type="line"/>
			<point x="747.4" y="764.168" type="line"/>
			<point x="637.608" y="466.264" type="line" smooth="yes"/>
			<point x="567.256" y="272.184"/>
			<point x="420.168" y="155.488"/>
			<point x="343.184" y="155.488" type="curve" smooth="yes"/>
			<point x="301.96" y="155.488"/>
			<point x="283.456" y="172.768"/>
			<point x="283.456" y="221.048" type="curve" smooth="yes"/>
			<point x="283.456" y="383.104"/>
			<point x="467.16" y="766.152"/>
			<point x="644.304" y="766.152" type="curve" smooth="yes"/>
			<point x="707.784" y="766.152"/>
			<point x="743.488" y="731.264"/>
			<point x="756.432" y="692.136" type="curve"/>
			<point x="808.096" y="762.336" type="line"/>
			<point x="747.952" y="850.032"/>
			<point x="679.624" y="882.864"/>
			<point x="586.424" y="882.864" type="curve" smooth="yes"/>
			<point x="279.704" y="882.864"/>
			<point x="9.096" y="463.4"/>
			<point x="9.096" y="181.944" type="curve" smooth="yes"/>
			<point x="9.096" y="42.888"/>
			<point x="93.648" y="-25.424"/>
			<point x="213.664" y="-25.424" type="curve" smooth="yes"/>
			<point x="343.88" y="-25.424"/>
			<point x="463.36" y="53.8"/>
			<point x="677.616" y="403.288" type="curve"/>
			<point x="636.064" y="403.288" type="line"/>
		</contour>
	</outline>
	<anchor name="top" x="656.816" y="864.96"/>
	<anchor name="bottom" x="489.752" y="-503.52"/>
</glyph>
<glyph name="r" format="2">
  <advance width="907.592"/>
  <unicode hex="0072"/>
  <anchor x="581.256" y="864.96" name="top"/>
  <anchor x="216.376" y="0.0" name="bottom"/>
  <outline>
    <contour>
      <point x="300.096" y="712.304" type="curve"/>
      <point x="84.464" y="0.0" type="line"/>
      <point x="345.824" y="0.0" type="line"/>
      <point x="405.79200000000003" y="199.664" type="line" smooth="yes"/>
      <point x="502.64" y="524.224"/>
      <point x="631.496" y="690.696"/>
      <point x="713.2" y="690.696" type="curve" smooth="yes"/>
      <point x="739.384" y="690.696"/>
      <point x="758.92" y="677.344"/>
      <point x="780.456" y="645.512" type="curve" smooth="yes"/>
      <point x="801.992" y="613.68"/>
      <point x="814.288" y="601.792"/>
      <point x="831.768" y="601.792" type="curve" smooth="yes"/>
      <point x="917.744" y="601.792"/>
      <point x="990.832" y="666.88"/>
      <point x="990.832" y="756.504" type="curve" smooth="yes"/>
      <point x="990.832" y="836.832"/>
      <point x="943.224" y="891.44"/>
      <point x="848.432" y="891.44" type="curve" smooth="yes"/>
      <point x="720.656" y="891.44"/>
      <point x="577.256" y="769.072"/>
      <point x="426.392" y="426.928" type="curve"/>
      <point x="436.576" y="408.784" type="line"/>
      <point x="569.384" y="870.144" type="line"/>
      <point x="504.224" y="884.088"/>
      <point x="461.392" y="890.44"/>
      <point x="395.528" y="890.44" type="curve" smooth="yes"/>
      <point x="245.704" y="890.44"/>
      <point x="122.744" y="813.832"/>
      <point x="35.912" y="560.064" type="curve"/>
      <point x="86.816" y="539.88" type="line"/>
      <point x="162.352" y="687.672"/>
      <point x="207.264" y="712.304"/>
      <point x="285.096" y="712.304" type="curve" smooth="yes"/>
      <point x="290.096" y="712.304"/>
      <point x="295.096" y="712.304"/>
    </contour>
  </outline>
</glyph>
<glyph name="s" format="2">
	<unicode hex="0073"/>
	<advance width="732.128"/>
	<outline>
		<contour>
			<point x="100.312" y="223.384" type="curve" smooth="yes"/>
			<point x="36.352" y="223.384"/>
			<point x="-12.256" y="179.256"/>
			<point x="-12.256" y="118.352" type="curve" smooth="yes"/>
			<point x="-12.256" y="40.224"/>
			<point x="64.464" y="-26.48"/>
			<point x="247.104" y="-26.48" type="curve" smooth="yes"/>
			<point x="465.704" y="-26.48"/>
			<point x="624.456" y="114.624"/>
			<point x="624.456" y="274.824" type="curve" smooth="yes"/>
			<point x="624.456" y="352.84"/>
			<point x="590.808" y="430.192"/>
			<point x="485.016" y="530.008" type="curve" smooth="yes"/>
			<point x="379.224" y="629.824"/>
			<point x="354.112" y="673.568"/>
			<point x="354.112" y="717.568" type="curve" smooth="yes"/>
			<point x="354.112" y="769.72"/>
			<point x="384.04" y="803.24"/>
			<point x="439.376" y="803.24" type="curve" smooth="yes"/>
			<point x="478.912" y="803.24"/>
			<point x="523.744" y="769.168"/>
			<point x="561.688" y="712.984" type="curve" smooth="yes"/>
			<point x="599.632" y="656.8"/>
			<point x="616.928" y="642.912"/>
			<point x="628.632" y="642.912" type="curve" smooth="yes"/>
			<point x="691.832" y="642.912"/>
			<point x="737.144" y="682.448"/>
			<point x="737.144" y="744" type="curve" smooth="yes"/>
			<point x="737.144" y="825.312"/>
			<point x="669.128" y="891.44"/>
			<point x="497.248" y="891.44" type="curve" smooth="yes"/>
			<point x="280.72" y="891.44"/>
			<point x="149.432" y="759.408"/>
			<point x="149.432" y="598.784" type="curve" smooth="yes"/>
			<point x="149.432" y="504.272"/>
			<point x="189.392" y="429.496"/>
			<point x="293.352" y="340.4" type="curve" smooth="yes"/>
			<point x="397.312" y="251.304"/>
			<point x="420.312" y="207.024"/>
			<point x="420.312" y="155.504" type="curve" smooth="yes"/>
			<point x="420.312" y="93.24"/>
			<point x="372.328" y="58.96"/>
			<point x="305.936" y="58.96" type="curve" smooth="yes"/>
			<point x="263.104" y="58.96"/>
			<point x="221.272" y="81.2"/>
			<point x="175.144" y="145.736" type="curve" smooth="yes"/>
			<point x="129.016" y="210.272"/>
			<point x="114.424" y="223.384"/>
		</contour>
	</outline>
	<anchor name="top" x="461.104" y="864.96"/>
	<anchor name="bottom" x="289.056" y="0"/>
</glyph>
<glyph name="t" format="2">
	<unicode hex="0074"/>
	<advance width="708.808"/>
	<outline>
		<contour>
			<point x="106.856" y="766.168" type="line"/>
			<point x="761.504" y="766.168" type="line"/>
			<point x="780.744" y="864.96" type="line"/>
			<point x="126.152" y="864.96" type="line"/>
		</contour>
		<contour>
			<point x="423.352" y="350.968" type="curve" smooth="yes"/>
			<point x="650.52" y="1080.432" type="line"/>
			<point x="383.328" y="1080.432" type="line"/>
			<point x="158.792" y="344.864" type="line" smooth="yes"/>
			<point x="130.128" y="252.464"/>
			<point x="116.648" y="177.6"/>
			<point x="116.648" y="130.584" type="curve" smooth="yes"/>
			<point x="116.648" y="11.648"/>
			<point x="170.2" y="-25.776"/>
			<point x="250.528" y="-25.776" type="curve" smooth="yes"/>
			<point x="373.8" y="-25.776"/>
			<point x="515.072" y="63.232"/>
			<point x="667.36" y="305.384" type="curve"/>
			<point x="618.288" y="341.752" type="line"/>
			<point x="524.4" y="222.4"/>
			<point x="456.504" y="169.32"/>
			<point x="418.744" y="169.32" type="curve" smooth="yes"/>
			<point x="400.208" y="169.32"/>
			<point x="388.968" y="178.672"/>
			<point x="388.968" y="204.56" type="curve" smooth="yes"/>
			<point x="388.968" y="226.392"/>
			<point x="392.32" y="256.168"/>
		</contour>
	</outline>
	<anchor name="bottom" x="303.056" y="0"/>
	<anchor name="right" x="722.52" y="1370.488"/>
</glyph>
<glyph name="u" format="2">
  <advance width="1114.096"/>
  <unicode hex="0075"/>
  <anchor x="650.48" y="864.96" name="top"/>
  <anchor x="963.64" y="0.0" name="right"/>
  <anchor x="444.192" y="0.0" name="bottom"/>
  <anchor x="945.4639999999999" y="864.96" name="horn"/>
  <outline>
    <contour>
      <point x="605.8" y="72.584" type="line" smooth="yes"/>
      <point x="585.728" y="0.5920000000000001"/>
      <point x="616.152" y="-26.48"/>
      <point x="710.24" y="-26.48" type="curve" smooth="yes"/>
      <point x="823.864" y="-26.48"/>
      <point x="969.28" y="62.4"/>
      <point x="1107.04" y="255.264" type="curve"/>
      <point x="1067.376" y="292.448" type="line"/>
      <point x="966.4159999999999" y="188.768"/>
      <point x="878.024" y="145.064"/>
      <point x="796.176" y="143.344" type="curve"/>
      <point x="828.8720000000001" y="75.464" type="line"/>
      <point x="1068.056" y="864.96" type="line"/>
      <point x="807.992" y="864.96" type="line"/>
      <point x="709.776" y="545.776" type="line" smooth="yes"/>
      <point x="636.272" y="305.448"/>
      <point x="513.496" y="164.208"/>
      <point x="430.656" y="164.208" type="curve" smooth="yes"/>
      <point x="395.432" y="164.208"/>
      <point x="376.488" y="182.50400000000002"/>
      <point x="376.488" y="210.264" type="curve" smooth="yes"/>
      <point x="376.488" y="230.56"/>
      <point x="385.08000000000004" y="255.50400000000002"/>
      <point x="402.20799999999997" y="304.88800000000003" type="curve" smooth="yes"/>
      <point x="573.016" y="779.4159999999999" type="line" smooth="yes"/>
      <point x="600.272" y="855.888"/>
      <point x="565.144" y="891.44"/>
      <point x="462.488" y="891.44" type="curve" smooth="yes"/>
      <point x="324.664" y="891.44"/>
      <point x="180.432" y="813.056"/>
      <point x="37.192" y="607.912" type="curve"/>
      <point x="78.616" y="571.432" type="line"/>
      <point x="179.872" y="679.632"/>
      <point x="266.08" y="726.8"/>
      <point x="366.832" y="723.8" type="curve"/>
      <point x="316.856" y="792.664" type="line"/>
      <point x="144.944" y="314.008" type="line" smooth="yes"/>
      <point x="116.944" y="236.12"/>
      <point x="102.296" y="172.99200000000002"/>
      <point x="102.296" y="124.80799999999999" type="curve" smooth="yes"/>
      <point x="102.296" y="35.016"/>
      <point x="152.96" y="-26.48"/>
      <point x="278.008" y="-26.48" type="curve" smooth="yes"/>
      <point x="450.736" y="-26.48"/>
      <point x="581.472" y="110.096"/>
      <point x="745.128" y="457.04" type="curve"/>
      <point x="721.928" y="475.18399999999997" type="line"/>
    </contour>
  </outline>
</glyph>
<glyph name="v" format="2">
	<unicode hex="0076"/>
	<advance width="1017.84"/>
	<outline>
		<contour>
			<point x="995.504" y="718.688" type="curve" smooth="yes"/>
			<point x="995.504" y="834.312"/>
			<point x="937.712" y="891.44"/>
			<point x="854.048" y="891.44" type="curve" smooth="yes"/>
			<point x="780.312" y="891.44"/>
			<point x="717.832" y="832.52"/>
			<point x="717.832" y="751.208" type="curve" smooth="yes"/>
			<point x="717.832" y="698.232"/>
			<point x="835.144" y="668.408"/>
			<point x="835.144" y="556.376" type="curve" smooth="yes"/>
			<point x="835.144" y="357.48"/>
			<point x="648.16" y="130.064"/>
			<point x="504.816" y="130.064" type="curve" smooth="yes"/>
			<point x="450.52" y="130.064"/>
			<point x="417.872" y="160.896"/>
			<point x="417.872" y="222.32" type="curve" smooth="yes"/>
			<point x="417.872" y="247.152"/>
			<point x="423.52" y="276.632"/>
			<point x="434.464" y="310.76" type="curve" smooth="yes"/>
			<point x="615.656" y="870.144" type="line"/>
			<point x="569.584" y="881.496"/>
			<point x="513.736" y="889.144"/>
			<point x="438.096" y="889.144" type="curve" smooth="yes"/>
			<point x="251.224" y="889.144"/>
			<point x="135.928" y="808.648"/>
			<point x="38.968" y="563.952" type="curve"/>
			<point x="91.816" y="539.88" type="line"/>
			<point x="167.352" y="682.488"/>
			<point x="209.024" y="712.304"/>
			<point x="283.616" y="712.304" type="curve" smooth="yes"/>
			<point x="288.616" y="712.304"/>
			<point x="293.616" y="712.304"/>
			<point x="298.616" y="712.304" type="curve"/>
			<point x="156.44" y="274.264" type="line" smooth="yes"/>
			<point x="143.2" y="232.952"/>
			<point x="136.904" y="194.584"/>
			<point x="136.904" y="160.512" type="curve" smooth="yes"/>
			<point x="136.904" y="43.536"/>
			<point x="212.976" y="-26.48"/>
			<point x="350.728" y="-26.48" type="curve" smooth="yes"/>
			<point x="675.536" y="-26.48"/>
			<point x="995.504" y="361.632"/>
		</contour>
	</outline>
	<anchor name="top" x="626.688" y="864.96"/>
	<anchor name="bottom" x="430.976" y="0"/>
</glyph>
<glyph name="w" format="2">
  <advance width="1475"/>
  <unicode hex="0077"/>
  <anchor x="919.592" y="864.96" name="top"/>
  <anchor x="669.784" y="0.0" name="bottom"/>
  <outline>
    <contour>
      <point x="823.496" y="864.96" type="line"/>
      <point x="705.256" y="466.496" type="line" smooth="yes"/>
      <point x="642.48" y="255.648"/>
      <point x="549.216" y="135.89600000000002"/>
      <point x="470.488" y="135.89600000000002" type="curve" smooth="yes"/>
      <point x="432.856" y="135.89600000000002"/>
      <point x="411.336" y="153.416"/>
      <point x="411.336" y="198.824" type="curve" smooth="yes"/>
      <point x="411.336" y="223.952"/>
      <point x="417.928" y="259.56"/>
      <point x="433.05600000000004" y="307.24" type="curve" smooth="yes"/>
      <point x="615.304" y="870.144" type="line"/>
      <point x="575.712" y="880.848"/>
      <point x="519.864" y="889.144"/>
      <point x="437.744" y="889.144" type="curve" smooth="yes"/>
      <point x="250.872" y="889.144"/>
      <point x="135.576" y="808.648"/>
      <point x="38.616" y="563.952" type="curve"/>
      <point x="91.464" y="539.88" type="line"/>
      <point x="167.0" y="682.488"/>
      <point x="208.672" y="712.304"/>
      <point x="283.264" y="712.304" type="curve" smooth="yes"/>
      <point x="288.264" y="712.304"/>
      <point x="293.264" y="712.304"/>
      <point x="298.264" y="712.304" type="curve"/>
      <point x="159.608" y="284.12" type="line" smooth="yes"/>
      <point x="144.96" y="237.584"/>
      <point x="137.312" y="195.696"/>
      <point x="137.312" y="158.808" type="curve" smooth="yes"/>
      <point x="137.312" y="41.424"/>
      <point x="209.568" y="-26.48"/>
      <point x="334.504" y="-26.48" type="curve" smooth="yes"/>
      <point x="476.736" y="-26.48"/>
      <point x="637.248" y="76.424"/>
      <point x="755.168" y="421.36" type="curve"/>
      <point x="728.688" y="429.784" type="line"/>
      <point x="676.4" y="253.144" type="line" smooth="yes"/>
      <point x="660.808" y="198.016"/>
      <point x="652.864" y="152.48"/>
      <point x="652.864" y="116.24" type="curve" smooth="yes"/>
      <point x="652.864" y="9.872"/>
      <point x="716.824" y="-26.48"/>
      <point x="832.448" y="-26.48" type="curve" smooth="yes"/>
      <point x="1141.2" y="-26.48"/>
      <point x="1449.112" y="361.632"/>
      <point x="1449.112" y="718.688" type="curve" smooth="yes"/>
      <point x="1449.112" y="834.312"/>
      <point x="1390.672" y="891.44"/>
      <point x="1309.6" y="891.44" type="curve" smooth="yes"/>
      <point x="1237.808" y="891.44"/>
      <point x="1171.44" y="832.52"/>
      <point x="1171.44" y="751.208" type="curve" smooth="yes"/>
      <point x="1171.44" y="698.232"/>
      <point x="1291.344" y="668.408"/>
      <point x="1291.344" y="556.376" type="curve" smooth="yes"/>
      <point x="1291.344" y="357.48"/>
      <point x="1114.176" y="130.064"/>
      <point x="982.592" y="130.064" type="curve" smooth="yes"/>
      <point x="933.944" y="130.064"/>
      <point x="906.648" y="155.192"/>
      <point x="906.648" y="212.912" type="curve" smooth="yes"/>
      <point x="906.648" y="237.744"/>
      <point x="911.944" y="269.168"/>
      <point x="922.5360000000001" y="307.24" type="curve" smooth="yes"/>
      <point x="1081.8" y="864.96" type="line"/>
    </contour>
  </outline>
</glyph>
<glyph name="y" format="2">
  <advance width="997"/>
  <unicode hex="0079"/>
  <anchor x="579.152" y="864.96" name="top"/>
  <anchor x="808.096" y="-137.856" name="bottom"/>
  <outline>
    <contour>
      <point x="101.168" y="480.6" type="line"/>
      <point x="136.52" y="642.232"/>
      <point x="182.816" y="693.472"/>
      <point x="224.928" y="693.472" type="curve" smooth="yes"/>
      <point x="244.632" y="693.472"/>
      <point x="253.224" y="678.824"/>
      <point x="288.184" y="517.2" type="curve" smooth="yes"/>
      <point x="323.144" y="354.928"/>
      <point x="361.4" y="145.488"/>
      <point x="420.12" y="-253.24" type="curve"/>
      <point x="616.456" y="3.760000000000005" type="line"/>
      <point x="564.992" y="385.504"/>
      <point x="524.976" y="610.488"/>
      <point x="488.368" y="731.984" type="curve" smooth="yes"/>
      <point x="451.76" y="853.48"/>
      <point x="417.336" y="891.44"/>
      <point x="349.656" y="891.44" type="curve" smooth="yes"/>
      <point x="186.48" y="891.44"/>
      <point x="91.28" y="774.152"/>
      <point x="36.192" y="480.6" type="curve"/>
    </contour>
    <contour>
      <point x="500.464" y="-47.616" type="line"/>
      <point x="385.592" y="-256.56"/>
      <point x="248.312" y="-372.824"/>
      <point x="163.648" y="-372.824" type="curve" smooth="yes"/>
      <point x="133.0" y="-372.824"/>
      <point x="99.76" y="-356.64"/>
      <point x="64.352" y="-314.104" type="curve" smooth="yes"/>
      <point x="28.944000000000003" y="-271.568"/>
      <point x="12.816000000000003" y="-258.736"/>
      <point x="-2.4239999999999924" y="-258.736" type="curve" smooth="yes"/>
      <point x="-67.21600000000001" y="-258.736"/>
      <point x="-122.952" y="-310.696"/>
      <point x="-122.952" y="-385.432" type="curve" smooth="yes"/>
      <point x="-122.952" y="-470.04"/>
      <point x="-71.936" y="-530.0"/>
      <point x="51.336" y="-530.0" type="curve" smooth="yes"/>
      <point x="233.94400000000002" y="-530.0"/>
      <point x="421.344" y="-383.432"/>
      <point x="661.624" y="-9.016" type="curve" smooth="yes"/>
      <point x="901.904" y="365.4"/>
      <point x="1002.992" y="666.552"/>
      <point x="1002.992" y="837.312" type="curve" smooth="yes"/>
      <point x="1002.992" y="870.96"/>
      <point x="984.992" y="884.96"/>
      <point x="949.344" y="884.96" type="curve" smooth="yes"/>
      <point x="898.552" y="884.96"/>
      <point x="833.152" y="877.72"/>
      <point x="790.504" y="866.312" type="curve"/>
      <point x="794.448" y="493.296"/>
      <point x="729.024" y="250.64"/>
      <point x="538.648" y="-42.072" type="curve"/>
    </contour>
  </outline>
</glyph>
<glyph name="bar" format="2">
  <advance width="457"/>
  <unicode hex="007C"/>
  <outline>
    <contour>
      <point x="-114.032" y="-530.0" type="line"/>
      <point x="6.168" y="-530.0" type="line"/>
      <point x="594.168" y="1470.0" type="line"/>
      <point x="473.968" y="1470.0" type="line"/>
    </contour>
  </outline>
</glyph>
<glyph name="braceright" format="2">
  <advance width="593.096"/>
  <unicode hex="007D"/>
  <outline>
    <contour>
      <point x="612.8" y="613.72" type="line"/>
      <point x="549.072" y="616.72" type="line" smooth="yes"/>
      <point x="487.496" y="619.368"/>
      <point x="458.272" y="643.424"/>
      <point x="458.272" y="692.592" type="curve" smooth="yes"/>
      <point x="458.272" y="811.088"/>
      <point x="621.416" y="1048.208"/>
      <point x="621.416" y="1191.184" type="curve" smooth="yes"/>
      <point x="621.416" y="1298.48"/>
      <point x="556.064" y="1393.608"/>
      <point x="427.048" y="1412.368" type="curve" smooth="yes"/>
      <point x="355.888" y="1422.312" type="line"/>
      <point x="325.816" y="1352.984" type="line"/>
      <point x="364.184" y="1345.632" type="line" smooth="yes"/>
      <point x="420.52" y="1333.76"/>
      <point x="443.28" y="1296.072"/>
      <point x="443.28" y="1236.312" type="curve" smooth="yes"/>
      <point x="443.28" y="1101.336"/>
      <point x="311.096" y="853.44"/>
      <point x="311.096" y="720.928" type="curve" smooth="yes"/>
      <point x="311.096" y="646.336"/>
      <point x="345.56" y="589.112"/>
      <point x="433.968" y="566.24" type="curve"/>
      <point x="438.672" y="581.056" type="line"/>
      <point x="308.56" y="555.072"/>
      <point x="229.448" y="478.288"/>
      <point x="193.784" y="359.832" type="curve" smooth="yes"/>
      <point x="154.544" y="223.776"/>
      <point x="135.344" y="85.744"/>
      <point x="105.048" y="-19.016" type="curve" smooth="yes"/>
      <point x="74.80799999999999" y="-121.664"/>
      <point x="22.863999999999997" y="-184.872"/>
      <point x="-84.864" y="-192.632" type="curve" smooth="yes"/>
      <point x="-148.056" y="-197.392" type="line"/>
      <point x="-163.944" y="-277.832" type="line"/>
      <point x="-64.608" y="-270.48" type="line" smooth="yes"/>
      <point x="157.496" y="-253.888"/>
      <point x="273.664" y="-145.328"/>
      <point x="312.664" y="-9.695999999999998" type="curve" smooth="yes"/>
      <point x="349.496" y="116.08"/>
      <point x="339.976" y="288.304"/>
      <point x="371.96" y="401.76" type="curve" smooth="yes"/>
      <point x="397.552" y="487.056"/>
      <point x="436.184" y="523.464"/>
      <point x="523.592" y="527.76" type="curve" smooth="yes"/>
      <point x="587.912" y="530.76" type="line"/>
    </contour>
  </outline>
</glyph>
<glyph name="asciitilde" format="2">
	<unicode hex="007E"/>
	<advance width="1000"/>
	<outline>
		<contour>
			<point x="916.328" y="556.44" type="curve"/>
			<point x="790.744" y="556.44" type="line"/>
			<point x="757.8" y="461.072"/>
			<point x="722.28" y="430.44"/>
			<point x="660.408" y="430.44" type="curve" smooth="yes"/>
			<point x="558.496" y="430.44"/>
			<point x="495.408" y="563.44"/>
			<point x="353.224" y="563.44" type="curve" smooth="yes"/>
			<point x="226.656" y="563.44"/>
			<point x="141.024" y="495.112"/>
			<point x="85.784" y="315.56" type="curve"/>
			<point x="211.368" y="315.56" type="line"/>
			<point x="244.312" y="410.928"/>
			<point x="279.832" y="441.56"/>
			<point x="341.704" y="441.56" type="curve" smooth="yes"/>
			<point x="443.616" y="441.56"/>
			<point x="506.704" y="308.56"/>
			<point x="651.48" y="308.56" type="curve" smooth="yes"/>
			<point x="775.456" y="308.56"/>
			<point x="861.088" y="376.888"/>
		</contour>
	</outline>
</glyph>
<glyph name="currency" format="2">
  <advance width="881.488"/>
  <unicode hex="00A4"/>
  <outline>
    <contour>
      <point x="182.336" y="708.424" type="line"/>
      <point x="276.128" y="565.616" type="line"/>
      <point x="381.6" y="645.424" type="line"/>
      <point x="285.568" y="785.5840000000001" type="line"/>
    </contour>
    <contour>
      <point x="756.336" y="758.216" type="line"/>
      <point x="616.528" y="645.96" type="line"/>
      <point x="680.432" y="556.856" type="line"/>
      <point x="822.184" y="667.168" type="line"/>
    </contour>
    <contour>
      <point x="702.208" y="163.576" type="line"/>
      <point x="608.416" y="306.384" type="line"/>
      <point x="502.944" y="226.576" type="line"/>
      <point x="598.976" y="86.416" type="line"/>
    </contour>
    <contour>
      <point x="62.36" y="204.832" type="line"/>
      <point x="128.208" y="113.78399999999999" type="line"/>
      <point x="268.016" y="226.04" type="line"/>
      <point x="204.112" y="315.144" type="line"/>
    </contour>
    <contour>
      <point x="489.624" y="722.44" type="curve" smooth="yes"/>
      <point x="272.296" y="722.44"/>
      <point x="144.296" y="564.904"/>
      <point x="144.296" y="392.48" type="curve" smooth="yes"/>
      <point x="144.296" y="256.112"/>
      <point x="250.848" y="149.56"/>
      <point x="394.92" y="149.56" type="curve" smooth="yes"/>
      <point x="612.248" y="149.56"/>
      <point x="740.248" y="307.096"/>
      <point x="740.248" y="479.52" type="curve" smooth="yes"/>
      <point x="740.248" y="615.888"/>
      <point x="633.696" y="722.44"/>
    </contour>
    <contour>
      <point x="408.456" y="261.256" type="curve" smooth="yes"/>
      <point x="320.23199999999997" y="261.256"/>
      <point x="265.88" y="320.608"/>
      <point x="265.88" y="406.072" type="curve" smooth="yes"/>
      <point x="265.88" y="512.872"/>
      <point x="338.088" y="610.744"/>
      <point x="476.088" y="610.744" type="curve" smooth="yes"/>
      <point x="564.312" y="610.744"/>
      <point x="618.664" y="551.392"/>
      <point x="618.664" y="465.928" type="curve" smooth="yes"/>
      <point x="618.664" y="359.128"/>
      <point x="546.456" y="261.256"/>
    </contour>
  </outline>
</glyph>
<glyph name="brokenbar" format="2">
  <advance width="457.08"/>
  <unicode hex="00A6"/>
  <outline>
    <contour>
      <point x="368.832" y="702.12" type="line"/>
      <point x="594.52" y="1470.0" type="line"/>
      <point x="474.32" y="1470.0" type="line"/>
      <point x="248.632" y="702.12" type="line"/>
    </contour>
    <contour>
      <point x="-113.68" y="-530.0" type="line"/>
      <point x="6.52" y="-530.0" type="line"/>
      <point x="256.832" y="322.12" type="line"/>
      <point x="136.632" y="322.12" type="line"/>
    </contour>
  </outline>
</glyph>
<glyph name="section" format="2">
	<unicode hex="00A7"/>
	<advance width="1104.32"/>
	<outline>
		<contour>
			<point x="542.168" y="758.456" type="curve"/>
			<point x="496.672" y="816.864" type="line"/>
			<point x="213.768" y="762.96"/>
			<point x="97.968" y="622.368"/>
			<point x="97.968" y="453.256" type="curve" smooth="yes"/>
			<point x="97.968" y="128.744"/>
			<point x="570.992" y="186.656"/>
			<point x="570.992" y="-30.384" type="curve" smooth="yes"/>
			<point x="570.992" y="-109.408"/>
			<point x="511.784" y="-184.56"/>
			<point x="395.208" y="-184.56" type="curve" smooth="yes"/>
			<point x="203.296" y="-184.56"/>
			<point x="225.816" y="-9.136"/>
			<point x="102.488" y="-9.136" type="curve" smooth="yes"/>
			<point x="44.88" y="-9.136"/>
			<point x="3.344" y="-51.208"/>
			<point x="3.344" y="-116.28" type="curve" smooth="yes"/>
			<point x="3.344" y="-209.872"/>
			<point x="116.568" y="-281.48"/>
			<point x="332.264" y="-281.48" type="curve" smooth="yes"/>
			<point x="656.32" y="-281.48"/>
			<point x="810.392" y="-102.6"/>
			<point x="810.392" y="97.656" type="curve" smooth="yes"/>
			<point x="810.392" y="417.872"/>
			<point x="346.92" y="377.232"/>
			<point x="346.92" y="582.016" type="curve" smooth="yes"/>
			<point x="346.92" y="661.728"/>
			<point x="402.52" y="732.144"/>
		</contour>
		<contour>
			<point x="823.752" y="515.656" type="curve" smooth="yes"/>
			<point x="823.752" y="428.904"/>
			<point x="761.112" y="360.952"/>
			<point x="630.264" y="335.344" type="curve"/>
			<point x="675.76" y="276.584" type="line"/>
			<point x="954.792" y="325.208"/>
			<point x="1075.168" y="464.04"/>
			<point x="1075.168" y="637.728" type="curve" smooth="yes"/>
			<point x="1075.168" y="957.664"/>
			<point x="599.328" y="900.808"/>
			<point x="599.328" y="1117.496" type="curve" smooth="yes"/>
			<point x="599.328" y="1195.464"/>
			<point x="658.184" y="1268.504"/>
			<point x="783.208" y="1268.504" type="curve" smooth="yes"/>
			<point x="962.448" y="1268.504"/>
			<point x="938.52" y="1092.376"/>
			<point x="1065.016" y="1092.376" type="curve" smooth="yes"/>
			<point x="1123.68" y="1092.376"/>
			<point x="1166.976" y="1135.856"/>
			<point x="1166.976" y="1198.464" type="curve" smooth="yes"/>
			<point x="1166.976" y="1284.664"/>
			<point x="1067.48" y="1366.48"/>
			<point x="841.576" y="1366.48" type="curve" smooth="yes"/>
			<point x="508.72" y="1366.48"/>
			<point x="362.04" y="1188.656"/>
			<point x="362.04" y="994.384" type="curve" smooth="yes"/>
			<point x="362.04" y="675.928"/>
			<point x="823.752" y="716.216"/>
		</contour>
	</outline>
</glyph>
<glyph name="copyright" format="2">
  <advance width="1659"/>
  <unicode hex="00A9"/>
  <outline>
    <contour>
      <point x="912.736" y="357.72" type="curve" smooth="yes"/>
      <point x="803.056" y="357.72"/>
      <point x="745.552" y="432.28"/>
      <point x="745.552" y="564.656" type="curve" smooth="yes"/>
      <point x="745.552" y="783.392"/>
      <point x="855.792" y="991.576"/>
      <point x="1037.64" y="991.576" type="curve" smooth="yes"/>
      <point x="1089.44" y="991.576"/>
      <point x="1141.056" y="976.224"/>
      <point x="1172.984" y="944.984" type="curve"/>
      <point x="1129.928" y="998.536" type="line"/>
      <point x="1190.704" y="783.392" type="line"/>
      <point x="1234.664" y="791.816" type="line"/>
      <point x="1285.256" y="1091.704" type="line"/>
      <point x="1257.76" y="1091.704" type="line"/>
      <point x="1159.0" y="1031.928" type="line"/>
      <point x="1215.424" y="1043.408" type="line"/>
      <point x="1156.76" y="1058.296"/>
      <point x="1103.864" y="1065.0"/>
      <point x="1048.104" y="1065.0" type="curve" smooth="yes"/>
      <point x="691.448" y="1065.0"/>
      <point x="504.224" y="848.704"/>
      <point x="504.224" y="599.168" type="curve" smooth="yes"/>
      <point x="504.224" y="410.648"/>
      <point x="634.336" y="285.704"/>
      <point x="864.744" y="285.704" type="curve" smooth="yes"/>
      <point x="950.464" y="285.704"/>
      <point x="1005.536" y="295.408"/>
      <point x="1077.944" y="314.872" type="curve"/>
      <point x="1184.128" y="535.576" type="line"/>
      <point x="1140.24" y="535.576" type="line"/>
      <point x="949.912" y="337.816" type="line"/>
      <point x="1035.52" y="391.128" type="line"/>
      <point x="985.608" y="365.608"/>
      <point x="956.776" y="357.72"/>
    </contour>
    <contour>
      <point x="826.056" y="72.48" type="curve" smooth="yes"/>
      <point x="496.04" y="72.48"/>
      <point x="296.888" y="282.312"/>
      <point x="296.888" y="581.184" type="curve" smooth="yes"/>
      <point x="296.888" y="965.104"/>
      <point x="585.312" y="1267.52"/>
      <point x="978.184" y="1267.52" type="curve" smooth="yes"/>
      <point x="1308.2" y="1267.52"/>
      <point x="1507.352" y="1057.688"/>
      <point x="1507.352" y="758.816" type="curve" smooth="yes"/>
      <point x="1507.352" y="374.248"/>
      <point x="1218.928" y="72.48"/>
    </contour>
    <contour>
      <point x="985.72" y="1366.48" type="curve" smooth="yes"/>
      <point x="520.48" y="1366.48"/>
      <point x="183.576" y="1013.048"/>
      <point x="183.576" y="566.944" type="curve" smooth="yes"/>
      <point x="183.576" y="212.536"/>
      <point x="428.56" y="-26.48"/>
      <point x="818.168" y="-26.48" type="curve" smooth="yes"/>
      <point x="1283.76" y="-26.48"/>
      <point x="1620.664" y="326.304"/>
      <point x="1620.664" y="773.056" type="curve" smooth="yes"/>
      <point x="1620.664" y="1127.464"/>
      <point x="1375.68" y="1366.48"/>
    </contour>
  </outline>
</glyph>
<glyph name="ordfeminine" format="2">
  <advance width="946.168"/>
  <unicode hex="00AA"/>
  <outline>
    <contour>
      <point x="150.392" y="450.392" type="line"/>
      <point x="810.096" y="450.392" type="line"/>
      <point x="846.168" y="567.256" type="line"/>
      <point x="186.168" y="567.256" type="line"/>
    </contour>
    <contour>
      <point x="631.568" y="751.792" type="line" smooth="yes"/>
      <point x="612.736" y="694.296"/>
      <point x="641.568" y="670.0"/>
      <point x="718.784" y="670.0" type="curve" smooth="yes"/>
      <point x="809.7052128279884" y="670.0"/>
      <point x="891.312" y="711.032"/>
      <point x="1019.384" y="829.736" type="curve"/>
      <point x="994.44" y="870.456" type="line"/>
      <point x="905.96" y="817.824"/>
      <point x="845.96" y="804.416"/>
      <point x="788.184" y="803.992" type="curve"/>
      <point x="828.032" y="744.184" type="line"/>
      <point x="1018.384" y="1340.0" type="line"/>
      <point x="881.968" y="1340.0" type="line"/>
      <point x="786.056" y="1286.216" type="line"/>
      <point x="688.632" y="1036.32" type="line" smooth="yes"/>
      <point x="635.850696186613" y="898.4753354066748"/>
      <point x="544.3974857142857" y="815.656"/>
      <point x="488.784" y="815.656" type="curve" smooth="yes"/>
      <point x="458.264" y="815.656"/>
      <point x="447.744" y="828.88"/>
      <point x="447.744" y="865.456" type="curve" smooth="yes"/>
      <point x="447.744" y="986.1634345549738"/>
      <point x="574.254" y="1261.04"/>
      <point x="700.976" y="1261.04" type="curve" smooth="yes"/>
      <point x="747.512" y="1261.04"/>
      <point x="771.752" y="1233.336"/>
      <point x="783.16" y="1197.872" type="curve"/>
      <point x="823.344" y="1256.816" type="line"/>
      <point x="783.256" y="1322.088"/>
      <point x="733.112" y="1354.016"/>
      <point x="659.872" y="1354.016" type="curve" smooth="yes"/>
      <point x="426.432" y="1354.016"/>
      <point x="231.208" y="1044.216"/>
      <point x="231.208" y="827.888" type="curve" smooth="yes"/>
      <point x="231.208" y="722.128"/>
      <point x="297.04" y="670.704"/>
      <point x="386.168" y="670.704" type="curve" smooth="yes"/>
      <point x="483.312" y="670.704"/>
      <point x="573.2" y="726.984"/>
      <point x="732.976" y="991.624" type="curve"/>
      <point x="709.456" y="991.624" type="line"/>
    </contour>
  </outline>
</glyph>
<glyph name="guillemotleft" format="2">
  <advance width="981.16"/>
  <unicode hex="00AB"/>
  <outline>
    <contour>
      <point x="282.952" y="480.376" type="line"/>
      <point x="240.264" y="341.256" type="line"/>
      <point x="621.904" y="810.144" type="line"/>
      <point x="572.944" y="859.68" type="line"/>
      <point x="63.224000000000004" y="471.68" type="line"/>
      <point x="40.56" y="396.8" type="line"/>
      <point x="319.76" y="8.8" type="line"/>
      <point x="382.368" y="38.224000000000004" type="line"/>
    </contour>
    <contour>
      <point x="694.056" y="480.376" type="line"/>
      <point x="651.368" y="341.256" type="line"/>
      <point x="1033.008" y="810.144" type="line"/>
      <point x="984.048" y="859.68" type="line"/>
      <point x="474.328" y="471.68" type="line"/>
      <point x="451.664" y="396.8" type="line"/>
      <point x="730.864" y="8.8" type="line"/>
      <point x="793.472" y="38.224000000000004" type="line"/>
    </contour>
  </outline>
</glyph>
<glyph name="logicalnot" format="2">
	<unicode hex="00AC"/>
	<advance width="1000"/>
	<outline>
		<contour>
			<point x="186.152" y="667.44" type="line"/>
			<point x="148.488" y="544.56" type="line"/>
			<point x="770.952" y="544.56" type="line"/>
			<point x="666.952" y="204.56" type="line"/>
			<point x="797.368" y="204.56" type="line"/>
			<point x="939.032" y="667.44" type="line"/>
		</contour>
	</outline>
</glyph>
<glyph name="degree" format="2">
  <advance width="750.912"/>
  <unicode hex="00B0"/>
  <outline>
    <contour>
      <point x="596.632" y="1356.48" type="curve" smooth="yes"/>
      <point x="386.152" y="1356.48"/>
      <point x="244.8" y="1194.648"/>
      <point x="244.8" y="1000.648" type="curve" smooth="yes"/>
      <point x="244.8" y="845.632"/>
      <point x="351.504" y="743.52"/>
      <point x="519.984" y="743.52" type="curve" smooth="yes"/>
      <point x="730.464" y="743.52"/>
      <point x="871.816" y="905.352"/>
      <point x="871.816" y="1099.352" type="curve" smooth="yes"/>
      <point x="871.816" y="1254.368"/>
      <point x="765.112" y="1356.48"/>
    </contour>
    <contour>
      <point x="530.632" y="833.72" type="curve" smooth="yes"/>
      <point x="409.52" y="833.72"/>
      <point x="342.704" y="897.352"/>
      <point x="342.704" y="1011.056" type="curve" smooth="yes"/>
      <point x="342.704" y="1141.464"/>
      <point x="426.464" y="1265.632"/>
      <point x="587.28" y="1265.632" type="curve" smooth="yes"/>
      <point x="707.096" y="1265.632"/>
      <point x="773.912" y="1202.648"/>
      <point x="773.912" y="1088.944" type="curve" smooth="yes"/>
      <point x="773.912" y="958.536"/>
      <point x="690.152" y="834.368"/>
    </contour>
  </outline>
</glyph>
<glyph name="uni00B2" format="2">
  <advance width="712"/>
  <unicode hex="00B2"/>
  <outline>
    <contour>
      <point x="551.888" y="683.072" type="line"/>
      <point x="732.48" y="771.544" type="line"/>
      <point x="345.064" y="771.544" type="line"/>
      <point x="320.864" y="721.248" type="line"/>
      <point x="465.928" y="816.168" type="line" smooth="yes"/>
      <point x="731.144" y="979.768"/>
      <point x="794.712" y="1063.376"/>
      <point x="794.712" y="1175.928" type="curve" smooth="yes"/>
      <point x="794.712" y="1287.648"/>
      <point x="711.064" y="1357.888"/>
      <point x="576.736" y="1357.888" type="curve" smooth="yes"/>
      <point x="407.928" y="1357.888"/>
      <point x="300.744" y="1262.52"/>
      <point x="238.32" y="1073.432" type="curve"/>
      <point x="294.112" y="1054.064" type="line"/>
      <point x="336.704" y="1154.528"/>
      <point x="394.576" y="1191.88"/>
      <point x="468.912" y="1191.88" type="curve" smooth="yes"/>
      <point x="535.08" y="1191.88"/>
      <point x="572.248" y="1154.36"/>
      <point x="572.248" y="1096.376" type="curve" smooth="yes"/>
      <point x="572.248" y="1030.208"/>
      <point x="529.12" y="952.376"/>
      <point x="384.6" y="833.576" type="curve" smooth="yes"/>
      <point x="152.816" y="641.4" type="line"/>
      <point x="138.096" y="592.0" type="line"/>
      <point x="577.048" y="592.0" type="line"/>
      <point x="641.88" y="562.872" type="line"/>
      <point x="661.712" y="562.872" type="line"/>
      <point x="811.6320000000001" y="884.12" type="line"/>
      <point x="778.856" y="884.12" type="line"/>
    </contour>
  </outline>
</glyph>
<glyph name="uni00B5" format="2">
	<unicode hex="00B5"/>
	<advance width="1170.528"/>
	<outline>
		<contour>
			<point x="695.8" y="545.776" type="line"/>
			<point x="622.296" y="305.448"/>
			<point x="499.52" y="164.208"/>
			<point x="416.68" y="164.208" type="curve" smooth="yes"/>
			<point x="381.456" y="164.208"/>
			<point x="362.512" y="182.504"/>
			<point x="362.512" y="210.264" type="curve" smooth="yes"/>
			<point x="362.512" y="230.56"/>
			<point x="369.16" y="261.336"/>
			<point x="385.64" y="311.368" type="curve" smooth="yes"/>
			<point x="577.224" y="864.96" type="line"/>
			<point x="317.216" y="864.96" type="line"/>
			<point x="-138.408" y="-520" type="line"/>
			<point x="-98.6" y="-520" type="line"/>
			<point x="81.504" y="-492.984" type="line"/>
			<point x="143.968" y="167.288" type="line"/>
			<point x="100.288" y="155.08" type="line"/>
			<point x="87.264" y="42.76"/>
			<point x="142.504" y="-26.48"/>
			<point x="265.088" y="-26.48" type="curve" smooth="yes"/>
			<point x="436.76" y="-26.48"/>
			<point x="567.496" y="110.096"/>
			<point x="731.152" y="457.04" type="curve"/>
			<point x="707.952" y="475.184" type="line"/>
			<point x="591.824" y="72.584" type="line" smooth="yes"/>
			<point x="571.752" y="0.592"/>
			<point x="602.176" y="-26.48"/>
			<point x="696.264" y="-26.48" type="curve" smooth="yes"/>
			<point x="809.888" y="-26.48"/>
			<point x="955.304" y="62.4"/>
			<point x="1093.064" y="255.264" type="curve"/>
			<point x="1053.4" y="292.448" type="line"/>
			<point x="952.44" y="188.768"/>
			<point x="864.048" y="145.064"/>
			<point x="782.2" y="143.344" type="curve"/>
			<point x="814.896" y="75.464" type="line"/>
			<point x="1054.08" y="864.96" type="line"/>
			<point x="794.016" y="864.96" type="line"/>
		</contour>
	</outline>
</glyph>
<glyph name="paragraph" format="2">
  <advance width="1220.536"/>
  <unicode hex="00B6"/>
  <outline>
    <contour>
      <point x="511.912" y="-251.76" type="line"/>
      <point x="964.432" y="1229.8" type="line"/>
      <point x="1132.912" y="1229.8" type="line"/>
      <point x="1167.096" y="1340.0" type="line"/>
      <point x="882.64" y="1340.0" type="line"/>
      <point x="395.288" y="-251.76" type="line"/>
    </contour>
    <contour>
      <point x="773.368" y="-251.76" type="line"/>
      <point x="1229.184" y="1238.8" type="line"/>
      <point x="1407.792" y="1292.336" type="line"/>
      <point x="1422.032" y="1340.0" type="line"/>
      <point x="1144.096" y="1340.0" type="line"/>
      <point x="657.392" y="-251.76" type="line"/>
    </contour>
    <contour>
      <point x="944.512" y="1340.0" type="line"/>
      <point x="706.472" y="1340.0" type="line" smooth="yes"/>
      <point x="357.888" y="1340.0"/>
      <point x="210.208" y="1105.9037823471267"/>
      <point x="210.208" y="881.16" type="curve" smooth="yes"/>
      <point x="210.208" y="724.952"/>
      <point x="299.08" y="625.16"/>
      <point x="517.296" y="625.16" type="curve" smooth="yes"/>
      <point x="725.96" y="625.16" type="line"/>
    </contour>
  </outline>
</glyph>
<glyph name="uni00B9" format="2">
  <advance width="531"/>
  <unicode hex="00B9"/>
  <outline>
    <contour>
      <point x="271.576" y="662.072" type="line"/>
      <point x="152.336" y="629.48" type="line"/>
      <point x="140.744" y="592.0" type="line"/>
      <point x="547.152" y="592.0" type="line"/>
      <point x="558.448" y="629.48" type="line"/>
      <point x="466.152" y="662.072" type="line"/>
      <point x="674.264" y="1341.76" type="line"/>
      <point x="562.296" y="1341.76" type="line"/>
      <point x="250.024" y="1193.04" type="line"/>
      <point x="260.688" y="1143.376" type="line"/>
      <point x="492.368" y="1206.448" type="line"/>
      <point x="460.688" y="1280.112" type="line"/>
    </contour>
  </outline>
</glyph>
<glyph name="ordmasculine" format="2">
  <advance width="901"/>
  <unicode hex="00BA"/>
  <outline>
    <contour>
      <point x="131.504" y="450.392" type="line"/>
      <point x="791.208" y="450.392" type="line"/>
      <point x="827.28" y="567.256" type="line"/>
      <point x="167.28" y="567.256" type="line"/>
    </contour>
    <contour>
      <point x="708.64" y="1360.0" type="curve" smooth="yes"/>
      <point x="465.424" y="1360.0"/>
      <point x="269.32" y="1166.92"/>
      <point x="269.32" y="924.976" type="curve" smooth="yes"/>
      <point x="269.32" y="771.664"/>
      <point x="363.408" y="673.168"/>
      <point x="546.12" y="673.168" type="curve" smooth="yes"/>
      <point x="788.688" y="673.168"/>
      <point x="984.792" y="866.248"/>
      <point x="984.792" y="1108.192" type="curve" smooth="yes"/>
      <point x="984.792" y="1261.504"/>
      <point x="890.704" y="1360.0"/>
    </contour>
    <contour>
      <point x="549.768" y="760.144" type="curve" smooth="yes"/>
      <point x="504.32" y="760.144"/>
      <point x="481.32" y="785.536"/>
      <point x="481.32" y="860.928" type="curve" smooth="yes"/>
      <point x="481.32" y="1046.912"/>
      <point x="591.32" y="1273.672"/>
      <point x="704.344" y="1273.672" type="curve" smooth="yes"/>
      <point x="749.792" y="1273.672"/>
      <point x="772.792" y="1248.28"/>
      <point x="772.792" y="1172.888" type="curve" smooth="yes"/>
      <point x="772.792" y="986.904"/>
      <point x="662.792" y="760.144"/>
    </contour>
  </outline>
</glyph>
<glyph name="guillemotright" format="2">
	<unicode hex="00BB"/>
	<advance width="1023.64"/>
	<outline>
		<contour>
			<point x="303.048" y="388.104" type="line"/>
			<point x="345.736" y="527.224" type="line"/>
			<point x="-35.904" y="58.336" type="line"/>
			<point x="13.056" y="8.8" type="line"/>
			<point x="522.776" y="396.8" type="line"/>
			<point x="545.44" y="471.68" type="line"/>
			<point x="266.24" y="859.68" type="line"/>
			<point x="203.632" y="830.256" type="line"/>
		</contour>
		<contour>
			<point x="714.152" y="388.104" type="line"/>
			<point x="756.84" y="527.224" type="line"/>
			<point x="375.2" y="58.336" type="line"/>
			<point x="424.16" y="8.8" type="line"/>
			<point x="933.88" y="396.8" type="line"/>
			<point x="956.544" y="471.68" type="line"/>
			<point x="677.344" y="859.68" type="line"/>
			<point x="614.736" y="830.256" type="line"/>
		</contour>
	</outline>
</glyph>
<glyph name="questiondown" format="2">
  <advance width="958"/>
  <unicode hex="00BF"/>
  <outline>
    <contour>
      <point x="616.192" y="553.48" type="curve" smooth="yes"/>
      <point x="721.816" y="553.48"/>
      <point x="803.144" y="634.976"/>
      <point x="803.144" y="742.024" type="curve" smooth="yes"/>
      <point x="803.144" y="819.408"/>
      <point x="753.016" y="878.96"/>
      <point x="664.392" y="878.96" type="curve" smooth="yes"/>
      <point x="558.768" y="878.96"/>
      <point x="477.44" y="797.464"/>
      <point x="477.44" y="690.4159999999999" type="curve" smooth="yes"/>
      <point x="477.44" y="613.032"/>
      <point x="527.568" y="553.48"/>
    </contour>
    <contour>
      <point x="426.256" y="-508.0" type="curve" smooth="yes"/>
      <point x="610.16" y="-508.0"/>
      <point x="679.544" y="-443.152"/>
      <point x="679.544" y="-366.248" type="curve" smooth="yes"/>
      <point x="679.544" y="-308.752"/>
      <point x="634.4" y="-267.144"/>
      <point x="580.976" y="-267.144" type="curve" smooth="yes"/>
      <point x="467.8" y="-267.144"/>
      <point x="419.76800000000003" y="-379.376"/>
      <point x="289.672" y="-379.376" type="curve" smooth="yes"/>
      <point x="192.57600000000002" y="-379.376"/>
      <point x="116.28" y="-299.184"/>
      <point x="116.28" y="-199.99200000000002" type="curve" smooth="yes"/>
      <point x="116.28" y="-46.464"/>
      <point x="216.304" y="30.408"/>
      <point x="513.104" y="15.055999999999997" type="curve"/>
      <point x="580.672" y="393.79200000000003" type="line"/>
      <point x="528.008" y="393.79200000000003" type="line"/>
      <point x="378.944" y="84.488" type="line"/>
      <point x="513.12" y="241.552" type="line"/>
      <point x="120.75200000000001" y="266.272"/>
      <point x="-15.559999999999999" y="130.344"/>
      <point x="-15.559999999999999" y="-112.208" type="curve" smooth="yes"/>
      <point x="-15.559999999999999" y="-327.448"/>
      <point x="143.256" y="-508.0"/>
    </contour>
  </outline>
</glyph>
<glyph name="Ccedilla" format="2">
  <advance width="1371"/>
  <unicode hex="00C7"/>
  <outline>
    <contour>
      <point x="1045.888" y="132.848" type="line"/>
      <point x="964.976" y="105.16"/>
      <point x="894.656" y="95.75200000000001"/>
      <point x="829.944" y="95.75200000000001" type="curve" smooth="yes"/>
      <point x="593.936" y="95.75200000000001"/>
      <point x="437.93600000000004" y="247.272"/>
      <point x="437.93600000000004" y="527.112" type="curve" smooth="yes"/>
      <point x="437.93600000000004" y="945.832"/>
      <point x="704.512" y="1247.136"/>
      <point x="1061.616" y="1247.136" type="curve" smooth="yes"/>
      <point x="1170.12" y="1247.136"/>
      <point x="1239.696" y="1214.768"/>
      <point x="1318.96" y="1151.008" type="curve"/>
      <point x="1234.32" y="1259.808" type="line"/>
      <point x="1355.176" y="906.192" type="line"/>
      <point x="1413.376" y="906.192" type="line"/>
      <point x="1452.72" y="1410.96" type="line"/>
      <point x="1417.576" y="1410.96" type="line"/>
      <point x="1268.04" y="1306.576" type="line"/>
      <point x="1408.688" y="1313.648" type="line"/>
      <point x="1296.08" y="1355.832"/>
      <point x="1188.304" y="1366.48"/>
      <point x="1068.104" y="1366.48" type="curve" smooth="yes"/>
      <point x="536.464" y="1366.48"/>
      <point x="135.912" y="1011.664"/>
      <point x="135.912" y="507.832" type="curve" smooth="yes"/>
      <point x="135.912" y="182.592"/>
      <point x="362.352" y="-26.48"/>
      <point x="760.496" y="-26.48" type="curve" smooth="yes"/>
      <point x="898.384" y="-26.48"/>
      <point x="1060.496" y="5.4639999999999995"/>
      <point x="1173.568" y="39.744" type="curve"/>
      <point x="1303.376" y="387.048" type="line"/>
      <point x="1238.88" y="387.048" type="line"/>
      <point x="976.208" y="80.648" type="line"/>
    </contour>
    <contour>
      <point x="566.624" y="-449.28" type="curve" smooth="yes"/>
      <point x="494.496" y="-449.28"/>
      <point x="485.072" y="-378.504"/>
      <point x="431.776" y="-378.504" type="curve" smooth="yes"/>
      <point x="389.832" y="-378.504"/>
      <point x="366.184" y="-409.096"/>
      <point x="366.184" y="-442.392" type="curve" smooth="yes"/>
      <point x="366.184" y="-489.408"/>
      <point x="415.088" y="-530.0"/>
      <point x="508.696" y="-530.0" type="curve"/>
      <point x="682.6" y="-530.0"/>
      <point x="803.936" y="-410.28"/>
      <point x="803.936" y="-281.648" type="curve" smooth="yes"/>
      <point x="803.936" y="-207.168"/>
      <point x="754.568" y="-141.28"/>
      <point x="601.072" y="-105.264" type="curve"/>
      <point x="569.664" y="-221.832" type="line"/>
      <point x="801.696" y="49.352" type="line"/>
      <point x="715.088" y="49.352" type="line"/>
      <point x="473.8" y="-229.144" type="line"/>
      <point x="469.744" y="-242.608" type="line"/>
      <point x="626.776" y="-273.568"/>
      <point x="667.0" y="-310.216"/>
      <point x="667.0" y="-356.2" type="curve" smooth="yes"/>
      <point x="667.0" y="-410.0"/>
      <point x="628.016" y="-449.28"/>
    </contour>
  </outline>
</glyph>
<glyph name="multiply" format="2">
  <advance width="1000.0"/>
  <unicode hex="00D7"/>
  <outline>
    <contour>
      <point x="81.84" y="188.592" type="line"/>
      <point x="144.928" y="96.78399999999999" type="line"/>
      <point x="920.864" y="683.408" type="line"/>
      <point x="857.776" y="775.216" type="line"/>
    </contour>
    <contour>
      <point x="245.952" y="695.464" type="line"/>
      <point x="650.928" y="96.78399999999999" type="line"/>
      <point x="756.752" y="176.536" type="line"/>
      <point x="351.776" y="775.216" type="line"/>
    </contour>
  </outline>
</glyph>
<glyph name="Oslash" format="2">
  <advance width="1530.568"/>
  <unicode hex="00D8"/>
  <guideline x="164.456" y="700.76" angle="1.8081791567904184" identifier="1lh4T5epEW"/>
  <guideline x="1452.224" y="443.504" angle="1.8081791567904184" identifier="7WIL8gm0mk"/>
  <anchor x="1024.248" y="1340.0" name="UCtop"/>
  <anchor x="642.112" y="0.0" name="bottom"/>
  <outline>
    <contour>
      <point x="1726.304" y="1340.0" type="line"/>
      <point x="1550.848" y="1340.0" type="line"/>
      <point x="1349.664" y="1172.0" type="line"/>
      <point x="1267.136" y="1109.08" type="line"/>
      <point x="353.4" y="325.4" type="line"/>
      <point x="267.28" y="264.536" type="line"/>
      <point x="-49.624" y="0.0" type="line"/>
      <point x="125.832" y="0.0" type="line"/>
      <point x="327.72" y="168.704" type="line"/>
      <point x="406.136" y="229.272" type="line"/>
      <point x="1318.464" y="1011.544" type="line"/>
      <point x="1412.216" y="1077.928" type="line"/>
    </contour>
    <contour>
      <point x="430.312" y="418.536" type="curve" smooth="yes"/>
      <point x="430.312" y="820.784"/>
      <point x="671.136" y="1247.784"/>
      <point x="983.528" y="1247.784" type="curve" smooth="yes"/>
      <point x="1150.304" y="1247.784"/>
      <point x="1245.664" y="1148.032"/>
      <point x="1245.664" y="921.4639999999999" type="curve" smooth="yes"/>
      <point x="1245.664" y="519.216"/>
      <point x="1004.84" y="92.21600000000001"/>
      <point x="692.448" y="92.21600000000001" type="curve" smooth="yes"/>
      <point x="525.672" y="92.21600000000001"/>
      <point x="430.312" y="191.968"/>
    </contour>
    <contour>
      <point x="1530.136" y="831.608" type="curve" smooth="yes"/>
      <point x="1530.136" y="1170.664"/>
      <point x="1330.672" y="1366.48"/>
      <point x="977.512" y="1366.48" type="curve" smooth="yes"/>
      <point x="497.04" y="1366.48"/>
      <point x="145.84" y="964.464"/>
      <point x="145.84" y="508.392" type="curve" smooth="yes"/>
      <point x="145.84" y="169.336"/>
      <point x="345.304" y="-26.48"/>
      <point x="698.464" y="-26.48" type="curve" smooth="yes"/>
      <point x="1178.936" y="-26.48"/>
      <point x="1530.136" y="375.536"/>
    </contour>
  </outline>
</glyph>
<glyph name="germandbls" format="2">
  <advance width="1258"/>
  <unicode hex="00DF"/>
  <outline>
    <contour>
      <point x="94.03999999999999" y="766.168" type="line"/>
      <point x="437.928" y="766.168" type="line"/>
      <point x="457.168" y="864.96" type="line"/>
      <point x="112.28" y="864.96" type="line"/>
    </contour>
    <contour>
      <point x="455.544" y="289.552" type="curve" smooth="yes"/>
      <point x="625.9680000000001" y="1053.936" type="line" smooth="yes"/>
      <point x="672.264" y="1260.848"/>
      <point x="761.16" y="1335.968"/>
      <point x="897.312" y="1335.968" type="curve" smooth="yes"/>
      <point x="996.112" y="1335.968"/>
      <point x="1053.464" y="1269.04"/>
      <point x="1053.464" y="1176.52" type="curve" smooth="yes"/>
      <point x="1053.464" y="1101.128"/>
      <point x="1016.112" y="1027.016"/>
      <point x="881.944" y="917.0" type="curve" smooth="yes"/>
      <point x="747.776" y="806.984"/>
      <point x="695.128" y="721.784"/>
      <point x="695.128" y="622.136" type="curve" smooth="yes"/>
      <point x="695.128" y="539.232"/>
      <point x="730.2" y="462.456"/>
      <point x="837.512" y="375.84" type="curve" smooth="yes"/>
      <point x="944.824" y="289.224"/>
      <point x="976.304" y="242.24"/>
      <point x="976.304" y="181.0" type="curve" smooth="yes"/>
      <point x="976.304" y="105.368"/>
      <point x="918.6" y="58.96"/>
      <point x="831.472" y="58.96" type="curve" smooth="yes"/>
      <point x="786.176" y="58.96"/>
      <point x="743.808" y="82.256"/>
      <point x="700.144" y="143.624" type="curve" smooth="yes"/>
      <point x="656.48" y="204.99200000000002"/>
      <point x="642.24" y="215.99200000000002"/>
      <point x="628.48" y="215.99200000000002" type="curve" smooth="yes"/>
      <point x="565.224" y="215.99200000000002"/>
      <point x="518.728" y="172.216"/>
      <point x="518.728" y="113.776" type="curve" smooth="yes"/>
      <point x="518.728" y="38.112"/>
      <point x="594.04" y="-26.48"/>
      <point x="773.864" y="-26.48" type="curve" smooth="yes"/>
      <point x="997.072" y="-26.48"/>
      <point x="1161.008" y="121.568"/>
      <point x="1161.008" y="306.56" type="curve" smooth="yes"/>
      <point x="1161.008" y="398.704"/>
      <point x="1125.12" y="478.592"/>
      <point x="1018.864" y="574.688" type="curve" smooth="yes"/>
      <point x="912.608" y="670.784"/>
      <point x="893.256" y="712.544"/>
      <point x="893.256" y="760.728" type="curve" smooth="yes"/>
      <point x="893.256" y="815.192"/>
      <point x="921.792" y="858.12"/>
      <point x="1061.368" y="944.064" type="curve" smooth="yes"/>
      <point x="1200.944" y="1030.008"/>
      <point x="1249.096" y="1098.232"/>
      <point x="1249.096" y="1189.664" type="curve" smooth="yes"/>
      <point x="1249.096" y="1325.848"/>
      <point x="1141.096" y="1425.48"/>
      <point x="931.16" y="1425.48" type="curve" smooth="yes"/>
      <point x="637.928" y="1425.48"/>
      <point x="388.464" y="1224.464"/>
      <point x="303.024" y="811.648" type="curve" smooth="yes"/>
      <point x="107.328" y="-133.584" type="line" smooth="yes"/>
      <point x="60.32" y="-365.552"/>
      <point x="3.2960000000000003" y="-420.8"/>
      <point x="-79.544" y="-420.8" type="curve" smooth="yes"/>
      <point x="-114.84" y="-420.8"/>
      <point x="-149.192" y="-402.56"/>
      <point x="-191.8" y="-345.528" type="curve" smooth="yes"/>
      <point x="-234.408" y="-288.496"/>
      <point x="-258.704" y="-264.44"/>
      <point x="-282.76" y="-264.44" type="curve" smooth="yes"/>
      <point x="-337.48" y="-264.44"/>
      <point x="-383.144" y="-311.032"/>
      <point x="-383.144" y="-376.712" type="curve" smooth="yes"/>
      <point x="-383.144" y="-464.8"/>
      <point x="-314.776" y="-530.0"/>
      <point x="-167.024" y="-530.0" type="curve" smooth="yes"/>
      <point x="93.024" y="-530.0"/>
      <point x="314.848" y="-333.448"/>
    </contour>
  </outline>
</glyph>
<glyph name="ae" format="2">
  <advance width="1458"/>
  <unicode hex="00E6"/>
  <anchor x="874.56" y="864.96" name="top"/>
  <anchor x="610.672" y="0.0" name="bottom"/>
  <outline>
    <contour>
      <point x="990.928" y="747.496" type="line"/>
      <point x="1027.336" y="864.96" type="line"/>
      <point x="874.96" y="864.96" type="line"/>
      <point x="766.272" y="793.032" type="line"/>
      <point x="634.368" y="457.84" type="line" smooth="yes"/>
      <point x="562.72" y="274.128"/>
      <point x="420.168" y="155.488"/>
      <point x="343.18399999999997" y="155.488" type="curve" smooth="yes"/>
      <point x="301.96000000000004" y="155.488"/>
      <point x="283.456" y="172.768"/>
      <point x="283.456" y="221.048" type="curve" smooth="yes"/>
      <point x="283.456" y="383.104"/>
      <point x="467.15999999999997" y="766.152"/>
      <point x="644.304" y="766.152" type="curve" smooth="yes"/>
      <point x="707.784" y="766.152"/>
      <point x="743.488" y="731.264"/>
      <point x="756.432" y="692.136" type="curve"/>
      <point x="808.096" y="762.336" type="line"/>
      <point x="747.952" y="850.032"/>
      <point x="679.624" y="882.864"/>
      <point x="586.424" y="882.864" type="curve" smooth="yes"/>
      <point x="279.704" y="882.864"/>
      <point x="9.096" y="463.4"/>
      <point x="9.096" y="181.944" type="curve" smooth="yes"/>
      <point x="9.096" y="42.888"/>
      <point x="93.648" y="-25.424"/>
      <point x="213.664" y="-25.424" type="curve" smooth="yes"/>
      <point x="352.304" y="-25.424"/>
      <point x="469.84000000000003" y="58.336"/>
      <point x="678.912" y="398.752" type="curve"/>
      <point x="653.544" y="408.96" type="line"/>
      <point x="622.224" y="117.424"/>
      <point x="738.664" y="-26.48"/>
      <point x="964.6" y="-26.48" type="curve" smooth="yes"/>
      <point x="1145.352" y="-26.48"/>
      <point x="1266.992" y="46.056"/>
      <point x="1381.544" y="323.304" type="curve"/>
      <point x="1319.064" y="323.304" type="line"/>
      <point x="1242.232" y="190.96800000000002"/>
      <point x="1169.936" y="151.32"/>
      <point x="1068.92" y="151.32" type="curve" smooth="yes"/>
      <point x="975.736" y="151.32"/>
      <point x="915.088" y="202.32"/>
      <point x="915.088" y="335.784" type="curve" smooth="yes"/>
      <point x="915.088" y="536.264"/>
      <point x="1014.736" y="798.52"/>
      <point x="1156.952" y="798.52" type="curve" smooth="yes"/>
      <point x="1201.104" y="798.52"/>
      <point x="1223.736" y="769.592"/>
      <point x="1223.736" y="719.776" type="curve" smooth="yes"/>
      <point x="1223.736" y="618.76"/>
      <point x="1161.288" y="557.088"/>
      <point x="853.248" y="455.072" type="curve"/>
      <point x="850.248" y="370.76" type="line"/>
      <point x="1026.688" y="413.336"/>
      <point x="1220.568" y="470.336"/>
      <point x="1380.752" y="537.28" type="curve"/>
      <point x="1415.216" y="570.576"/>
      <point x="1448.048" y="635.52"/>
      <point x="1448.048" y="705.48" type="curve" smooth="yes"/>
      <point x="1448.048" y="808.44"/>
      <point x="1388.808" y="891.44"/>
      <point x="1246.904" y="891.44" type="curve" smooth="yes"/>
      <point x="1124.568" y="891.44"/>
      <point x="1014.184" y="830.5840000000001"/>
      <point x="959.256" y="738.344" type="curve"/>
    </contour>
  </outline>
</glyph>
<glyph name="ccedilla" format="2">
	<unicode hex="00E7"/>
	<advance width="816.048"/>
	<outline>
		<contour>
			<point x="178.096" y="-530" type="curve"/>
			<point x="352" y="-530"/>
			<point x="473.336" y="-410.28"/>
			<point x="473.336" y="-281.648" type="curve" smooth="yes"/>
			<point x="473.336" y="-207.168"/>
			<point x="423.968" y="-141.28"/>
			<point x="270.472" y="-105.264" type="curve"/>
			<point x="239.064" y="-221.832" type="line"/>
			<point x="471.096" y="49.352" type="line"/>
			<point x="384.488" y="49.352" type="line"/>
			<point x="143.2" y="-229.144" type="line"/>
			<point x="139.144" y="-242.608" type="line"/>
			<point x="296.176" y="-273.568"/>
			<point x="336.4" y="-310.216"/>
			<point x="336.4" y="-356.2" type="curve" smooth="yes"/>
			<point x="336.4" y="-410"/>
			<point x="297.416" y="-449.28"/>
			<point x="236.024" y="-449.28" type="curve" smooth="yes"/>
			<point x="163.896" y="-449.28"/>
			<point x="154.472" y="-378.504"/>
			<point x="101.176" y="-378.504" type="curve" smooth="yes"/>
			<point x="59.232" y="-378.504"/>
			<point x="35.584" y="-409.096"/>
			<point x="35.584" y="-442.392" type="curve" smooth="yes"/>
			<point x="35.584" y="-489.408"/>
			<point x="84.488" y="-530"/>
		</contour>
		<contour>
			<point x="529.928" y="792.704" type="curve" smooth="yes"/>
			<point x="569.632" y="792.704"/>
			<point x="604.928" y="763"/>
			<point x="641.056" y="707.672" type="curve" smooth="yes"/>
			<point x="677.184" y="652.344"/>
			<point x="694.704" y="630.36"/>
			<point x="711.464" y="630.712" type="curve" smooth="yes"/>
			<point x="787.624" y="631.064"/>
			<point x="838.472" y="670.32"/>
			<point x="838.472" y="738.52" type="curve" smooth="yes"/>
			<point x="838.472" y="822.664"/>
			<point x="767.512" y="891.44"/>
			<point x="601.208" y="891.44" type="curve" smooth="yes"/>
			<point x="311.4" y="891.44"/>
			<point x="45.336" y="639.248"/>
			<point x="45.336" y="288.6" type="curve" smooth="yes"/>
			<point x="45.336" y="89.272"/>
			<point x="151.312" y="-26.48"/>
			<point x="348.504" y="-26.48" type="curve" smooth="yes"/>
			<point x="523.976" y="-26.48"/>
			<point x="640.304" y="51.888"/>
			<point x="751.136" y="323.304" type="curve"/>
			<point x="689.36" y="323.304" type="line"/>
			<point x="613.712" y="192.728"/>
			<point x="542.896" y="151.32"/>
			<point x="457.008" y="151.32" type="curve" smooth="yes"/>
			<point x="359.048" y="151.32"/>
			<point x="316.048" y="202.32"/>
			<point x="316.048" y="335.784" type="curve" smooth="yes"/>
			<point x="316.048" y="572.912"/>
			<point x="417.272" y="792.704"/>
		</contour>
	</outline>
</glyph>
<glyph name="eth" format="2">
  <advance width="985"/>
  <unicode hex="00F0"/>
  <outline>
    <contour>
      <point x="754.176" y="678.272" type="line"/>
      <point x="757.68" y="818.768"/>
      <point x="695.92" y="891.44"/>
      <point x="564.544" y="891.44" type="curve" smooth="yes"/>
      <point x="289.92" y="891.44"/>
      <point x="50.336" y="632.896"/>
      <point x="50.336" y="310.88" type="curve" smooth="yes"/>
      <point x="50.336" y="105.792"/>
      <point x="168.128" y="-26.48"/>
      <point x="387.392" y="-26.48" type="curve" smooth="yes"/>
      <point x="663.2723334389705" y="-26.48"/>
      <point x="897.6320000000001" y="226.7140244526097"/>
      <point x="941.696" y="606.056" type="curve" smooth="yes"/>
      <point x="989.648" y="951.4639999999999"/>
      <point x="890.736" y="1311.496"/>
      <point x="377.104" y="1425.48" type="curve"/>
      <point x="347.288" y="1348.376" type="line"/>
      <point x="653.216" y="1248.888"/>
      <point x="764.096" y="1055.664"/>
      <point x="713.232" y="692.0" type="curve"/>
    </contour>
    <contour>
      <point x="386.152" y="66.44" type="curve" smooth="yes"/>
      <point x="331.664" y="66.44"/>
      <point x="305.384" y="102.112"/>
      <point x="305.384" y="203.488" type="curve" smooth="yes"/>
      <point x="305.384" y="470.32"/>
      <point x="458.032" y="798.52"/>
      <point x="587.208" y="798.52" type="curve" smooth="yes"/>
      <point x="641.696" y="798.52"/>
      <point x="667.976" y="762.848"/>
      <point x="667.976" y="661.472" type="curve" smooth="yes"/>
      <point x="667.976" y="394.64"/>
      <point x="515.328" y="66.44"/>
    </contour>
    <contour>
      <point x="386.736" y="971.32" type="line"/>
      <point x="1022.648" y="1324.752" type="line"/>
      <point x="983.168" y="1404.36" type="line"/>
      <point x="346.608" y="1050.928" type="line"/>
    </contour>
  </outline>
</glyph>
<glyph name="divide" format="2">
	<unicode hex="00F7"/>
	<advance width="1000"/>
	<outline>
		<contour>
			<point x="143.096" y="497.44" type="line"/>
			<point x="105.432" y="374.56" type="line"/>
			<point x="858.312" y="374.56" type="line"/>
			<point x="895.976" y="497.44" type="line"/>
		</contour>
		<contour>
			<point x="595.704" y="875.44" type="curve" smooth="yes"/>
			<point x="520.04" y="875.44"/>
			<point x="466.264" y="817.368"/>
			<point x="466.264" y="747" type="curve" smooth="yes"/>
			<point x="466.264" y="676.632"/>
			<point x="520.04" y="618.56"/>
			<point x="595.704" y="618.56" type="curve" smooth="yes"/>
			<point x="671.368" y="618.56"/>
			<point x="725.144" y="676.632"/>
			<point x="725.144" y="747" type="curve" smooth="yes"/>
			<point x="725.144" y="817.368"/>
			<point x="671.368" y="875.44"/>
		</contour>
		<contour>
			<point x="405.704" y="253.44" type="curve" smooth="yes"/>
			<point x="330.04" y="253.44"/>
			<point x="276.264" y="195.368"/>
			<point x="276.264" y="125" type="curve" smooth="yes"/>
			<point x="276.264" y="54.632"/>
			<point x="330.04" y="-3.44"/>
			<point x="405.704" y="-3.44" type="curve" smooth="yes"/>
			<point x="481.368" y="-3.44"/>
			<point x="535.144" y="54.632"/>
			<point x="535.144" y="125" type="curve" smooth="yes"/>
			<point x="535.144" y="195.368"/>
			<point x="481.368" y="253.44"/>
		</contour>
	</outline>
</glyph>
<glyph name="oslash" format="2">
  <advance width="1001"/>
  <unicode hex="00F8"/>
  <anchor x="625.056" y="864.96" name="top"/>
  <anchor x="368.20799999999997" y="0.0" name="bottom"/>
  <outline>
    <contour>
      <point x="599.616" y="891.44" type="curve" smooth="yes"/>
      <point x="303.568" y="891.44"/>
      <point x="63.984" y="632.896"/>
      <point x="63.984" y="310.88" type="curve" smooth="yes"/>
      <point x="63.984" y="105.792"/>
      <point x="181.776" y="-26.48"/>
      <point x="401.04" y="-26.48" type="curve" smooth="yes"/>
      <point x="697.088" y="-26.48"/>
      <point x="936.672" y="232.064"/>
      <point x="936.672" y="554.08" type="curve" smooth="yes"/>
      <point x="936.672" y="759.168"/>
      <point x="818.88" y="891.44"/>
    </contour>
    <contour>
      <point x="399.8" y="66.44" type="curve" smooth="yes"/>
      <point x="345.312" y="66.44"/>
      <point x="319.032" y="102.112"/>
      <point x="319.032" y="203.488" type="curve" smooth="yes"/>
      <point x="319.032" y="470.32"/>
      <point x="471.68" y="798.52"/>
      <point x="600.856" y="798.52" type="curve" smooth="yes"/>
      <point x="655.344" y="798.52"/>
      <point x="681.624" y="762.848"/>
      <point x="681.624" y="661.472" type="curve" smooth="yes"/>
      <point x="681.624" y="394.64"/>
      <point x="528.976" y="66.44"/>
    </contour>
    <contour>
      <point x="917.288" y="864.96" type="line"/>
      <point x="790.4639999999999" y="755.928" type="line"/>
      <point x="711.472" y="704.728" type="line"/>
      <point x="230.264" y="240.936" type="line"/>
      <point x="152.456" y="196.752" type="line"/>
      <point x="-75.992" y="0.0" type="line"/>
      <point x="83.368" y="0.0" type="line"/>
      <point x="210.89600000000002" y="109.736" type="line"/>
      <point x="289.536" y="160.232" type="line"/>
      <point x="768.28" y="621.912" type="line"/>
      <point x="846.792" y="666.448" type="line"/>
      <point x="1076.648" y="864.96" type="line"/>
    </contour>
  </outline>
</glyph>
<glyph name="Aogonek" format="2">
	<unicode hex="0104"/>
	<advance width="1432.824"/>
	<outline>
		<contour>
			<point x="337.192" y="446.032" type="line"/>
			<point x="982.04" y="446.032" type="line"/>
			<point x="1018.464" y="555.248" type="line"/>
			<point x="373.616" y="555.248" type="line"/>
		</contour>
		<contour>
			<point x="1218.6" y="101.848" type="line"/>
			<point x="1078.528" y="1347.04" type="line"/>
			<point x="892.264" y="1347.04" type="line"/>
			<point x="29.688" y="95.312" type="line"/>
			<point x="-127.832" y="41.888" type="line"/>
			<point x="-140.776" y="0" type="line"/>
			<point x="286.016" y="0" type="line"/>
			<point x="298.96" y="41.888" type="line"/>
			<point x="163.904" y="95.312" type="line"/>
			<point x="888.168" y="1167.136" type="line"/>
			<point x="827.112" y="1161.952" type="line"/>
			<point x="933.112" y="98.552" type="line"/>
			<point x="762.128" y="41.888" type="line"/>
			<point x="748.536" y="0" type="line"/>
			<point x="1332.544" y="0" type="line"/>
			<point x="1345.488" y="41.888" type="line"/>
		</contour>
		<contour>
			<point x="905.032" y="-320.728" type="curve" smooth="yes"/>
			<point x="905.032" y="-262.6"/>
			<point x="931.792" y="-194.488"/>
			<point x="1050.8" y="-66.664" type="curve" smooth="yes"/>
			<point x="1150.608" y="46" type="line"/>
			<point x="1080.816" y="46" type="line"/>
			<point x="926.808" y="-105.216" type="line" smooth="yes"/>
			<point x="767.488" y="-256.04"/>
			<point x="747.208" y="-326.856"/>
			<point x="747.208" y="-389.152" type="curve" smooth="yes"/>
			<point x="747.208" y="-469.096"/>
			<point x="799.912" y="-530"/>
			<point x="888.28" y="-530" type="curve" smooth="yes"/>
			<point x="978.464" y="-530"/>
			<point x="1039.76" y="-492.424"/>
			<point x="1154.536" y="-381.664" type="curve"/>
			<point x="1128.112" y="-340.112" type="line"/>
			<point x="1061.552" y="-388.432"/>
			<point x="1027.848" y="-402.784"/>
			<point x="986.848" y="-402.784" type="curve" smooth="yes"/>
			<point x="933.2" y="-402.784"/>
			<point x="905.032" y="-370.192"/>
		</contour>
	</outline>
</glyph>
<glyph name="aogonek" format="2">
  <advance width="1087.296"/>
  <unicode hex="0105"/>
  <outline>
    <contour>
      <point x="1065.664" y="255.264" type="curve"/>
      <point x="1026.0" y="292.448" type="line"/>
      <point x="925.04" y="188.768"/>
      <point x="837.0" y="144.008"/>
      <point x="754.8" y="143.344" type="curve"/>
      <point x="793.832" y="71.648" type="line"/>
      <point x="1050.016" y="864.96" type="line"/>
      <point x="874.96" y="864.96" type="line"/>
      <point x="766.272" y="793.032" type="line"/>
      <point x="634.368" y="457.84" type="line" smooth="yes"/>
      <point x="562.72" y="274.128"/>
      <point x="420.168" y="155.488"/>
      <point x="343.18399999999997" y="155.488" type="curve" smooth="yes"/>
      <point x="301.96000000000004" y="155.488"/>
      <point x="283.456" y="172.768"/>
      <point x="283.456" y="221.048" type="curve" smooth="yes"/>
      <point x="283.456" y="383.104"/>
      <point x="467.15999999999997" y="766.152"/>
      <point x="644.304" y="766.152" type="curve" smooth="yes"/>
      <point x="707.784" y="766.152"/>
      <point x="743.488" y="731.264"/>
      <point x="756.432" y="692.136" type="curve"/>
      <point x="808.096" y="762.336" type="line"/>
      <point x="747.952" y="850.032"/>
      <point x="679.624" y="882.864"/>
      <point x="586.424" y="882.864" type="curve" smooth="yes"/>
      <point x="279.704" y="882.864"/>
      <point x="9.096" y="463.4"/>
      <point x="9.096" y="181.944" type="curve" smooth="yes"/>
      <point x="9.096" y="42.888"/>
      <point x="93.648" y="-25.424"/>
      <point x="213.664" y="-25.424" type="curve" smooth="yes"/>
      <point x="343.88" y="-25.424"/>
      <point x="464.656" y="49.263999999999996"/>
      <point x="678.912" y="398.752" type="curve"/>
      <point x="652.264" y="398.752" type="line"/>
      <point x="545.672" y="76.104" type="line" smooth="yes"/>
      <point x="521.656" y="4.056"/>
      <point x="559.376" y="-26.48"/>
      <point x="660.44" y="-26.48" type="curve" smooth="yes"/>
      <point x="701.864" y="-26.48"/>
      <point x="743.992" y="-17.184"/>
      <point x="786.824" y="1.7599999999999998" type="curve"/>
      <point x="774.512" y="23.240000000000002" type="line"/>
      <point x="637.688" y="-93.6" type="line" smooth="yes"/>
      <point x="466.216" y="-241.776"/>
      <point x="443.656" y="-314.536"/>
      <point x="443.656" y="-384.576" type="curve" smooth="yes"/>
      <point x="443.656" y="-465.576"/>
      <point x="499.176" y="-530.0"/>
      <point x="588.952" y="-530.0" type="curve" smooth="yes"/>
      <point x="679.136" y="-530.0"/>
      <point x="740.432" y="-492.424"/>
      <point x="855.208" y="-381.664" type="curve"/>
      <point x="828.784" y="-340.112" type="line"/>
      <point x="762.224" y="-388.432"/>
      <point x="728.52" y="-402.784"/>
      <point x="687.52" y="-402.784" type="curve" smooth="yes"/>
      <point x="631.056" y="-402.784"/>
      <point x="601.832" y="-367.376"/>
      <point x="601.832" y="-316.152" type="curve" smooth="yes"/>
      <point x="601.832" y="-250.984"/>
      <point x="627.6320000000001" y="-180.208"/>
      <point x="762.032" y="-55.751999999999995" type="curve" smooth="yes"/>
      <point x="903.56" y="75.664" type="line" smooth="yes"/>
      <point x="962.9680000000001" y="131.072"/>
      <point x="1017.576" y="188.976"/>
    </contour>
  </outline>
</glyph>
<glyph name="Eogonek" format="2">
  <advance width="1280"/>
  <unicode hex="0118"/>
  <outline>
    <contour>
      <point x="459.36" y="1247.928" type="line"/>
      <point x="108.24799999999999" y="97.016" type="line"/>
      <point x="-44.68" y="41.888" type="line"/>
      <point x="-57.328" y="0.0" type="line"/>
      <point x="372.272" y="0.0" type="line"/>
      <point x="780.216" y="1340.0" type="line"/>
      <point x="347.264" y="1340.0" type="line"/>
      <point x="334.616" y="1298.112" type="line"/>
    </contour>
    <contour>
      <point x="823.304" y="441.0" type="line"/>
      <point x="916.336" y="441.0" type="line"/>
      <point x="996.336" y="703.0" type="line"/>
      <point x="1076.336" y="965.0" type="line"/>
      <point x="983.304" y="965.0" type="line"/>
      <point x="899.192" y="759.608" type="line"/>
      <point x="452.08" y="759.608" type="line"/>
      <point x="418.304" y="646.392" type="line"/>
      <point x="865.416" y="646.392" type="line"/>
    </contour>
    <contour>
      <point x="1333.48" y="942.744" type="line"/>
      <point x="1396.0" y="1406.496" type="line"/>
      <point x="1367.392" y="1406.496" type="line"/>
      <point x="1225.008" y="1340.0" type="line"/>
      <point x="630.192" y="1340.0" type="line"/>
      <point x="592.768" y="1226.08" type="line"/>
      <point x="1235.84" y="1226.08" type="line"/>
      <point x="1192.896" y="1265.168" type="line"/>
      <point x="1274.464" y="942.744" type="line"/>
    </contour>
    <contour>
      <point x="969.896" y="-73.256" type="line"/>
      <point x="1001.744" y="-73.256" type="line"/>
      <point x="1235.088" y="405.36" type="line"/>
      <point x="1187.776" y="430.896" type="line"/>
      <point x="833.456" y="77.072" type="line"/>
      <point x="931.248" y="113.92" type="line"/>
      <point x="258.264" y="113.92" type="line"/>
      <point x="220.192" y="0.0" type="line"/>
      <point x="867.416" y="0.0" type="line"/>
    </contour>
    <contour>
      <point x="685.336" y="-320.728" type="curve" smooth="yes"/>
      <point x="685.336" y="-262.6"/>
      <point x="712.096" y="-194.488"/>
      <point x="831.104" y="-66.664" type="curve" smooth="yes"/>
      <point x="930.912" y="46.0" type="line"/>
      <point x="861.12" y="46.0" type="line"/>
      <point x="707.112" y="-105.21600000000001" type="line" smooth="yes"/>
      <point x="547.792" y="-256.04"/>
      <point x="527.512" y="-326.856"/>
      <point x="527.512" y="-389.152" type="curve" smooth="yes"/>
      <point x="527.512" y="-469.096"/>
      <point x="580.216" y="-530.0"/>
      <point x="668.5840000000001" y="-530.0" type="curve" smooth="yes"/>
      <point x="758.768" y="-530.0"/>
      <point x="820.064" y="-492.424"/>
      <point x="934.84" y="-381.664" type="curve"/>
      <point x="908.416" y="-340.112" type="line"/>
      <point x="841.856" y="-388.432"/>
      <point x="808.152" y="-402.784"/>
      <point x="767.152" y="-402.784" type="curve" smooth="yes"/>
      <point x="713.504" y="-402.784"/>
      <point x="685.336" y="-370.192"/>
    </contour>
  </outline>
</glyph>
<glyph name="eogonek" format="2">
	<unicode hex="0119"/>
	<advance width="858.992"/>
	<outline>
		<contour>
			<point x="645.104" y="86.352" type="line" smooth="yes"/>
			<point x="694.712" y="141.072"/>
			<point x="738.432" y="216.328"/>
			<point x="782.856" y="323.304" type="curve"/>
			<point x="720.376" y="323.304" type="line"/>
			<point x="643.544" y="190.968"/>
			<point x="571.248" y="151.32"/>
			<point x="470.232" y="151.32" type="curve" smooth="yes"/>
			<point x="377.048" y="151.32"/>
			<point x="316.4" y="202.32"/>
			<point x="316.4" y="335.784" type="curve" smooth="yes"/>
			<point x="316.4" y="552.464"/>
			<point x="423.824" y="798.52"/>
			<point x="558.264" y="798.52" type="curve" smooth="yes"/>
			<point x="602.416" y="798.52"/>
			<point x="625.048" y="769.592"/>
			<point x="625.048" y="719.776" type="curve" smooth="yes"/>
			<point x="625.048" y="618.76"/>
			<point x="562.6" y="557.088"/>
			<point x="254.56" y="455.072" type="curve"/>
			<point x="251.56" y="370.76" type="line"/>
			<point x="435.128" y="413.984"/>
			<point x="628.36" y="472.928"/>
			<point x="782.064" y="537.28" type="curve"/>
			<point x="822.36" y="579"/>
			<point x="849.36" y="642.648"/>
			<point x="849.36" y="705.48" type="curve" smooth="yes"/>
			<point x="849.36" y="808.736"/>
			<point x="778.048" y="891.44"/>
			<point x="595.928" y="891.44" type="curve" smooth="yes"/>
			<point x="311.752" y="891.44"/>
			<point x="45.688" y="639.248"/>
			<point x="45.688" y="288.6" type="curve" smooth="yes"/>
			<point x="45.688" y="91.032"/>
			<point x="160.832" y="-26.48"/>
			<point x="365.912" y="-26.48" type="curve" smooth="yes"/>
			<point x="419.448" y="-26.48"/>
			<point x="467.28" y="-20.128"/>
			<point x="511.112" y="-4.072" type="curve"/>
			<point x="500.408" y="12.52" type="line"/>
			<point x="409.56" y="-84.424" type="line" smooth="yes"/>
			<point x="250.944" y="-243.728"/>
			<point x="224.536" y="-327.504"/>
			<point x="224.536" y="-392.392" type="curve" smooth="yes"/>
			<point x="224.536" y="-475.576"/>
			<point x="283.72" y="-530"/>
			<point x="372.088" y="-530" type="curve" smooth="yes"/>
			<point x="462.272" y="-530"/>
			<point x="523.568" y="-492.424"/>
			<point x="638.344" y="-381.664" type="curve"/>
			<point x="611.92" y="-340.112" type="line"/>
			<point x="545.36" y="-388.432"/>
			<point x="511.656" y="-402.784"/>
			<point x="470.656" y="-402.784" type="curve" smooth="yes"/>
			<point x="417.008" y="-402.784"/>
			<point x="388.84" y="-362.416"/>
			<point x="388.84" y="-311.008" type="curve" smooth="yes"/>
			<point x="388.84" y="-250.288"/>
			<point x="412.6" y="-177.696"/>
			<point x="533.552" y="-43.928" type="curve" smooth="yes"/>
		</contour>
	</outline>
</glyph>
<glyph name="Hbar" format="2">
  <advance width="1591.592"/>
  <unicode hex="0126"/>
  <outline>
    <contour>
      <point x="401.936" y="627.336" type="line"/>
      <point x="1306.936" y="627.336" type="line"/>
      <point x="1341.064" y="741.256" type="line"/>
      <point x="436.064" y="741.256" type="line"/>
    </contour>
    <contour>
      <point x="230.264" y="947.52" type="line"/>
      <point x="1673.032" y="947.52" type="line"/>
      <point x="1709.16" y="1064.848" type="line"/>
      <point x="266.392" y="1064.848" type="line"/>
    </contour>
    <contour>
      <point x="460.36" y="1247.928" type="line"/>
      <point x="109.24799999999999" y="97.016" type="line"/>
      <point x="-43.68" y="41.888" type="line"/>
      <point x="-56.328" y="0.0" type="line"/>
      <point x="512.96" y="0.0" type="line"/>
      <point x="525.608" y="41.888" type="line"/>
      <point x="400.86400000000003" y="92.072" type="line"/>
      <point x="751.976" y="1242.984" type="line"/>
      <point x="904.904" y="1298.112" type="line"/>
      <point x="917.552" y="1340.0" type="line"/>
      <point x="348.264" y="1340.0" type="line"/>
      <point x="335.616" y="1298.112" type="line"/>
    </contour>
    <contour>
      <point x="1335.488" y="1247.928" type="line"/>
      <point x="984.376" y="97.016" type="line"/>
      <point x="831.448" y="41.888" type="line"/>
      <point x="818.8" y="0.0" type="line"/>
      <point x="1388.088" y="0.0" type="line"/>
      <point x="1400.736" y="41.888" type="line"/>
      <point x="1275.992" y="92.072" type="line"/>
      <point x="1627.104" y="1242.984" type="line"/>
      <point x="1780.032" y="1298.112" type="line"/>
      <point x="1792.68" y="1340.0" type="line"/>
      <point x="1223.392" y="1340.0" type="line"/>
      <point x="1210.744" y="1298.112" type="line"/>
    </contour>
  </outline>
</glyph>
<glyph name="Iogonek" format="2">
	<unicode hex="012E"/>
	<advance width="714.168"/>
	<outline>
		<contour>
			<point x="459.36" y="1247.928" type="line"/>
			<point x="108.248" y="97.016" type="line"/>
			<point x="-44.68" y="41.888" type="line"/>
			<point x="-57.328" y="0" type="line"/>
			<point x="511.96" y="0" type="line"/>
			<point x="524.608" y="41.888" type="line"/>
			<point x="399.864" y="92.072" type="line"/>
			<point x="750.976" y="1242.984" type="line"/>
			<point x="903.904" y="1298.112" type="line"/>
			<point x="916.552" y="1340" type="line"/>
			<point x="347.264" y="1340" type="line"/>
			<point x="334.616" y="1298.112" type="line"/>
		</contour>
		<contour>
			<point x="86.16" y="-317.56" type="curve" smooth="yes"/>
			<point x="86.16" y="-259.432"/>
			<point x="110.456" y="-191.32"/>
			<point x="224.536" y="-63.144" type="curve" smooth="yes"/>
			<point x="311.32" y="46" type="line"/>
			<point x="241.528" y="46" type="line"/>
			<point x="101.6" y="-101.696" type="line" smooth="yes"/>
			<point x="-51.736" y="-252.52"/>
			<point x="-71.664" y="-324.04"/>
			<point x="-71.664" y="-386.336" type="curve" smooth="yes"/>
			<point x="-71.664" y="-467.336"/>
			<point x="-19.664" y="-530"/>
			<point x="69.408" y="-530" type="curve" smooth="yes"/>
			<point x="159.592" y="-530"/>
			<point x="220.888" y="-492.424"/>
			<point x="335.664" y="-381.664" type="curve"/>
			<point x="309.24" y="-340.112" type="line"/>
			<point x="242.68" y="-388.432"/>
			<point x="208.976" y="-402.784"/>
			<point x="167.976" y="-402.784" type="curve" smooth="yes"/>
			<point x="113.624" y="-402.784"/>
			<point x="86.16" y="-368.432"/>
		</contour>
	</outline>
</glyph>
<glyph name="iogonek" format="2">
	<unicode hex="012F"/>
	<advance width="638.088"/>
	<outline>
		<contour>
			<point x="421.68" y="1262.416" type="curve" smooth="yes"/>
			<point x="421.68" y="1169.904"/>
			<point x="489.064" y="1103.408"/>
			<point x="579.096" y="1103.408" type="curve" smooth="yes"/>
			<point x="669.776" y="1103.408"/>
			<point x="737.16" y="1169.904"/>
			<point x="737.16" y="1262.416" type="curve" smooth="yes"/>
			<point x="737.16" y="1356.224"/>
			<point x="669.776" y="1421.424"/>
			<point x="579.096" y="1421.424" type="curve" smooth="yes"/>
			<point x="489.064" y="1421.424"/>
			<point x="421.68" y="1356.224"/>
		</contour>
		<contour>
			<point x="472.912" y="98.616" type="line" smooth="yes"/>
			<point x="512.616" y="135.616"/>
			<point x="556.896" y="182.136"/>
			<point x="601.88" y="237.768" type="curve"/>
			<point x="563.512" y="276.896" type="line"/>
			<point x="460.608" y="179.696"/>
			<point x="378.048" y="135.344"/>
			<point x="280.648" y="140.104" type="curve"/>
			<point x="328.752" y="72.296" type="line"/>
			<point x="582.92" y="779.416" type="line" smooth="yes"/>
			<point x="610.472" y="854.888"/>
			<point x="575.048" y="891.44"/>
			<point x="474.152" y="891.44" type="curve" smooth="yes"/>
			<point x="337.792" y="891.44"/>
			<point x="194.376" y="815.872"/>
			<point x="51.192" y="606.912" type="curve"/>
			<point x="91.56" y="570.784" type="line"/>
			<point x="190.352" y="677.928"/>
			<point x="272.8" y="726.096"/>
			<point x="371.496" y="723.448" type="curve"/>
			<point x="317.872" y="772.664" type="line"/>
			<point x="63.704" y="85.544" type="line" smooth="yes"/>
			<point x="35.152" y="9.368"/>
			<point x="70.168" y="-26.48"/>
			<point x="179.16" y="-26.48" type="curve" smooth="yes"/>
			<point x="224.416" y="-26.48"/>
			<point x="269.728" y="-17.888"/>
			<point x="316.744" y="1.352" type="curve"/>
			<point x="308.968" y="21.648" type="line"/>
			<point x="171.936" y="-94.456" type="line" smooth="yes"/>
			<point x="2.04" y="-237.928"/>
			<point x="-24.704" y="-321.928"/>
			<point x="-24.704" y="-388.096" type="curve" smooth="yes"/>
			<point x="-24.704" y="-468.04"/>
			<point x="28" y="-530"/>
			<point x="116.368" y="-530" type="curve" smooth="yes"/>
			<point x="206.552" y="-530"/>
			<point x="267.848" y="-492.424"/>
			<point x="382.624" y="-381.664" type="curve"/>
			<point x="356.2" y="-340.112" type="line"/>
			<point x="289.64" y="-388.432"/>
			<point x="255.936" y="-402.784"/>
			<point x="214.936" y="-402.784" type="curve" smooth="yes"/>
			<point x="161.288" y="-402.784"/>
			<point x="133.12" y="-370.192"/>
			<point x="133.12" y="-320.728" type="curve" smooth="yes"/>
			<point x="133.12" y="-257.672"/>
			<point x="168.104" y="-182.728"/>
			<point x="297.336" y="-63.144" type="curve" smooth="yes"/>
		</contour>
	</outline>
</glyph>
<glyph name="dotlessi" format="2">
  <advance width="633"/>
  <unicode hex="0131"/>
  <anchor x="440.024" y="864.96" name="top"/>
  <anchor x="396.928" y="0.0" name="right"/>
  <anchor x="214.84" y="0.0" name="bottom"/>
  <outline>
    <contour>
      <point x="63.704" y="85.54400000000001" type="line" smooth="yes"/>
      <point x="35.152" y="9.368"/>
      <point x="70.168" y="-26.48"/>
      <point x="179.16" y="-26.48" type="curve" smooth="yes"/>
      <point x="313.52" y="-26.48"/>
      <point x="451.15999999999997" y="50.088"/>
      <point x="601.88" y="237.768" type="curve"/>
      <point x="563.512" y="276.896" type="line"/>
      <point x="460.608" y="179.696"/>
      <point x="378.048" y="135.344"/>
      <point x="280.648" y="140.10399999999998" type="curve"/>
      <point x="328.752" y="72.296" type="line"/>
      <point x="582.92" y="779.4159999999999" type="line" smooth="yes"/>
      <point x="610.472" y="854.888"/>
      <point x="575.048" y="891.44"/>
      <point x="474.152" y="891.44" type="curve" smooth="yes"/>
      <point x="337.79200000000003" y="891.44"/>
      <point x="194.376" y="815.872"/>
      <point x="51.192" y="606.912" type="curve"/>
      <point x="91.56" y="570.784" type="line"/>
      <point x="190.352" y="677.928"/>
      <point x="272.8" y="726.096"/>
      <point x="371.496" y="723.448" type="curve"/>
      <point x="317.872" y="772.664" type="line"/>
    </contour>
  </outline>
</glyph>
<glyph name="kgreenlandic" format="2">
  <advance width="1157"/>
  <unicode hex="0138"/>
  <outline>
    <contour>
      <point x="605.472" y="872.088" type="line"/>
      <point x="565.88" y="883.44"/>
      <point x="511.976" y="889.144"/>
      <point x="435.04" y="889.144" type="curve" smooth="yes"/>
      <point x="248.168" y="889.144"/>
      <point x="132.872" y="808.648"/>
      <point x="35.912" y="563.952" type="curve"/>
      <point x="88.76" y="539.88" type="line"/>
      <point x="164.296" y="682.488"/>
      <point x="205.968" y="712.304"/>
      <point x="280.56" y="712.304" type="curve" smooth="yes"/>
      <point x="285.56" y="712.304"/>
      <point x="290.56" y="712.304"/>
      <point x="295.56" y="712.304" type="curve"/>
      <point x="78.872" y="0.0" type="line"/>
      <point x="337.88" y="0.0" type="line"/>
    </contour>
    <contour>
      <point x="1036.52" y="606.528" type="curve" smooth="yes"/>
      <point x="1121.016" y="606.528"/>
      <point x="1193.216" y="663.656"/>
      <point x="1193.216" y="757.632" type="curve" smooth="yes"/>
      <point x="1193.216" y="829.184"/>
      <point x="1141.552" y="891.44"/>
      <point x="1052.9279999999999" y="891.44" type="curve" smooth="yes"/>
      <point x="943.376" y="891.44"/>
      <point x="833.032" y="835.184"/>
      <point x="480.064" y="476.272" type="curve"/>
      <point x="460.808" y="438.888" type="line"/>
      <point x="603.296" y="46.16"/>
      <point x="671.4" y="-26.48"/>
      <point x="756.992" y="-26.48" type="curve" smooth="yes"/>
      <point x="869.688" y="-26.48"/>
      <point x="984.624" y="59.792"/>
      <point x="1111.92" y="247.88" type="curve"/>
      <point x="1071.496" y="282.712" type="line"/>
      <point x="987.592" y="184.10399999999998"/>
      <point x="935.4" y="150.32"/>
      <point x="894.768" y="150.32" type="curve" smooth="yes"/>
      <point x="844.344" y="150.32"/>
      <point x="792.848" y="222.608"/>
      <point x="652.696" y="585.592" type="curve"/>
      <point x="568.024" y="465.44" type="line"/>
      <point x="717.7280000000001" y="634.144"/>
      <point x="850.288" y="723.688"/>
      <point x="911.712" y="723.688" type="curve" smooth="yes"/>
      <point x="938.136" y="723.688"/>
      <point x="956.3199999999999" y="706.856"/>
      <point x="978.208" y="663.84" type="curve" smooth="yes"/>
      <point x="1000.096" y="620.824"/>
      <point x="1015.28" y="606.528"/>
    </contour>
  </outline>
</glyph>
<glyph name="Lslash" format="2">
  <advance width="1228"/>
  <unicode hex="0141"/>
  <outline>
    <contour>
      <point x="775.016" y="1239.744" type="line"/>
      <point x="929.24" y="1296.816" type="line"/>
      <point x="943.184" y="1340.0" type="line"/>
      <point x="373.896" y="1340.0" type="line"/>
      <point x="360.6" y="1296.816" type="line"/>
      <point x="482.104" y="1240.8" type="line"/>
      <point x="134.232" y="100.256" type="line"/>
      <point x="-19.992000000000004" y="43.184" type="line"/>
      <point x="-33.288000000000004" y="0.0" type="line"/>
      <point x="397.608" y="0.0" type="line"/>
    </contour>
    <contour>
      <point x="799.344" y="77.072" type="line"/>
      <point x="897.136" y="113.92" type="line"/>
      <point x="259.352" y="113.92" type="line"/>
      <point x="221.28" y="0.0" type="line"/>
      <point x="833.304" y="0.0" type="line"/>
      <point x="932.544" y="-80.384" type="line"/>
      <point x="964.392" y="-80.384" type="line"/>
      <point x="1207.456" y="424.8" type="line"/>
      <point x="1160.144" y="450.336" type="line"/>
    </contour>
    <contour>
      <point x="950.352" y="951.824" type="line"/>
      <point x="511.472" y="723.904" type="line"/>
      <point x="430.16" y="726.808" type="line"/>
      <point x="119.888" y="565.96" type="line"/>
      <point x="77.112" y="425.336" type="line"/>
      <point x="388.088" y="586.536" type="line"/>
      <point x="471.16" y="584.336" type="line"/>
      <point x="906.928" y="811.2" type="line"/>
    </contour>
  </outline>
</glyph>
<glyph name="lslash" format="2">
  <advance width="719"/>
  <unicode hex="0142"/>
  <outline>
    <contour>
      <point x="70.096" y="499.744" type="line"/>
      <point x="22.375999999999998" y="342.288" type="line"/>
      <point x="303.552" y="524.672" type="line"/>
      <point x="415.28" y="544.264" type="line"/>
      <point x="700.904" y="729.632" type="line"/>
      <point x="749.272" y="887.088" type="line"/>
      <point x="456.608" y="697.144" type="line"/>
      <point x="342.824" y="676.496" type="line"/>
    </contour>
    <contour>
      <point x="434.488" y="1210.976" type="curve"/>
      <point x="77.096" y="85.54400000000001" type="line" smooth="yes"/>
      <point x="51.488" y="7.016"/>
      <point x="87.432" y="-26.48"/>
      <point x="192.552" y="-26.48" type="curve" smooth="yes"/>
      <point x="332.744" y="-26.48"/>
      <point x="482.048" y="43.608000000000004"/>
      <point x="634.712" y="237.768" type="curve"/>
      <point x="596.344" y="276.248" type="line"/>
      <point x="489.552" y="174.512"/>
      <point x="400.512" y="134.048"/>
      <point x="299.224" y="142.696" type="curve"/>
      <point x="340.384" y="75.816" type="line"/>
      <point x="770.6" y="1425.48" type="line"/>
      <point x="737.232" y="1425.48" type="line"/>
      <point x="325.672" y="1359.632" type="line"/>
      <point x="311.84" y="1313.896" type="line"/>
      <point x="366.248" y="1280.584"/>
      <point x="400.432" y="1252.104"/>
    </contour>
  </outline>
</glyph>
<glyph name="Eng" format="2">
  <advance width="1453"/>
  <unicode hex="014A"/>
  <outline>
    <contour>
      <point x="1163.648" y="340.72" type="line"/>
      <point x="747.72" y="1340.0" type="line"/>
      <point x="330.912" y="1340.0" type="line"/>
      <point x="319.912" y="1302.648" type="line"/>
      <point x="457.176" y="1221.208" type="line"/>
      <point x="112.952" y="94.424" type="line"/>
      <point x="-39.976" y="41.888" type="line"/>
      <point x="-52.624" y="0.0" type="line"/>
      <point x="339.56" y="0.0" type="line"/>
      <point x="352.20799999999997" y="41.888" type="line"/>
      <point x="219.04" y="93.368" type="line"/>
      <point x="565.744" y="1226.832" type="line"/>
      <point x="514.488" y="1211.248" type="line"/>
      <point x="1032.536" y="-80.296" type="line"/>
    </contour>
    <contour>
      <point x="1101.456" y="-85.256" type="curve" smooth="yes"/>
      <point x="1508.4" y="1245.576" type="line"/>
      <point x="1661.328" y="1298.112" type="line"/>
      <point x="1673.976" y="1340.0" type="line"/>
      <point x="1281.792" y="1340.0" type="line"/>
      <point x="1269.144" y="1298.112" type="line"/>
      <point x="1402.312" y="1246.632" type="line"/>
      <point x="989.424" y="-102.976" type="line" smooth="yes"/>
      <point x="923.624" y="-317.84"/>
      <point x="810.68" y="-398.264"/>
      <point x="706.2" y="-398.264" type="curve" smooth="yes"/>
      <point x="634.624" y="-398.264"/>
      <point x="584.552" y="-285.936"/>
      <point x="523.24" y="-285.936" type="curve" smooth="yes"/>
      <point x="458.632" y="-285.936"/>
      <point x="420.152" y="-340.304"/>
      <point x="420.152" y="-398.08" type="curve" smooth="yes"/>
      <point x="420.152" y="-477.632"/>
      <point x="486.928" y="-530.0"/>
      <point x="625.736" y="-530.0" type="curve" smooth="yes"/>
      <point x="859.712" y="-530.0"/>
      <point x="1008.344" y="-389.944"/>
    </contour>
  </outline>
</glyph>
<glyph name="eng" format="2">
  <advance width="1114.8319999999999"/>
  <unicode hex="014B"/>
  <outline>
    <contour>
      <point x="338.81600000000003" y="-530.0" type="curve" smooth="yes"/>
      <point x="544.784" y="-530.0"/>
      <point x="756.568" y="-368.448"/>
      <point x="860.84" y="-24.855999999999995" type="curve" smooth="yes"/>
      <point x="1032.496" y="540.744" type="line" smooth="yes"/>
      <point x="1057.144" y="621.04"/>
      <point x="1070.848" y="686.336"/>
      <point x="1070.848" y="734.52" type="curve" smooth="yes"/>
      <point x="1070.848" y="826.072"/>
      <point x="1019.944" y="890.384"/>
      <point x="885.3199999999999" y="890.384" type="curve" smooth="yes"/>
      <point x="726.024" y="890.384"/>
      <point x="581.712" y="749.648"/>
      <point x="423.296" y="405.624" type="curve"/>
      <point x="430.592" y="389.424" type="line"/>
      <point x="569.384" y="870.144" type="line"/>
      <point x="504.224" y="884.088"/>
      <point x="461.392" y="890.44"/>
      <point x="395.528" y="890.44" type="curve" smooth="yes"/>
      <point x="245.704" y="890.44"/>
      <point x="122.744" y="813.832"/>
      <point x="35.912" y="560.064" type="curve"/>
      <point x="86.816" y="539.88" type="line"/>
      <point x="162.352" y="687.672"/>
      <point x="207.264" y="712.304"/>
      <point x="285.096" y="712.304" type="curve" smooth="yes"/>
      <point x="290.096" y="712.304"/>
      <point x="295.096" y="712.304"/>
      <point x="300.096" y="712.304" type="curve"/>
      <point x="84.464" y="0.0" type="line"/>
      <point x="344.528" y="0.0" type="line"/>
      <point x="406.456" y="201.89600000000002" type="line"/>
      <point x="508.952" y="536.272"/>
      <point x="648.016" y="701.104"/>
      <point x="742.504" y="701.104" type="curve" smooth="yes"/>
      <point x="781.656" y="701.104"/>
      <point x="797.064" y="681.696"/>
      <point x="797.064" y="652.584" type="curve" smooth="yes"/>
      <point x="797.064" y="627.36"/>
      <point x="787.952" y="593.968"/>
      <point x="771.36" y="537.192" type="curve" smooth="yes"/>
      <point x="558.672" y="-196.488" type="line" smooth="yes"/>
      <point x="507.728" y="-371.432"/>
      <point x="464.304" y="-419.112"/>
      <point x="395.12" y="-419.112" type="curve" smooth="yes"/>
      <point x="370.4" y="-419.112"/>
      <point x="349.808" y="-402.928"/>
      <point x="324.752" y="-357.264" type="curve" smooth="yes"/>
      <point x="299.696" y="-311.6"/>
      <point x="281.696" y="-293.36"/>
      <point x="261.272" y="-293.36" type="curve" smooth="yes"/>
      <point x="199.832" y="-293.36"/>
      <point x="160.536" y="-335.6"/>
      <point x="160.536" y="-393.784" type="curve" smooth="yes"/>
      <point x="160.536" y="-471.928"/>
      <point x="218.2" y="-530.0"/>
    </contour>
  </outline>
</glyph>
<glyph name="oe" format="2">
	<unicode hex="0153"/>
	<advance width="1442.744"/>
	<outline>
		<contour>
			<point x="585.32" y="891.44" type="curve" smooth="yes"/>
			<point x="289.272" y="891.44"/>
			<point x="49.688" y="632.896"/>
			<point x="49.688" y="310.88" type="curve" smooth="yes"/>
			<point x="49.688" y="105.792"/>
			<point x="167.48" y="-26.48"/>
			<point x="386.744" y="-26.48" type="curve" smooth="yes"/>
			<point x="534.256" y="-26.48"/>
			<point x="671.992" y="41.112"/>
			<point x="757.088" y="153.336" type="curve"/>
			<point x="669.12" y="155.096" type="line"/>
			<point x="705.656" y="39.408"/>
			<point x="803.912" y="-26.48"/>
			<point x="949.664" y="-26.48" type="curve" smooth="yes"/>
			<point x="1134.952" y="-26.48"/>
			<point x="1253.352" y="49.296"/>
			<point x="1366.608" y="323.304" type="curve"/>
			<point x="1304.128" y="323.304" type="line"/>
			<point x="1227.296" y="190.968"/>
			<point x="1155" y="151.32"/>
			<point x="1053.984" y="151.32" type="curve" smooth="yes"/>
			<point x="960.8" y="151.32"/>
			<point x="900.152" y="202.32"/>
			<point x="900.152" y="335.784" type="curve" smooth="yes"/>
			<point x="900.152" y="552.464"/>
			<point x="1007.576" y="798.52"/>
			<point x="1142.016" y="798.52" type="curve" smooth="yes"/>
			<point x="1186.168" y="798.52"/>
			<point x="1208.8" y="769.592"/>
			<point x="1208.8" y="719.776" type="curve" smooth="yes"/>
			<point x="1208.8" y="618.76"/>
			<point x="1146.352" y="557.088"/>
			<point x="838.312" y="455.072" type="curve"/>
			<point x="835.312" y="370.76" type="line"/>
			<point x="1018.88" y="413.984"/>
			<point x="1212.112" y="472.928"/>
			<point x="1365.816" y="537.28" type="curve"/>
			<point x="1406.112" y="579"/>
			<point x="1433.112" y="642.648"/>
			<point x="1433.112" y="705.48" type="curve" smooth="yes"/>
			<point x="1433.112" y="808.736"/>
			<point x="1361.8" y="891.44"/>
			<point x="1179.68" y="891.44" type="curve" smooth="yes"/>
			<point x="1029.688" y="891.44"/>
			<point x="870.376" y="814.736"/>
			<point x="786.024" y="688.272" type="curve"/>
			<point x="879.36" y="686.512" type="line"/>
			<point x="849.456" y="810.68"/>
			<point x="752.296" y="891.44"/>
		</contour>
		<contour>
			<point x="385.504" y="66.44" type="curve" smooth="yes"/>
			<point x="331.016" y="66.44"/>
			<point x="304.736" y="102.112"/>
			<point x="304.736" y="203.488" type="curve" smooth="yes"/>
			<point x="304.736" y="470.32"/>
			<point x="457.384" y="798.52"/>
			<point x="586.56" y="798.52" type="curve" smooth="yes"/>
			<point x="641.048" y="798.52"/>
			<point x="667.328" y="762.848"/>
			<point x="667.328" y="661.472" type="curve" smooth="yes"/>
			<point x="667.328" y="394.64"/>
			<point x="514.68" y="66.44"/>
		</contour>
	</outline>
	<anchor name="top" x="850.376" y="864.96"/>
	<anchor name="bottom" x="644.16" y="0"/>
</glyph>
<glyph name="Scedilla" format="2">
	<unicode hex="015E"/>
	<advance width="1114.632"/>
	<outline>
		<contour>
			<point x="1033.504" y="1149.064" type="curve"/>
			<point x="950.936" y="1280.776" type="line"/>
			<point x="1060.648" y="928.224" type="line"/>
			<point x="1118.848" y="928.224" type="line"/>
			<point x="1176.336" y="1410.96" type="line"/>
			<point x="1141.192" y="1410.96" type="line"/>
			<point x="1005.912" y="1323.424" type="line"/>
			<point x="1050.656" y="1322.72" type="line"/>
			<point x="966.56" y="1353.24"/>
			<point x="885.544" y="1366.48"/>
			<point x="794.192" y="1366.48" type="curve" smooth="yes"/>
			<point x="473.848" y="1366.48"/>
			<point x="261.024" y="1194.76"/>
			<point x="261.024" y="932.048" type="curve" smooth="yes"/>
			<point x="261.024" y="780.176"/>
			<point x="332.6" y="677.776"/>
			<point x="509.384" y="594.816" type="curve" smooth="yes"/>
			<point x="685.52" y="512.856"/>
			<point x="778.264" y="456.952"/>
			<point x="778.264" y="323.952" type="curve" smooth="yes"/>
			<point x="778.264" y="179.184"/>
			<point x="655.928" y="89.16"/>
			<point x="423.832" y="89.16" type="curve" smooth="yes"/>
			<point x="335.208" y="89.16"/>
			<point x="256.4" y="108.12"/>
			<point x="167.48" y="147.024" type="curve"/>
			<point x="301.552" y="44.28" type="line"/>
			<point x="131.648" y="420.344" type="line"/>
			<point x="77.04" y="420.344" type="line"/>
			<point x="73.192" y="41.76" type="line"/>
			<point x="172.656" y="-2.408"/>
			<point x="282.816" y="-26.48"/>
			<point x="413.52" y="-26.48" type="curve" smooth="yes"/>
			<point x="785.136" y="-26.48"/>
			<point x="1031.256" y="153.24"/>
			<point x="1031.256" y="446.192" type="curve" smooth="yes"/>
			<point x="1031.256" y="616.92"/>
			<point x="952.768" y="721.36"/>
			<point x="765.8" y="811.096" type="curve" smooth="yes"/>
			<point x="578.48" y="901.184"/>
			<point x="506.48" y="947.48"/>
			<point x="506.48" y="1051.272" type="curve" smooth="yes"/>
			<point x="506.48" y="1181.928"/>
			<point x="595.28" y="1258.376"/>
			<point x="760.376" y="1258.376" type="curve" smooth="yes"/>
			<point x="872.6" y="1258.376"/>
			<point x="961.408" y="1221.6"/>
		</contour>
		<contour>
			<point x="291.288" y="-530" type="curve"/>
			<point x="465.192" y="-530"/>
			<point x="586.528" y="-410.28"/>
			<point x="586.528" y="-281.648" type="curve" smooth="yes"/>
			<point x="586.528" y="-207.168"/>
			<point x="537.16" y="-141.28"/>
			<point x="383.664" y="-105.264" type="curve"/>
			<point x="352.256" y="-221.832" type="line"/>
			<point x="584.288" y="49.352" type="line"/>
			<point x="497.68" y="49.352" type="line"/>
			<point x="256.392" y="-229.144" type="line"/>
			<point x="252.336" y="-242.608" type="line"/>
			<point x="409.368" y="-273.568"/>
			<point x="449.592" y="-310.216"/>
			<point x="449.592" y="-356.2" type="curve" smooth="yes"/>
			<point x="449.592" y="-410"/>
			<point x="410.608" y="-449.28"/>
			<point x="349.216" y="-449.28" type="curve" smooth="yes"/>
			<point x="277.088" y="-449.28"/>
			<point x="267.664" y="-378.504"/>
			<point x="214.368" y="-378.504" type="curve" smooth="yes"/>
			<point x="172.424" y="-378.504"/>
			<point x="148.776" y="-409.096"/>
			<point x="148.776" y="-442.392" type="curve" smooth="yes"/>
			<point x="148.776" y="-489.408"/>
			<point x="197.68" y="-530"/>
		</contour>
	</outline>
</glyph>
<glyph name="scedilla" format="2">
	<unicode hex="015F"/>
	<advance width="732.128"/>
	<outline>
		<contour>
			<point x="90.52" y="-530" type="curve"/>
			<point x="264.424" y="-530"/>
			<point x="385.76" y="-410.28"/>
			<point x="385.76" y="-281.648" type="curve" smooth="yes"/>
			<point x="385.76" y="-207.168"/>
			<point x="336.392" y="-141.28"/>
			<point x="182.896" y="-105.264" type="curve"/>
			<point x="151.488" y="-221.832" type="line"/>
			<point x="371.2" y="33.864" type="line"/>
			<point x="284.592" y="33.864" type="line"/>
			<point x="55.624" y="-229.144" type="line"/>
			<point x="51.568" y="-242.608" type="line"/>
			<point x="208.6" y="-273.568"/>
			<point x="248.824" y="-310.216"/>
			<point x="248.824" y="-356.2" type="curve" smooth="yes"/>
			<point x="248.824" y="-410"/>
			<point x="209.84" y="-449.28"/>
			<point x="148.448" y="-449.28" type="curve" smooth="yes"/>
			<point x="76.32" y="-449.28"/>
			<point x="66.896" y="-378.504"/>
			<point x="13.6" y="-378.504" type="curve" smooth="yes"/>
			<point x="-28.344" y="-378.504"/>
			<point x="-51.992" y="-409.096"/>
			<point x="-51.992" y="-442.392" type="curve" smooth="yes"/>
			<point x="-51.992" y="-489.408"/>
			<point x="-3.088" y="-530"/>
		</contour>
		<contour>
			<point x="100.312" y="223.384" type="curve" smooth="yes"/>
			<point x="36.352" y="223.384"/>
			<point x="-12.256" y="179.256"/>
			<point x="-12.256" y="118.352" type="curve" smooth="yes"/>
			<point x="-12.256" y="40.224"/>
			<point x="64.464" y="-26.48"/>
			<point x="247.104" y="-26.48" type="curve" smooth="yes"/>
			<point x="465.704" y="-26.48"/>
			<point x="624.456" y="114.624"/>
			<point x="624.456" y="274.824" type="curve" smooth="yes"/>
			<point x="624.456" y="352.84"/>
			<point x="590.808" y="430.192"/>
			<point x="485.016" y="530.008" type="curve" smooth="yes"/>
			<point x="379.224" y="629.824"/>
			<point x="354.112" y="673.568"/>
			<point x="354.112" y="717.568" type="curve" smooth="yes"/>
			<point x="354.112" y="769.72"/>
			<point x="384.04" y="803.24"/>
			<point x="439.376" y="803.24" type="curve" smooth="yes"/>
			<point x="478.912" y="803.24"/>
			<point x="523.744" y="769.168"/>
			<point x="561.688" y="712.984" type="curve" smooth="yes"/>
			<point x="599.632" y="656.8"/>
			<point x="616.928" y="642.912"/>
			<point x="628.632" y="642.912" type="curve" smooth="yes"/>
			<point x="691.832" y="642.912"/>
			<point x="737.144" y="682.448"/>
			<point x="737.144" y="744" type="curve" smooth="yes"/>
			<point x="737.144" y="825.312"/>
			<point x="669.128" y="891.44"/>
			<point x="497.248" y="891.44" type="curve" smooth="yes"/>
			<point x="280.72" y="891.44"/>
			<point x="149.432" y="759.408"/>
			<point x="149.432" y="598.784" type="curve" smooth="yes"/>
			<point x="149.432" y="504.272"/>
			<point x="189.392" y="429.496"/>
			<point x="293.352" y="340.4" type="curve" smooth="yes"/>
			<point x="397.312" y="251.304"/>
			<point x="420.312" y="207.024"/>
			<point x="420.312" y="155.504" type="curve" smooth="yes"/>
			<point x="420.312" y="93.24"/>
			<point x="372.328" y="58.96"/>
			<point x="305.936" y="58.96" type="curve" smooth="yes"/>
			<point x="263.104" y="58.96"/>
			<point x="221.272" y="81.2"/>
			<point x="175.144" y="145.736" type="curve" smooth="yes"/>
			<point x="129.016" y="210.272"/>
			<point x="114.424" y="223.384"/>
		</contour>
	</outline>
</glyph>
<glyph name="uni0163" format="2">
  <advance width="709"/>
  <unicode hex="0163"/>
  <outline>
    <contour>
      <point x="106.856" y="766.168" type="line"/>
      <point x="761.504" y="766.168" type="line"/>
      <point x="780.744" y="864.96" type="line"/>
      <point x="126.152" y="864.96" type="line"/>
    </contour>
    <contour>
      <point x="423.352" y="350.968" type="curve" smooth="yes"/>
      <point x="650.52" y="1080.432" type="line"/>
      <point x="383.328" y="1080.432" type="line"/>
      <point x="158.792" y="344.86400000000003" type="line" smooth="yes"/>
      <point x="130.128" y="252.464"/>
      <point x="116.648" y="177.6"/>
      <point x="116.648" y="130.584" type="curve" smooth="yes"/>
      <point x="116.648" y="11.648"/>
      <point x="170.2" y="-25.776"/>
      <point x="250.528" y="-25.776" type="curve" smooth="yes"/>
      <point x="373.8" y="-25.776"/>
      <point x="515.072" y="63.232"/>
      <point x="667.36" y="305.384" type="curve"/>
      <point x="618.288" y="341.752" type="line"/>
      <point x="524.4" y="222.4"/>
      <point x="456.504" y="169.32"/>
      <point x="418.744" y="169.32" type="curve" smooth="yes"/>
      <point x="400.20799999999997" y="169.32"/>
      <point x="388.968" y="178.672"/>
      <point x="388.968" y="204.56" type="curve" smooth="yes"/>
      <point x="388.968" y="226.392"/>
      <point x="392.32" y="256.168"/>
    </contour>
    <contour>
      <point x="104.52" y="-530.0" type="curve"/>
      <point x="278.424" y="-530.0"/>
      <point x="399.76" y="-410.28"/>
      <point x="399.76" y="-281.648" type="curve" smooth="yes"/>
      <point x="399.76" y="-207.168"/>
      <point x="350.392" y="-141.28"/>
      <point x="196.89600000000002" y="-105.264" type="curve"/>
      <point x="165.488" y="-221.832" type="line"/>
      <point x="397.52" y="49.352" type="line"/>
      <point x="310.912" y="49.352" type="line"/>
      <point x="69.624" y="-229.144" type="line"/>
      <point x="65.568" y="-242.608" type="line"/>
      <point x="222.6" y="-273.568"/>
      <point x="262.824" y="-310.216"/>
      <point x="262.824" y="-356.2" type="curve" smooth="yes"/>
      <point x="262.824" y="-410.0"/>
      <point x="223.84" y="-449.28"/>
      <point x="162.448" y="-449.28" type="curve" smooth="yes"/>
      <point x="90.32" y="-449.28"/>
      <point x="80.896" y="-378.504"/>
      <point x="27.6" y="-378.504" type="curve" smooth="yes"/>
      <point x="-14.344000000000001" y="-378.504"/>
      <point x="-37.992" y="-409.096"/>
      <point x="-37.992" y="-442.392" type="curve" smooth="yes"/>
      <point x="-37.992" y="-489.408"/>
      <point x="10.911999999999999" y="-530.0"/>
    </contour>
  </outline>
</glyph>
<glyph name="Tbar" format="2">
	<unicode hex="0166"/>
	<advance width="1314.056"/>
	<outline>
		<contour>
			<point x="316.096" y="613.36" type="line"/>
			<point x="1102.096" y="613.36" type="line"/>
			<point x="1138.224" y="730.688" type="line"/>
			<point x="351.576" y="730.688" type="line"/>
		</contour>
		<contour>
			<point x="1373.44" y="1217.488" type="line"/>
			<point x="1313.232" y="1252.04" type="line"/>
			<point x="1377.448" y="937.824" type="line"/>
			<point x="1430" y="937.824" type="line"/>
			<point x="1531.944" y="1412.536" type="line"/>
			<point x="1496.8" y="1412.536" type="line"/>
			<point x="1310.344" y="1316.224" type="line"/>
			<point x="1421.912" y="1340" type="line"/>
			<point x="436.256" y="1340" type="line"/>
			<point x="528.824" y="1316.224" type="line"/>
			<point x="405.256" y="1412.536" type="line"/>
			<point x="371.408" y="1412.536" type="line"/>
			<point x="194.84" y="953.288" type="line"/>
			<point x="246.096" y="931.696" type="line"/>
			<point x="516.344" y="1250.152" type="line"/>
			<point x="376.184" y="1217.488" type="line"/>
		</contour>
		<contour>
			<point x="760.12" y="1255.672" type="line"/>
			<point x="406.544" y="97.016" type="line"/>
			<point x="253.616" y="41.888" type="line"/>
			<point x="240.968" y="0" type="line"/>
			<point x="810.256" y="0" type="line"/>
			<point x="822.904" y="41.888" type="line"/>
			<point x="698.16" y="92.072" type="line"/>
			<point x="1053.384" y="1255.672" type="line"/>
		</contour>
	</outline>
</glyph>
<glyph name="tbar" format="2">
  <advance width="726"/>
  <unicode hex="0167"/>
  <outline>
    <contour>
      <point x="69.8" y="474.464" type="line"/>
      <point x="676.208" y="474.464" type="line"/>
      <point x="710.928" y="586.864" type="line"/>
      <point x="104.168" y="586.864" type="line"/>
    </contour>
    <contour>
      <point x="120.264" y="766.168" type="line"/>
      <point x="774.912" y="766.168" type="line"/>
      <point x="794.152" y="864.96" type="line"/>
      <point x="139.56" y="864.96" type="line"/>
    </contour>
    <contour>
      <point x="402.376" y="204.56" type="curve" smooth="yes"/>
      <point x="402.376" y="226.392"/>
      <point x="405.728" y="256.168"/>
      <point x="436.76" y="350.968" type="curve" smooth="yes"/>
      <point x="663.928" y="1080.432" type="line"/>
      <point x="396.736" y="1080.432" type="line"/>
      <point x="172.2" y="344.86400000000003" type="line" smooth="yes"/>
      <point x="143.536" y="252.464"/>
      <point x="130.056" y="177.6"/>
      <point x="130.056" y="130.584" type="curve" smooth="yes"/>
      <point x="130.056" y="11.648"/>
      <point x="183.608" y="-25.776"/>
      <point x="263.936" y="-25.776" type="curve" smooth="yes"/>
      <point x="387.20799999999997" y="-25.776"/>
      <point x="528.48" y="63.232"/>
      <point x="680.768" y="305.384" type="curve"/>
      <point x="631.696" y="341.752" type="line"/>
      <point x="537.808" y="222.4"/>
      <point x="469.91200000000003" y="169.32"/>
      <point x="432.15200000000004" y="169.32" type="curve" smooth="yes"/>
      <point x="413.616" y="169.32"/>
      <point x="402.376" y="178.672"/>
    </contour>
  </outline>
</glyph>
